<?xml version="1.0" encoding="UTF-8"?>
<svg width="20px" height="20px" viewBox="0 0 20 20" version="1.1" xmlns="http://www.w3.org/2000/svg" xmlns:xlink="http://www.w3.org/1999/xlink">
    <!-- Generator: Sketch 53.2 (72643) - https://sketchapp.com -->
    <title>discord</title>
    <desc>Created with Sketch.</desc>
    <g id="Scenarios" stroke="none" stroke-width="1" fill="none" fill-rule="evenodd">
        <g id="-g-Exyte_UI" transform="translate(-252.000000, -657.000000)" fill="#000000" fill-rule="nonzero">
            <g id="discord" transform="translate(253.000000, 658.000000)">
                <path d="M3,0 L15,0 C16.6568542,-3.04359188e-16 18,1.34314575 18,3 L18,15 C18,16.6568542 16.6568542,18 15,18 L3,18 C1.34314575,18 -6.85272294e-16,16.6568542 -8.8817842e-16,15 L0,3 C-2.02906125e-16,1.34314575 1.34314575,-5.83819232e-16 3,-8.8817842e-16 Z M11.9211328,13.2233287 L11.9211328,13.2232595 C14.1942656,13.1523844 15.0686016,11.6842869 15.0686016,11.6842869 C15.0686016,8.42403212 13.5873984,5.7814428 13.5873984,5.7814428 C12.1062656,4.68786209 10.6971328,4.71831624 10.6971328,4.71831624 L10.5531328,4.88027692 C12.3017344,5.40678758 13.1142656,6.16613403 13.1142656,6.16613403 C12.0446016,5.58902796 10.9953984,5.30552755 10.0183359,5.19416227 C9.32742301,5.1191983 8.62987468,5.12598347 7.94060156,5.21437275 C7.87886719,5.21437275 7.82739844,5.22447799 7.76573437,5.23465244 C7.40573437,5.26503738 6.53139844,5.39661313 5.43079687,5.87252838 C5.05026562,6.04466352 4.824,6.16613403 4.824,6.16613403 C4.824,6.16613403 5.67773437,5.36615898 7.52913281,4.83978675 L7.42626562,4.71824702 C7.42626562,4.71824702 6.01713281,4.68786209 4.536,5.78137358 C4.536,5.78137358 3.05486719,8.42403212 3.05486719,11.6842869 C3.05486719,11.6842869 3.91879687,13.1523844 6.192,13.2232595 C6.192,13.2232595 6.57260156,12.7676931 6.88113281,12.3828635 C5.57486719,11.9981722 5.08113281,11.1881612 5.08113281,11.1881612 C5.08113281,11.1881612 5.184,11.2590363 5.36913281,11.3602963 C5.37939844,11.3704015 5.38973437,11.3805068 5.41026562,11.390612 C5.44113281,11.4108917 5.472,11.420997 5.50279687,11.4412766 C5.76,11.5830269 6.01713281,11.6943921 6.25373437,11.7855469 C6.67539844,11.9475076 7.17939844,12.1094683 7.76573437,12.2209028 C8.53713281,12.362653 9.44226562,12.4132484 10.4297344,12.231008 C10.9131328,12.1499585 11.4068672,12.0082775 11.9211328,11.795583 C12.2811328,11.6640764 12.6822656,11.4716616 13.104,11.1982664 C13.104,11.1982664 12.5897344,12.028488 11.2422656,12.4031432 C11.5508672,12.7879036 11.9211328,13.2233287 11.9211328,13.2233287 Z M7.13826562,8.49490722 C6.552,8.49490722 6.08920313,9.00113819 6.08920313,9.61873443 C6.08920313,10.2363999 6.56226562,10.7426308 7.13826562,10.7426308 C7.72460156,10.7426308 8.18739844,10.2363999 8.18739844,9.61873443 C8.19773437,9.00113819 7.72460156,8.49490722 7.13833594,8.49490722 L7.13826562,8.49490722 Z M10.8926016,8.49490722 C10.3062656,8.49490722 9.84339844,9.00113819 9.84339844,9.61873443 C9.84339844,10.2363999 10.3166016,10.7426308 10.8926016,10.7426308 C11.4788672,10.7426308 11.9416641,10.2363999 11.9416641,9.61873443 C11.9416641,9.00113819 11.4788672,8.49490722 10.8926016,8.49490722 L10.8926016,8.49490722 Z" id="Shape"></path>
            </g>
        </g>
    </g>
</svg>