<?xml version="1.0" encoding="UTF-8"?>
<svg width="18px" height="18px" viewBox="0 0 18 18" version="1.1" xmlns="http://www.w3.org/2000/svg" xmlns:xlink="http://www.w3.org/1999/xlink">
    <!-- Generator: Sketch 52.6 (67491) - http://www.bohemiancoding.com/sketch -->
    <title>Fill 4</title>
    <desc>Created with Sketch.</desc>
    <g id="Page-1" stroke="none" stroke-width="1" fill="none" fill-rule="evenodd">
        <g id="In-Black-0p5in-R" fill="#1A1919">
            <g id="Group-5">
                <path d="M15.3389261,15.3384261 L12.6693519,15.3384261 L12.6693519,11.16081 C12.6693519,10.1647824 12.6523515,8.88324676 11.2823134,8.88324676 C9.8927748,8.88324676 9.68076891,9.96877691 9.68076891,11.0898081 L9.68076891,15.3384261 L7.01419484,15.3384261 L7.01419484,6.74818745 L9.57326592,6.74818745 L9.57326592,7.92272008 L9.61026695,7.92272008 C9.96627684,7.24720131 10.837301,6.53518153 12.1358371,6.53518153 C14.8394122,6.53518153 15.3389261,8.31373094 15.3389261,10.6272952 L15.3389261,15.3384261 Z M4.00411123,5.57465485 C3.14658741,5.57465485 2.4550682,4.88113559 2.4550682,4.02611184 C2.4550682,3.1715881 3.14658741,2.47806884 4.00411123,2.47806884 C4.85813495,2.47806884 5.5511542,3.1715881 5.5511542,4.02611184 C5.5511542,4.88113559 4.85813495,5.57465485 4.00411123,5.57465485 Z M2.66707409,15.3384261 L5.33964832,15.3384261 L5.33964832,6.74818745 L2.66707409,6.74818745 L2.66707409,15.3384261 Z M16.668463,0 L1.32753688,0 C0.595016528,0 0,0.581016139 0,1.29803606 L0,16.7014639 C0,17.4184838 0.595016528,18.0005 1.32753688,18.0005 L16.668463,18.0005 C17.4024834,18.0005 18,17.4184838 18,16.7014639 L18,1.29803606 C18,0.581016139 17.4024834,0 16.668463,0 Z" id="Fill-4"></path>
            </g>
        </g>
    </g>
</svg>