<?xml version="1.0" encoding="UTF-8"?> <svg xmlns="http://www.w3.org/2000/svg" width="519pt" height="536pt" viewBox="0 0 519 536"> <g id="#ffffffff"> <path fill="#ffffff" opacity="1.00" d=" M 264.79 27.51 C 265.09 26.27 265.37 25.03 265.72 23.80 C 266.14 26.54 266.09 29.58 263.39 31.10 C 263.64 29.83 264.06 28.59 264.79 27.51 Z"></path> </g> <g id="#1b1a19ff"> <path fill="#1b1a19" opacity="1.00" d=" M 305.14 0.00 L 384.75 0.00 C 384.56 21.33 385.10 42.64 385.00 63.97 C 360.32 64.62 335.62 63.87 310.94 64.61 C 305.84 68.40 302.21 73.83 297.27 77.85 C 297.38 52.08 297.02 26.32 297.00 0.55 C 299.72 0.55 302.45 0.49 305.14 0.00 M 317.37 28.47 C 311.99 30.05 311.27 38.31 316.29 40.78 C 320.85 43.55 327.13 39.18 326.15 33.96 C 325.70 29.88 321.22 27.13 317.37 28.47 M 338.42 28.58 C 333.74 30.35 332.90 37.35 336.98 40.20 C 340.50 43.07 346.44 41.06 347.43 36.62 C 349.22 31.56 343.27 26.17 338.42 28.58 M 360.38 28.53 C 356.09 30.24 354.84 36.50 358.40 39.57 C 361.85 43.50 368.95 40.98 369.59 35.93 C 370.73 30.98 365.02 26.23 360.38 28.53 Z"></path> <path fill="#1b1a19" opacity="1.00" d=" M 254.64 17.71 C 255.22 16.33 257.26 17.06 257.95 17.96 C 259.99 20.61 259.69 24.16 260.24 27.29 C 263.67 26.56 262.62 22.01 263.97 19.49 C 266.49 20.16 267.52 22.58 267.86 24.94 C 269.09 30.22 265.55 34.81 263.65 39.44 C 261.38 45.20 253.64 46.98 252.85 53.52 C 253.38 54.06 254.46 55.15 254.99 55.69 C 246.83 73.79 238.86 92.00 229.56 109.56 C 226.33 115.99 221.42 121.35 216.42 126.46 C 208.65 134.34 200.58 141.91 192.48 149.45 C 191.34 150.31 190.81 151.63 190.74 153.04 C 188.24 172.97 185.79 192.90 183.25 212.83 C 182.92 214.54 183.49 216.22 184.14 217.79 C 187.51 226.20 190.77 234.66 194.13 243.08 C 195.44 246.05 195.41 249.67 193.63 252.45 C 192.04 254.98 189.16 256.18 187.00 258.11 C 186.15 260.54 186.17 263.22 186.22 265.77 C 187.94 281.79 187.98 297.93 187.79 314.02 C 187.61 330.17 184.44 346.07 182.80 362.09 C 180.73 379.02 179.10 396.02 176.31 412.84 C 174.52 419.84 172.74 426.85 171.84 434.03 C 167.62 461.59 164.38 489.29 161.01 516.96 C 160.46 520.42 160.93 523.91 161.63 527.32 C 168.18 530.22 174.70 533.19 181.29 536.00 L 119.46 536.00 C 120.15 531.81 121.18 527.68 121.68 523.46 C 121.41 504.41 115.67 485.99 114.32 467.05 C 113.45 454.99 115.30 442.99 116.17 431.00 C 117.36 418.34 118.66 405.70 119.92 393.06 C 119.52 381.01 118.30 369.00 117.90 356.96 C 116.66 343.66 117.01 330.17 114.21 317.05 C 113.33 309.98 110.48 303.41 108.61 296.59 C 105.72 286.35 103.13 275.85 103.48 265.13 C 102.15 259.94 97.41 256.23 96.55 250.84 C 95.04 241.46 95.48 231.91 94.97 222.45 C 86.55 224.82 77.74 227.14 68.93 225.90 C 65.76 225.37 61.76 223.80 61.29 220.15 C 60.09 211.29 62.43 202.47 64.41 193.89 C 69.26 174.90 75.67 156.32 82.88 138.09 C 84.64 132.57 89.89 129.50 94.28 126.25 C 105.96 118.41 118.11 111.07 131.14 105.68 C 131.29 105.01 131.59 103.65 131.74 102.98 C 124.56 93.84 116.48 85.28 110.86 75.04 C 108.74 71.03 106.79 66.60 107.30 61.96 C 107.57 59.01 109.48 56.47 111.85 54.82 C 118.19 50.32 125.46 47.38 132.71 44.72 C 140.22 42.13 147.98 39.79 155.97 39.48 C 158.49 39.51 162.43 39.90 162.74 43.09 C 163.40 46.38 161.03 49.05 160.19 52.00 C 161.46 55.78 162.70 59.57 163.29 63.53 C 164.26 70.03 172.13 72.04 173.88 78.13 C 173.04 78.31 171.35 78.69 170.50 78.88 C 171.47 83.79 173.23 88.79 172.47 93.85 C 171.08 98.00 166.19 98.78 162.50 99.69 C 161.93 102.42 161.36 105.16 160.78 107.89 C 166.24 108.39 171.69 108.99 177.12 109.81 C 186.49 105.15 195.50 99.80 204.56 94.56 C 206.40 93.52 208.19 92.29 209.35 90.48 C 219.89 75.67 230.53 60.95 241.08 46.15 C 242.16 44.56 244.26 43.99 245.13 42.24 C 247.95 37.54 247.25 31.30 251.21 27.22 C 253.59 24.61 253.09 20.73 254.64 17.71 M 256.44 19.58 C 255.58 22.05 255.27 24.68 254.36 27.13 C 252.76 29.07 250.76 30.84 250.38 33.48 C 249.53 38.04 247.84 42.34 245.57 46.36 C 247.26 48.16 249.09 49.83 250.90 51.51 C 251.39 47.73 254.95 45.82 257.45 43.42 C 260.24 41.49 261.67 38.40 263.10 35.45 C 259.62 35.26 261.58 31.29 261.31 29.06 C 260.48 28.98 258.82 28.82 258.00 28.74 C 257.56 25.68 257.58 22.50 256.44 19.58 M 264.79 27.51 C 264.06 28.59 263.64 29.83 263.39 31.10 C 266.09 29.58 266.14 26.54 265.72 23.80 C 265.37 25.03 265.09 26.27 264.79 27.51 M 149.36 59.02 C 149.89 63.23 147.81 67.14 145.13 70.21 C 147.55 75.51 150.19 80.70 152.64 85.99 C 152.33 86.72 151.71 88.17 151.40 88.90 C 150.28 88.75 149.83 87.57 149.14 86.84 C 145.45 81.89 141.54 76.97 136.54 73.27 C 134.75 72.04 132.58 70.71 130.32 71.32 C 127.60 72.65 126.73 76.28 127.99 78.91 C 129.59 82.60 133.03 84.95 136.26 87.11 C 135.46 91.43 134.27 95.68 133.61 100.03 C 134.31 104.59 132.40 109.67 135.17 113.78 C 138.56 119.81 147.11 121.87 152.77 117.78 C 159.41 113.37 158.55 104.44 160.60 97.62 C 163.85 96.92 167.80 96.74 169.98 93.86 C 171.34 88.12 168.18 82.61 168.14 76.91 C 169.01 76.76 169.89 76.61 170.77 76.46 C 167.60 73.28 163.66 70.57 161.64 66.46 C 160.57 62.09 160.01 57.56 158.20 53.39 C 155.54 55.69 152.49 57.45 149.36 59.02 M 99.79 133.95 C 101.04 135.74 102.67 137.29 103.61 139.28 C 105.22 143.43 104.41 147.99 103.59 152.22 C 100.49 167.79 95.88 183.11 89.34 197.60 C 86.79 197.39 84.24 197.22 81.69 197.22 C 81.85 197.58 82.18 198.29 82.34 198.65 C 86.66 199.25 91.04 199.55 95.40 199.39 C 94.90 197.47 92.65 198.07 91.22 197.60 C 97.96 182.43 102.71 166.41 105.71 150.09 C 106.52 145.90 106.70 141.30 104.59 137.44 C 103.55 135.71 102.07 133.70 99.79 133.95 M 142.72 145.69 C 143.17 146.77 143.67 147.84 144.22 148.88 C 155.21 167.91 166.23 186.93 177.21 205.98 C 177.70 207.02 178.53 207.81 179.79 207.55 C 179.05 205.88 178.23 204.25 177.30 202.67 C 166.36 183.93 155.64 165.05 144.64 146.34 C 144.16 146.17 143.20 145.85 142.72 145.69 M 100.56 197.53 C 98.53 199.50 95.80 201.04 94.92 203.89 C 93.37 207.82 91.70 211.70 90.25 215.66 C 97.77 214.15 105.13 211.74 112.83 211.22 C 117.36 210.45 122.62 210.52 126.17 207.16 C 127.58 207.02 129.00 206.88 130.41 206.74 C 130.51 204.80 130.19 202.88 129.77 200.99 C 130.08 200.44 130.70 199.33 131.01 198.78 C 130.36 197.79 129.71 196.80 129.06 195.81 C 130.86 195.24 132.66 194.66 134.46 194.09 C 133.68 192.59 132.87 191.11 132.04 189.64 C 125.68 189.75 119.37 190.70 113.08 191.52 C 112.71 189.59 112.30 187.66 111.88 185.75 C 107.27 188.85 104.79 194.04 100.56 197.53 M 105.68 259.39 C 113.10 260.18 120.58 259.54 128.03 259.76 C 146.35 259.07 164.70 259.96 183.01 259.17 L 182.99 257.80 C 158.99 257.48 135.00 258.20 110.99 257.98 C 109.20 258.23 106.68 257.26 105.68 259.39 M 105.85 266.19 C 105.45 281.47 110.98 296.04 115.33 310.46 C 116.19 314.55 116.73 318.71 117.53 322.82 C 119.22 331.09 118.61 339.59 119.64 347.95 C 119.90 356.67 120.81 365.36 121.07 374.09 C 121.85 383.53 122.73 393.10 121.24 402.52 C 119.62 419.99 117.57 437.43 116.57 454.95 C 115.27 476.53 122.62 497.31 123.78 518.70 C 126.54 518.75 129.30 518.75 132.06 518.75 C 135.15 494.47 137.80 470.13 141.36 445.92 C 144.36 444.48 143.50 448.25 143.29 449.90 C 140.48 473.19 149.16 495.68 150.09 518.77 C 152.92 518.75 155.75 518.75 158.59 518.72 C 161.78 491.08 165.17 463.45 169.21 435.92 C 170.38 428.87 171.28 421.74 173.54 414.94 C 176.04 402.59 177.11 390.01 178.71 377.53 C 180.23 364.30 181.76 351.07 183.52 337.87 C 185.99 322.70 185.51 307.26 185.36 291.95 C 185.04 284.38 185.45 276.74 184.13 269.24 C 158.03 268.54 131.95 267.00 105.85 266.19 M 140.43 466.82 C 140.30 470.92 139.84 475.01 139.18 479.06 C 137.52 492.66 135.94 506.27 134.29 519.87 C 133.78 522.46 134.87 524.96 135.37 527.47 C 139.16 529.00 142.86 530.75 146.62 532.35 C 147.20 528.23 148.50 524.14 148.05 519.94 C 146.96 502.04 142.33 484.62 140.43 466.82 Z"></path> <path fill="#1b1a19" opacity="1.00" d=" M 31.15 54.20 C 34.10 51.17 38.40 56.86 34.84 59.02 C 31.79 61.34 28.25 56.40 31.15 54.20 Z"></path> <path fill="#1b1a19" opacity="1.00" d=" M 446.75 156.53 C 456.33 156.47 465.91 156.52 475.50 156.50 C 475.48 166.09 475.54 175.68 475.47 185.26 C 467.46 178.05 460.16 170.07 452.43 162.56 C 450.46 160.62 448.42 158.74 446.75 156.53 M 452.21 158.77 C 459.08 165.77 466.06 172.66 473.00 179.61 C 473.00 172.66 473.00 165.70 473.00 158.75 C 466.07 158.76 459.14 158.74 452.21 158.77 Z"></path> <path fill="#1b1a19" opacity="1.00" d=" M 165.52 282.00 C 169.15 278.80 171.73 274.13 176.08 271.93 C 176.22 272.44 176.50 273.45 176.63 273.95 C 174.01 277.13 171.01 279.96 168.23 282.99 C 168.55 304.01 169.16 325.06 167.81 346.06 C 167.49 350.79 166.60 355.47 165.35 360.05 C 159.05 386.12 152.59 412.16 146.20 438.22 C 145.71 439.97 145.56 442.59 143.03 442.11 C 143.18 440.04 143.41 437.99 143.96 436.00 C 150.74 408.73 157.58 381.47 163.99 354.10 C 165.65 346.19 165.52 338.06 165.79 330.02 C 166.74 314.02 165.53 298.01 165.52 282.00 Z"></path> <path fill="#1b1a19" opacity="1.00" d=" M 142.39 283.54 L 143.77 283.24 L 144.73 283.98 C 145.58 290.57 148.49 296.54 152.48 301.77 L 151.78 303.15 C 149.50 302.91 148.50 300.33 147.24 298.72 C 144.38 294.19 142.47 288.92 142.39 283.54 Z"></path> <path fill="#1b1a19" opacity="1.00" d=" M 39.74 338.58 C 54.83 338.65 69.93 338.59 85.02 338.62 C 84.96 360.64 85.13 382.66 84.93 404.68 C 70.29 404.57 55.64 404.66 40.99 404.64 C 40.99 413.21 40.99 421.79 40.99 430.37 C 31.16 430.45 21.32 430.20 11.50 430.50 C 11.72 421.47 11.68 412.42 11.52 403.39 C 20.95 403.50 30.38 403.43 39.81 403.43 C 39.75 381.81 39.89 360.20 39.74 338.58 M 42.17 341.02 C 42.20 361.44 42.19 381.86 42.17 402.27 C 55.66 402.27 69.15 402.18 82.64 402.32 C 82.68 381.91 82.56 361.49 82.70 341.07 C 69.19 340.90 55.68 341.01 42.17 341.02 Z"></path> <path fill="#1b1a19" opacity="1.00" d=" M 51.10 357.37 C 58.46 357.12 65.84 357.36 73.20 357.27 C 73.14 357.88 73.03 359.10 72.97 359.71 C 65.53 359.45 58.06 359.97 50.64 359.45 C 50.76 358.93 50.99 357.89 51.10 357.37 Z"></path> <path fill="#1b1a19" opacity="1.00" d=" M 50.66 370.45 C 58.08 370.39 65.50 370.49 72.92 370.39 C 72.98 371.00 73.12 372.22 73.18 372.83 C 65.73 372.80 58.27 372.80 50.82 372.83 C 50.78 372.23 50.70 371.04 50.66 370.45 Z"></path> <path fill="#1b1a19" opacity="1.00" d=" M 417.49 394.64 C 426.56 391.37 437.54 398.15 437.99 407.91 C 439.26 416.56 431.83 425.22 423.06 425.04 C 414.72 425.77 406.77 418.38 406.96 410.01 C 406.43 403.24 411.11 396.71 417.49 394.64 Z"></path> </g> <g id="#191716ff"> <path fill="#191716" opacity="1.00" d=" M 44.55 54.65 C 45.74 52.87 48.78 53.03 49.63 55.02 C 50.64 56.87 49.37 59.86 47.00 59.48 C 44.43 59.77 43.36 56.51 44.55 54.65 Z"></path> </g> <g id="#1a1918ff"> <path fill="#1a1918" opacity="1.00" d=" M 59.14 53.99 C 62.11 51.54 65.89 56.47 62.93 58.76 C 59.94 61.70 55.73 56.28 59.14 53.99 Z"></path> <path fill="#1a1918" opacity="1.00" d=" M 57.49 71.03 C 58.13 69.28 59.80 66.70 62.01 67.97 C 64.64 68.65 64.53 72.92 61.99 73.60 C 59.90 74.56 58.44 72.54 57.49 71.03 Z"></path> <path fill="#1a1918" opacity="1.00" d=" M 30.92 82.77 C 33.08 80.91 35.78 82.70 36.59 84.99 C 35.81 86.55 34.59 87.74 33.01 88.47 C 30.70 87.65 29.00 84.89 30.92 82.77 Z"></path> </g> <g id="#181716ff"> <path fill="#181716" opacity="1.00" d=" M 32.00 67.94 C 34.13 66.87 35.92 69.18 36.56 70.96 C 35.62 72.17 34.78 74.06 32.90 73.80 C 29.76 73.85 29.06 68.84 32.00 67.94 Z"></path> </g> <g id="#171615ff"> <path fill="#171615" opacity="1.00" d=" M 46.09 67.91 C 48.21 66.94 49.76 69.26 50.45 70.95 C 49.55 72.48 48.17 74.50 46.08 73.60 C 43.43 73.04 43.40 68.51 46.09 67.91 Z"></path> <path fill="#171615" opacity="1.00" d=" M 47.01 88.44 C 43.48 87.85 42.96 81.98 46.99 82.02 C 51.07 81.87 50.59 87.90 47.01 88.44 Z"></path> </g> <g id="#191817ff"> <path fill="#191817" opacity="1.00" d=" M 57.58 84.93 C 58.22 82.55 61.20 80.83 63.16 82.94 C 65.05 84.90 63.34 87.68 61.10 88.34 C 60.51 88.07 59.33 87.51 58.74 87.23 C 58.45 86.66 57.87 85.51 57.58 84.93 Z"></path> </g> <g id="#262524ff"> <path fill="#262524" opacity="1.00" d=" M 327.35 111.23 C 330.53 110.75 333.76 111.05 336.97 111.00 C 396.33 111.00 455.69 111.02 515.05 110.99 C 516.57 110.78 517.90 111.39 519.00 112.42 L 519.00 451.81 C 517.79 452.50 516.51 453.12 515.08 453.01 C 453.36 453.00 391.64 452.99 329.93 453.01 C 328.05 453.33 325.68 452.37 326.04 450.12 C 325.95 417.07 326.03 384.01 326.00 350.96 C 322.77 350.58 319.44 350.17 316.53 348.61 C 312.43 346.48 308.83 343.05 304.06 342.47 C 298.23 341.42 292.21 343.02 287.50 346.54 C 283.57 349.48 278.74 350.62 273.95 351.11 C 273.98 350.44 274.04 349.09 274.07 348.42 C 277.21 348.07 280.46 347.72 283.27 346.16 C 286.66 344.31 289.70 341.74 293.46 340.65 C 300.08 338.71 307.68 339.57 313.31 343.72 C 316.99 346.48 321.36 348.17 325.98 348.40 C 326.02 342.65 325.99 336.91 326.00 331.16 C 324.01 330.99 322.00 330.88 320.08 330.30 C 314.92 328.92 311.16 324.62 306.02 323.17 C 299.77 321.42 292.90 322.82 287.67 326.63 C 283.70 329.57 278.95 331.30 273.97 331.14 C 273.98 330.51 274.01 329.23 274.03 328.59 C 279.11 328.83 283.69 326.57 287.75 323.75 C 292.53 320.58 298.49 319.31 304.16 320.28 C 312.16 321.24 317.54 329.14 325.97 328.65 C 326.03 310.10 325.98 291.55 326.00 273.00 C 302.00 273.00 278.00 273.00 254.00 273.00 C 254.00 245.67 254.00 218.33 254.00 191.00 C 236.33 191.00 218.66 191.00 201.00 191.00 C 201.00 190.50 201.00 189.50 201.00 189.00 C 219.33 189.00 237.67 189.00 256.00 189.00 C 256.00 216.33 256.00 243.66 256.00 271.00 C 279.33 271.00 302.67 271.00 326.00 271.00 C 325.99 218.99 326.01 166.98 325.99 114.97 C 326.00 113.59 325.92 111.98 327.35 111.23 M 328.00 113.00 C 328.00 165.67 328.00 218.33 328.00 271.00 C 334.67 271.00 341.33 271.00 348.00 271.00 C 348.01 226.66 347.98 182.31 348.02 137.97 C 347.69 136.27 349.28 134.71 350.98 135.01 C 399.02 134.99 447.06 134.99 495.10 135.01 C 496.75 134.74 498.28 136.29 497.99 137.95 C 498.01 215.65 498.01 293.37 497.99 371.07 C 498.26 372.72 496.74 374.27 495.09 373.99 C 447.06 374.01 399.03 374.01 351.01 373.99 C 349.32 374.31 347.73 372.77 348.01 371.08 C 347.95 361.59 348.05 352.10 347.97 342.62 C 344.72 343.56 341.78 345.26 339.00 347.16 C 335.72 349.33 331.86 350.37 328.01 350.93 C 327.99 384.28 328.00 417.64 328.00 451.00 C 391.00 451.00 454.00 451.00 517.00 451.00 C 517.00 338.33 517.00 225.67 517.00 113.00 C 454.00 113.00 391.00 113.00 328.00 113.00 M 350.00 137.00 C 350.00 181.67 350.00 226.33 350.00 271.00 C 359.59 270.99 369.19 271.01 378.78 270.99 C 380.06 267.03 384.59 264.58 388.48 266.55 C 393.55 268.67 393.16 277.13 387.86 278.72 C 383.71 280.33 379.25 277.28 378.71 273.00 C 369.14 273.00 359.57 273.00 350.00 273.00 C 350.00 288.69 350.00 304.38 350.00 320.07 C 356.03 319.41 362.06 321.25 366.93 324.80 C 370.39 327.47 374.65 328.34 378.88 328.86 C 378.95 329.41 379.09 330.52 379.16 331.07 C 373.58 331.60 368.58 328.92 364.13 325.90 C 360.00 323.04 354.94 322.15 350.01 322.50 C 350.00 328.25 349.98 334.00 350.02 339.74 C 355.90 339.19 361.87 340.68 366.59 344.28 C 370.04 347.00 374.35 347.98 378.62 348.50 C 378.76 349.14 379.04 350.41 379.18 351.05 C 376.12 350.67 372.96 350.44 370.12 349.12 C 365.97 347.33 362.57 343.98 358.11 342.87 C 355.50 342.08 352.74 342.24 350.05 342.20 C 349.95 352.13 350.02 362.06 350.00 372.00 C 398.67 372.00 447.33 372.00 496.00 372.00 C 496.00 293.67 496.00 215.33 496.00 137.00 C 447.33 137.00 398.67 137.00 350.00 137.00 M 328.00 273.00 C 328.01 291.54 327.98 310.07 328.02 328.61 C 335.68 328.63 340.63 321.72 347.91 320.50 C 348.11 304.67 347.94 288.84 348.00 273.00 C 341.33 273.00 334.67 273.00 328.00 273.00 M 328.00 331.15 C 328.00 336.88 327.99 342.62 328.01 348.35 C 335.72 348.21 340.70 341.42 347.99 340.02 C 348.00 334.32 348.02 328.62 347.98 322.92 C 340.90 324.75 335.70 331.28 328.00 331.15 Z"></path> </g> <g id="#1f1d1dff"> <path fill="#1f1d1d" opacity="1.00" d=" M 50.65 383.55 C 58.17 383.61 65.68 383.57 73.20 383.58 C 73.17 384.18 73.12 385.38 73.09 385.99 C 65.67 385.99 58.26 385.98 50.84 385.99 C 50.79 385.38 50.70 384.16 50.65 383.55 Z"></path> </g> <g id="#302f2eff"> <path fill="#302f2e" opacity="1.00" d=" M 226.57 434.76 C 230.76 432.93 235.78 432.99 239.89 435.01 C 245.45 437.66 249.14 443.88 248.49 450.06 C 248.25 459.77 237.35 467.23 228.19 463.78 C 220.22 461.54 215.49 452.19 218.11 444.40 C 219.39 440.17 222.53 436.56 226.57 434.76 M 228.49 436.65 C 223.48 438.47 219.66 443.58 219.99 449.01 C 219.56 455.95 226.00 462.41 232.94 462.02 C 240.33 462.51 246.95 455.32 246.00 448.00 C 245.87 439.56 236.23 433.59 228.49 436.65 Z"></path> </g> </svg> 