<?xml version="1.0" encoding="UTF-8"?> <svg xmlns="http://www.w3.org/2000/svg" width="268pt" height="233pt" viewBox="0 0 268 233"> <g id="#010101ff"> <path fill="#010101" opacity="1.00" d=" M 128.75 0.00 L 140.25 0.00 C 140.25 4.55 140.25 9.10 140.25 13.65 C 146.89 15.12 153.28 18.09 158.19 22.87 C 171.97 36.06 185.71 49.30 199.48 62.51 C 201.30 64.31 203.50 65.88 204.70 68.21 C 205.31 71.43 204.93 74.75 205.00 78.01 C 205.00 127.68 204.99 177.35 205.01 227.01 C 205.41 229.70 203.51 231.72 201.38 233.00 L 68.32 233.00 C 65.78 232.12 63.62 229.94 64.00 227.07 C 64.00 177.38 64.00 127.70 64.00 78.01 C 64.06 74.77 63.70 71.47 64.28 68.26 C 65.59 65.71 68.03 64.02 70.02 62.03 C 82.77 49.77 95.53 37.53 108.28 25.27 C 113.75 19.45 120.86 15.18 128.76 13.70 C 128.75 9.14 128.75 4.57 128.75 0.00 M 116.35 33.30 C 102.75 46.44 89.08 59.50 75.48 72.64 C 75.53 122.43 75.48 172.21 75.51 222.00 C 114.84 222.00 154.16 222.00 193.49 222.00 C 193.51 172.22 193.48 122.44 193.51 72.66 C 181.86 61.26 170.00 50.08 158.30 38.74 C 152.74 33.67 147.81 27.34 140.30 25.11 C 140.21 30.87 140.24 36.64 140.27 42.41 C 146.74 45.01 151.42 52.02 150.05 59.07 C 148.77 66.94 140.66 72.68 132.82 71.63 C 124.73 71.07 117.77 63.27 118.83 55.09 C 119.36 49.37 123.56 44.60 128.73 42.40 C 128.76 36.64 128.79 30.87 128.70 25.11 C 123.90 26.64 119.82 29.71 116.35 33.30 Z"></path> <path fill="#010101" opacity="1.00" d=" M 131.01 102.75 C 134.26 102.73 137.52 102.75 140.78 102.80 C 140.74 107.34 140.76 111.89 140.75 116.44 C 146.60 117.36 152.12 119.87 156.58 123.79 C 154.57 126.16 152.46 128.44 150.30 130.68 C 144.74 125.98 136.52 123.58 129.64 126.68 C 125.18 128.64 124.55 135.77 128.84 138.26 C 136.45 142.75 146.10 143.11 152.94 149.08 C 159.53 154.68 160.17 165.32 155.34 172.25 C 152.00 177.07 146.31 179.50 140.75 180.66 C 140.75 185.44 140.75 190.21 140.76 194.99 C 137.50 195.00 134.25 195.00 131.00 195.00 C 131.00 190.38 131.00 185.75 131.00 181.13 C 123.49 180.56 116.09 177.78 110.49 172.66 C 112.73 170.41 114.88 168.07 117.06 165.77 C 123.11 170.75 131.46 173.57 139.17 171.17 C 143.06 170.04 146.08 166.19 145.53 162.05 C 145.67 158.94 143.40 156.45 140.73 155.23 C 133.31 151.48 124.31 150.81 118.01 144.94 C 111.80 139.52 111.67 129.02 117.16 123.05 C 120.70 119.13 125.93 117.35 131.00 116.46 C 131.00 111.89 130.99 107.32 131.01 102.75 Z"></path> </g> </svg> 