<?xml version="1.0" encoding="UTF-8"?> <svg xmlns="http://www.w3.org/2000/svg" width="409pt" height="409pt" viewBox="0 0 409 409"> <g id="#000000ff"> <path fill="#000000" opacity="1.00" d=" M 170.41 106.73 C 183.42 101.76 196.32 96.54 209.22 91.31 C 222.44 96.42 235.61 101.66 248.77 106.94 C 248.67 124.71 248.88 142.49 248.67 160.26 C 235.40 165.13 222.45 171.02 209.08 175.52 C 196.04 170.43 183.03 165.21 170.00 160.04 C 169.99 146.37 170.00 132.70 170.00 119.04 C 170.03 114.93 169.77 110.80 170.41 106.73 M 180.77 111.07 C 190.26 114.97 199.85 118.63 209.35 122.50 C 219.04 118.70 228.75 114.94 238.39 111.02 C 228.72 107.10 219.01 103.28 209.28 99.50 C 199.82 103.47 190.16 106.96 180.77 111.07 M 177.52 118.01 C 177.48 130.29 177.52 142.57 177.49 154.86 C 186.94 158.54 196.34 162.31 205.75 166.05 C 205.74 153.80 205.76 141.55 205.74 129.31 C 196.35 125.50 186.93 121.77 177.52 118.01 M 213.26 129.20 C 213.24 141.46 213.25 153.72 213.26 165.98 C 222.68 162.28 232.09 158.56 241.48 154.80 C 241.51 142.54 241.50 130.27 241.49 118.01 C 232.07 121.71 222.69 125.52 213.26 129.20 Z"></path> <path fill="#000000" opacity="1.00" d=" M 185.00 179.88 C 186.72 178.17 188.39 176.43 190.01 174.62 C 191.62 176.40 193.27 178.15 194.97 179.86 C 193.40 181.61 191.80 183.33 190.13 184.99 C 188.31 183.41 186.58 181.70 185.00 179.88 Z"></path> <path fill="#000000" opacity="1.00" d=" M 232.62 174.68 C 234.30 176.42 236.00 178.14 237.72 179.84 C 236.03 181.59 234.39 183.36 232.75 185.15 C 231.04 183.45 229.38 181.69 227.79 179.88 C 229.45 178.19 231.06 176.46 232.62 174.68 Z"></path> <path fill="#000000" opacity="1.00" d=" M 174.90 190.36 C 176.42 188.44 178.10 186.66 179.88 184.97 C 181.57 186.70 183.22 188.48 184.84 190.28 C 183.19 191.93 181.55 193.60 179.94 195.29 C 178.27 193.63 176.59 191.99 174.90 190.36 Z"></path> <path fill="#000000" opacity="1.00" d=" M 237.78 190.09 C 239.48 188.38 241.18 186.68 242.89 184.98 C 244.53 186.76 246.17 188.53 247.84 190.28 C 246.19 191.94 244.54 193.59 242.88 195.24 C 241.15 193.55 239.45 191.84 237.78 190.09 Z"></path> <path fill="#000000" opacity="1.00" d=" M 164.67 200.62 C 166.30 198.81 168.00 197.07 169.75 195.39 C 171.46 197.08 173.17 198.78 174.87 200.48 C 173.18 202.20 171.47 203.91 169.76 205.61 C 168.08 203.93 166.39 202.26 164.67 200.62 Z"></path> <path fill="#000000" opacity="1.00" d=" M 247.88 200.48 C 249.59 198.78 251.30 197.07 253.01 195.38 C 254.72 197.07 256.39 198.79 258.01 200.57 C 256.36 202.27 254.68 203.95 253.00 205.61 C 251.28 203.91 249.57 202.20 247.88 200.48 Z"></path> <path fill="#000000" opacity="1.00" d=" M 154.50 210.87 C 156.19 209.15 157.91 207.45 159.67 205.80 C 161.36 207.49 163.05 209.18 164.74 210.87 C 163.05 212.57 161.35 214.27 159.64 215.96 C 157.90 214.29 156.19 212.59 154.50 210.87 Z"></path> <path fill="#000000" opacity="1.00" d=" M 258.00 210.87 C 259.69 209.16 261.39 207.47 263.10 205.78 C 264.84 207.45 266.55 209.15 268.25 210.88 C 266.55 212.59 264.84 214.29 263.10 215.97 C 261.39 214.27 259.69 212.57 258.00 210.87 Z"></path> <path fill="#000000" opacity="1.00" d=" M 91.26 227.48 C 104.44 222.23 117.60 216.95 130.81 211.78 C 143.91 216.97 156.96 222.27 170.11 227.32 C 170.47 245.00 170.08 262.70 170.31 280.38 C 157.21 285.77 143.99 290.86 130.84 296.13 C 117.70 291.08 104.69 285.72 91.57 280.64 C 91.24 262.92 91.18 245.20 91.26 227.48 M 101.83 231.47 C 111.48 235.35 121.15 239.16 130.82 242.97 C 140.42 239.10 150.08 235.40 159.65 231.45 C 150.06 227.53 140.38 223.83 130.78 219.95 C 121.14 223.82 111.46 227.59 101.83 231.47 M 98.76 238.46 C 98.74 250.72 98.76 262.98 98.75 275.24 C 108.14 279.07 117.60 282.71 127.00 286.50 C 127.00 274.24 127.00 261.98 127.00 249.72 C 117.62 245.89 108.16 242.24 98.76 238.46 M 134.50 249.73 C 134.52 261.98 134.48 274.23 134.52 286.48 C 143.91 282.75 153.30 279.04 162.70 275.33 C 162.80 263.04 162.74 250.75 162.74 238.45 C 153.35 242.28 143.87 245.88 134.50 249.73 Z"></path> <path fill="#000000" opacity="1.00" d=" M 244.27 227.38 C 257.42 222.19 270.53 216.90 283.71 211.78 C 296.75 217.01 309.82 222.17 322.88 227.36 C 323.07 245.12 323.10 262.89 322.86 280.65 C 310.32 285.46 297.86 290.50 285.38 295.47 C 284.15 296.19 282.80 295.89 281.59 295.35 C 269.14 290.44 256.73 285.45 244.27 280.57 C 244.23 262.84 244.24 245.11 244.27 227.38 M 254.66 231.45 C 264.34 235.31 274.00 239.21 283.73 242.93 C 293.28 239.04 302.91 235.33 312.50 231.52 C 302.97 227.60 293.38 223.78 283.75 220.11 C 273.95 223.55 264.35 227.69 254.66 231.45 M 251.51 238.42 C 251.49 250.69 251.51 262.96 251.50 275.24 C 261.00 278.99 270.48 282.78 279.99 286.51 C 280.02 274.26 279.98 262.02 280.01 249.77 C 270.52 245.95 261.00 242.23 251.51 238.42 M 287.30 249.67 C 287.19 261.94 287.27 274.21 287.26 286.48 C 296.68 282.79 306.07 279.02 315.50 275.35 C 315.48 263.07 315.52 250.80 315.48 238.52 C 306.09 242.25 296.71 246.00 287.30 249.67 Z"></path> <path fill="#000000" opacity="1.00" d=" M 179.75 250.00 C 182.07 250.00 184.39 250.00 186.71 250.00 C 186.81 252.38 186.94 254.76 187.04 257.15 C 184.61 257.23 182.18 257.25 179.75 257.26 C 179.75 254.84 179.75 252.42 179.75 250.00 Z"></path> <path fill="#000000" opacity="1.00" d=" M 194.00 250.00 C 196.42 250.00 198.83 250.00 201.25 250.00 C 201.25 252.41 201.25 254.83 201.25 257.24 C 198.83 257.24 196.42 257.25 194.00 257.24 C 194.00 254.83 194.00 252.41 194.00 250.00 Z"></path> <path fill="#000000" opacity="1.00" d=" M 208.25 250.00 C 210.67 250.00 213.08 250.00 215.50 250.00 C 215.50 252.41 215.50 254.83 215.50 257.24 C 213.08 257.24 210.67 257.25 208.25 257.25 C 208.24 254.83 208.24 252.41 208.25 250.00 Z"></path> <path fill="#000000" opacity="1.00" d=" M 222.75 250.00 C 225.08 250.00 227.42 250.00 229.76 250.01 C 229.75 252.42 229.75 254.83 229.75 257.24 C 227.42 257.24 225.09 257.24 222.76 257.24 C 222.75 254.83 222.75 252.41 222.75 250.00 Z"></path> </g> </svg> 