<?xml version="1.0" encoding="UTF-8"?> <svg xmlns="http://www.w3.org/2000/svg" width="720pt" height="153pt" viewBox="0 0 720 153"> <g id="#000000ff"> <path fill="#000000" opacity="1.00" d=" M 0.00 0.00 L 153.00 0.00 C 153.00 3.33 153.00 6.67 153.00 10.00 C 105.41 10.01 57.83 9.98 10.25 10.01 C 10.25 13.42 10.25 16.83 10.25 20.24 C 57.83 20.26 105.41 20.25 152.99 20.24 C 153.01 30.49 153.00 40.75 153.00 51.00 C 136.00 51.00 119.00 51.00 102.00 51.00 C 102.00 85.00 102.00 119.00 102.00 153.00 L 71.50 153.00 C 71.49 119.00 71.50 85.00 71.49 51.00 C 68.08 51.00 64.66 51.00 61.25 51.01 C 61.26 85.01 61.25 119.00 61.25 153.00 L 51.00 153.00 C 51.00 115.58 50.99 78.17 51.01 40.75 C 61.25 40.75 71.50 40.74 81.75 40.76 C 81.76 74.75 81.74 108.75 81.76 142.75 C 85.09 142.75 88.42 142.75 91.75 142.75 C 91.76 108.75 91.74 74.75 91.76 40.76 C 108.83 40.74 125.91 40.75 142.99 40.75 C 143.00 37.33 143.00 33.91 142.98 30.49 C 95.32 30.51 47.66 30.49 0.00 30.50 L 0.00 0.00 Z"></path> <path fill="#000000" opacity="1.00" d=" M 469.08 31.46 C 478.23 31.67 487.37 31.53 496.52 31.50 C 494.96 36.09 494.51 41.16 496.30 45.76 C 502.81 64.17 509.21 82.63 515.91 100.98 C 518.44 107.73 520.91 114.61 525.13 120.54 C 518.13 120.41 511.13 120.02 504.14 120.65 C 506.06 119.03 507.10 116.55 506.33 114.06 C 504.58 107.58 502.02 101.35 499.88 95.00 C 488.47 95.19 477.07 94.64 465.65 94.74 C 463.42 101.18 460.82 107.49 458.92 114.04 C 458.29 116.05 459.46 117.98 460.03 119.85 C 460.63 120.06 461.83 120.50 462.43 120.72 C 455.03 120.15 447.62 120.31 440.22 120.53 C 443.73 116.13 445.74 110.86 447.65 105.63 C 454.39 87.34 460.78 68.92 467.53 50.63 C 470.01 44.60 471.31 37.79 469.08 31.46 M 482.69 43.55 C 478.23 57.50 473.50 71.36 468.80 85.23 C 477.99 85.14 487.16 85.09 496.34 85.22 C 491.81 71.33 487.29 57.42 482.69 43.55 Z"></path> <path fill="#000000" opacity="1.00" d=" M 241.75 32.52 C 266.25 32.49 290.75 32.48 315.25 32.52 C 315.29 37.83 315.11 43.15 315.43 48.46 C 307.17 41.02 295.42 42.99 285.25 42.76 C 285.26 63.52 285.23 84.29 285.26 105.05 C 285.15 110.58 287.26 115.86 290.49 120.27 C 282.82 120.23 275.15 120.24 267.48 120.26 C 270.61 115.84 271.78 110.37 271.76 105.02 C 271.75 84.27 271.74 63.52 271.76 42.77 C 261.59 42.99 249.81 40.99 241.57 48.47 C 241.89 43.15 241.71 37.83 241.75 32.52 Z"></path> <path fill="#000000" opacity="1.00" d=" M 344.95 32.17 C 358.65 32.96 372.43 31.33 386.09 33.10 C 393.69 34.21 401.32 37.94 405.75 44.39 C 410.74 52.78 410.56 63.70 406.20 72.31 C 402.79 78.75 395.52 82.65 388.31 82.57 C 397.72 95.86 406.49 110.05 419.13 120.57 C 409.77 122.00 398.21 121.39 392.14 113.02 C 385.20 103.02 378.53 92.84 372.10 82.51 C 369.21 82.51 366.33 82.51 363.45 82.51 C 364.58 95.11 361.35 108.61 366.95 120.47 C 360.38 120.44 353.81 120.36 347.23 120.53 C 350.36 113.81 349.63 106.22 349.74 99.02 C 350.21 85.03 349.94 71.02 349.98 57.02 C 349.47 48.65 350.70 39.11 344.95 32.17 M 363.51 41.23 C 363.63 52.39 363.85 63.55 363.78 74.71 C 370.00 74.92 376.26 75.17 382.47 74.39 C 386.17 73.83 390.00 72.39 392.29 69.26 C 395.96 64.31 395.90 57.62 394.44 51.89 C 393.29 46.99 388.87 43.44 384.14 42.21 C 377.36 40.78 370.38 41.67 363.51 41.23 Z"></path> <path fill="#000000" opacity="1.00" d=" M 573.07 35.03 C 588.97 29.14 606.65 31.91 622.05 38.01 C 620.76 45.22 619.71 52.47 618.61 59.72 C 614.77 53.07 609.76 46.84 602.94 43.09 C 594.00 38.40 582.59 39.58 574.40 45.31 C 567.90 49.75 564.35 57.38 562.86 64.91 C 561.21 74.40 561.40 84.38 564.49 93.57 C 567.20 101.66 573.75 108.53 581.99 111.03 C 589.46 113.24 598.06 113.10 604.82 108.87 C 611.12 105.18 615.81 99.23 618.82 92.64 C 619.74 100.09 620.91 107.50 622.03 114.92 C 608.76 120.12 594.08 122.65 579.96 119.87 C 567.12 117.54 555.51 108.61 550.57 96.45 C 546.51 85.84 545.59 73.99 548.51 62.96 C 551.18 50.26 560.77 39.25 573.07 35.03 Z"></path> <path fill="#000000" opacity="1.00" d=" M 660.31 32.49 C 680.04 32.52 699.77 32.49 719.50 32.50 C 719.51 37.49 719.46 42.47 719.55 47.45 C 716.28 45.59 712.71 44.14 708.91 43.96 C 698.63 43.11 688.30 43.64 678.00 43.51 C 678.00 52.75 677.99 62.00 678.00 71.24 C 688.75 71.15 699.53 71.64 710.24 70.48 C 710.25 73.84 710.25 77.19 710.24 80.55 C 699.52 79.68 688.75 79.69 678.01 79.75 C 677.99 89.58 677.99 99.41 678.01 109.24 C 686.31 109.22 694.63 109.30 702.94 109.22 C 708.65 109.17 714.42 108.17 719.53 105.51 C 719.48 110.42 719.51 115.33 719.50 120.24 C 699.79 120.28 680.08 120.20 660.37 120.28 C 663.56 115.49 664.51 109.69 664.50 104.03 C 664.48 85.35 664.52 66.67 664.48 47.99 C 664.47 42.55 662.80 37.28 660.31 32.49 Z"></path> </g> </svg> 