<?xml version="1.0" encoding="UTF-8"?> <svg xmlns="http://www.w3.org/2000/svg" width="511pt" height="552pt" viewBox="0 0 511 552"> <g id="#030303ff"> <path fill="#030303" opacity="1.00" d=" M 350.42 1.58 C 358.49 -0.50 368.14 -0.52 374.76 5.24 C 381.76 11.65 383.58 21.54 384.50 30.55 C 386.91 30.99 389.90 31.48 390.50 34.34 C 391.95 40.38 389.04 46.68 384.63 50.77 C 383.18 53.59 382.98 56.93 381.57 59.80 C 378.99 64.66 380.15 70.29 380.03 75.55 C 395.72 80.82 410.78 87.87 425.36 95.68 C 429.86 97.67 431.34 102.63 433.23 106.75 C 438.79 119.84 443.92 133.11 448.92 146.42 C 443.34 149.40 437.33 151.43 431.56 153.99 C 435.27 180.39 441.22 206.37 446.53 232.47 C 449.95 250.50 454.06 268.39 458.60 286.17 C 459.49 289.38 461.85 291.91 463.10 294.98 C 466.24 302.25 468.80 309.76 471.38 317.24 C 475.36 316.53 479.32 315.75 483.26 314.84 C 492.58 347.41 501.88 379.99 510.92 412.64 C 500.18 414.87 489.47 417.24 478.79 419.71 C 478.88 425.44 478.96 431.18 478.86 436.91 C 453.90 435.65 428.99 433.07 404.03 431.55 C 396.30 461.76 388.87 492.05 381.19 522.27 C 378.14 528.62 377.93 535.74 376.95 542.60 C 381.71 545.62 386.33 548.85 391.01 552.00 L 358.36 552.00 C 360.51 544.75 362.31 537.40 364.43 530.15 C 365.53 526.85 364.90 523.37 365.07 519.99 C 368.92 474.40 372.89 428.82 376.69 383.23 C 374.14 383.24 371.60 383.24 369.06 383.25 C 367.88 359.33 367.19 335.38 365.66 311.48 C 359.67 335.53 352.68 359.33 346.21 383.25 C 344.50 383.24 342.79 383.24 341.09 383.24 C 339.00 396.89 337.02 410.58 334.06 424.09 C 326.39 456.55 320.09 489.31 313.20 521.94 C 312.50 524.63 311.07 527.13 310.97 529.97 C 310.32 537.31 309.65 544.66 308.91 552.00 L 275.18 552.00 C 282.00 548.64 289.23 545.82 295.71 541.91 C 296.57 535.69 297.95 529.37 297.06 523.07 C 296.75 510.01 298.11 496.99 298.25 483.94 C 299.56 461.25 299.95 438.45 303.24 415.92 C 304.80 405.03 306.23 394.11 307.97 383.24 C 305.14 383.24 302.31 383.24 299.49 383.25 C 304.25 344.80 309.22 306.38 313.87 267.92 C 313.38 266.33 312.94 264.71 313.00 263.04 C 313.08 221.60 313.02 180.16 313.03 138.72 C 305.38 139.54 297.78 141.25 290.10 141.51 C 287.88 136.93 287.82 131.49 286.64 126.54 C 276.79 127.14 266.92 128.67 257.04 127.80 C 253.76 126.91 251.73 123.82 250.00 121.12 C 247.31 116.41 244.90 110.80 246.41 105.31 C 248.20 101.97 251.05 99.37 253.63 96.65 C 266.37 84.04 279.66 71.99 293.00 60.02 C 295.58 57.62 298.76 55.55 300.02 52.08 C 301.87 47.51 304.42 43.30 307.37 39.36 C 309.63 36.36 310.46 31.88 314.15 30.23 C 317.06 29.24 318.48 32.50 320.03 34.27 C 321.74 34.18 323.46 34.08 325.17 33.99 C 325.80 34.70 326.42 35.42 327.06 36.14 C 329.45 35.00 331.84 33.87 334.26 32.78 C 334.08 25.87 333.97 18.58 337.13 12.24 C 339.65 6.87 344.74 3.05 350.42 1.58 M 345.39 19.00 C 346.01 23.31 345.10 28.64 340.60 30.51 C 340.77 34.40 341.03 38.28 341.02 42.18 C 338.48 42.61 338.73 39.60 337.20 38.50 C 335.97 39.03 333.74 39.20 333.73 40.97 C 333.07 46.53 336.42 52.54 341.59 54.78 C 344.65 61.69 348.92 68.97 356.34 71.80 C 362.50 74.37 369.82 71.94 374.26 67.22 C 379.11 62.51 380.79 55.70 382.21 49.32 C 386.96 46.54 389.26 40.37 388.29 35.08 C 387.83 32.58 384.88 33.01 383.02 33.13 C 382.06 35.66 381.62 38.35 381.70 41.06 C 381.00 41.28 379.59 41.72 378.89 41.94 C 378.58 37.43 378.18 32.93 377.93 28.42 C 373.57 26.47 373.09 21.21 373.59 17.04 C 364.51 19.65 354.69 21.28 345.39 19.00 M 307.73 42.83 C 304.24 46.99 302.92 52.43 299.96 56.88 C 287.98 67.55 276.08 78.34 264.42 89.37 C 259.42 94.37 254.04 99.04 249.59 104.56 C 246.58 108.07 248.76 112.83 250.20 116.52 C 252.22 120.87 255.27 126.59 260.94 126.00 C 269.34 125.63 277.75 125.10 286.10 124.06 C 284.55 116.36 283.01 108.66 281.57 100.93 C 290.67 89.94 298.90 78.21 307.93 67.17 C 312.94 67.17 318.16 68.08 322.99 66.25 C 326.03 64.96 329.58 64.88 332.24 62.74 C 326.93 69.76 317.01 70.38 308.95 69.48 C 301.36 79.12 294.05 88.98 286.41 98.58 C 302.15 91.58 317.67 84.08 333.69 77.72 C 336.66 76.48 339.87 76.09 343.06 75.79 C 343.11 71.85 343.62 67.93 343.54 64.00 C 342.73 62.01 341.69 60.12 340.72 58.21 C 340.13 57.13 339.57 55.48 337.99 55.79 C 335.22 56.45 334.73 59.61 333.12 61.54 C 334.77 57.10 331.44 53.11 328.60 50.09 C 327.06 54.04 326.60 58.28 325.36 62.30 C 324.16 63.35 322.61 63.86 321.19 64.53 C 319.73 56.73 318.27 48.92 316.91 41.11 C 319.52 39.87 322.11 38.57 324.71 37.29 C 324.55 36.99 324.23 36.39 324.07 36.09 C 320.17 38.20 317.16 34.92 315.07 32.03 C 311.61 34.89 310.69 39.55 307.73 42.83 M 345.84 66.92 C 345.80 70.17 345.38 73.40 345.37 76.64 C 348.94 81.39 354.97 84.58 360.99 84.23 C 367.44 84.10 373.18 80.37 377.79 76.13 C 377.76 73.07 377.75 70.01 377.83 66.95 C 374.07 71.75 368.29 75.47 361.99 75.04 C 355.57 75.62 349.73 71.72 345.84 66.92 M 333.49 80.26 C 316.81 87.01 300.60 94.84 284.15 102.12 C 286.47 114.54 289.01 126.91 291.42 139.31 C 299.35 138.66 307.21 136.56 315.16 136.65 C 315.31 179.38 315.20 222.11 315.21 264.84 C 349.92 261.84 384.69 259.35 419.41 256.41 C 417.25 224.16 414.61 191.95 412.25 159.72 C 423.40 154.69 434.82 150.26 446.06 145.43 C 441.16 132.35 436.14 119.30 430.59 106.48 C 429.06 103.14 427.81 99.14 424.10 97.63 C 409.86 89.98 395.13 83.08 379.80 77.91 C 375.20 81.11 370.73 84.97 365.01 86.06 C 356.84 88.28 348.36 84.12 343.12 77.92 C 339.85 78.43 336.54 78.93 333.49 80.26 M 414.67 161.18 C 415.86 177.50 417.06 193.83 418.36 210.15 C 420.53 219.26 424.54 227.82 427.11 236.82 C 431.38 248.17 436.70 259.25 439.27 271.16 C 441.20 278.08 432.44 281.35 432.03 287.89 C 433.21 288.13 434.39 288.37 435.58 288.61 C 435.64 291.23 435.49 293.86 435.50 296.49 C 437.79 295.89 440.05 296.41 442.17 297.32 C 444.00 295.23 446.56 294.21 449.18 295.69 C 449.99 295.03 450.85 294.43 451.75 293.89 C 453.81 293.28 455.72 295.29 457.76 294.76 C 458.25 293.48 457.84 292.13 457.53 290.87 C 454.70 280.35 452.22 269.73 449.60 259.15 C 448.56 256.51 448.36 253.69 447.93 250.92 C 444.31 233.28 440.81 215.61 437.04 198.00 C 433.83 183.77 431.81 169.32 429.33 154.96 C 424.43 157.00 419.47 158.91 414.67 161.18 M 419.22 220.82 C 419.97 232.56 420.84 244.28 421.84 256.00 C 421.84 258.00 420.78 259.88 421.10 261.92 C 422.22 277.29 423.26 292.68 424.37 308.06 C 424.60 311.14 424.48 314.24 424.34 317.33 C 426.55 308.36 428.47 299.22 432.22 290.74 C 430.50 289.72 429.52 287.93 430.09 285.91 C 431.32 281.65 434.52 278.36 437.25 274.99 C 437.04 270.03 434.66 265.58 433.25 260.92 C 428.50 247.58 423.98 234.16 419.22 220.82 M 408.59 260.53 C 408.47 264.98 409.50 269.44 410.16 273.85 C 411.09 279.55 414.92 284.99 420.64 286.63 C 420.74 286.23 420.93 285.43 421.03 285.03 C 418.02 283.38 414.94 281.43 413.55 278.13 C 411.04 272.42 411.26 266.02 410.06 259.99 L 408.59 260.53 M 329.33 266.00 C 328.16 271.22 327.89 276.70 325.58 281.61 C 323.64 286.46 319.53 289.99 314.72 291.84 L 314.29 293.30 C 318.66 293.12 322.27 290.10 324.79 286.76 C 328.94 281.04 330.12 273.84 330.88 266.99 C 330.49 266.74 329.72 266.25 329.33 266.00 M 365.24 266.23 C 364.76 268.13 364.96 270.10 365.07 272.04 C 365.76 282.41 365.64 292.81 365.02 303.18 C 371.41 299.65 370.54 291.39 370.91 285.20 C 370.77 278.57 372.16 271.84 370.99 265.29 C 370.70 265.61 370.13 266.25 369.84 266.57 C 369.03 275.37 369.28 284.27 368.58 293.09 C 368.42 295.08 367.43 297.02 367.97 299.04 L 366.99 299.01 C 368.10 288.35 367.30 277.60 366.70 266.93 C 366.33 266.76 365.61 266.41 365.24 266.23 M 452.47 296.07 C 450.80 298.24 448.27 298.31 445.94 297.14 C 444.73 298.30 443.41 300.49 441.41 299.54 C 439.05 298.58 436.50 298.69 434.01 298.68 C 433.58 307.43 433.45 316.20 433.46 324.96 C 442.38 323.16 451.29 321.29 460.25 319.65 C 460.04 312.10 459.16 304.52 457.24 297.22 C 455.64 296.85 454.06 296.44 452.47 296.07 M 463.07 300.74 C 463.82 306.68 464.15 312.66 464.78 318.62 C 466.25 318.32 467.72 318.02 469.21 317.72 C 467.40 311.98 465.55 306.24 463.07 300.74 M 430.67 311.88 C 429.85 316.67 429.01 321.47 428.02 326.23 C 428.45 326.09 429.32 325.81 429.76 325.67 C 430.23 321.09 430.34 316.47 430.67 311.88 M 421.46 334.47 C 424.26 358.50 426.66 382.58 429.55 406.59 C 429.94 406.86 430.71 407.41 431.09 407.68 C 431.38 402.40 430.19 397.20 429.78 391.95 C 428.24 379.28 427.24 366.53 425.33 353.91 C 425.78 355.29 426.24 356.68 426.55 358.11 C 431.15 379.94 435.81 401.75 440.44 423.57 L 441.56 423.04 C 441.31 424.63 441.20 426.32 440.26 427.70 C 437.95 427.06 435.63 426.30 433.22 426.24 C 430.54 427.30 428.09 428.85 425.50 430.12 C 423.73 398.38 422.01 366.64 420.45 334.89 C 417.77 334.74 415.09 334.60 412.42 334.43 C 408.97 365.95 405.63 397.49 401.98 428.99 C 426.88 430.91 451.78 432.79 476.68 434.71 C 476.53 429.87 476.51 425.02 476.44 420.18 C 464.75 422.76 453.05 425.32 441.38 427.95 C 441.62 426.07 441.82 424.19 442.12 422.32 C 435.79 392.72 429.63 363.07 423.20 333.49 C 422.77 333.73 421.90 334.22 421.46 334.47 M 305.85 377.62 L 305.12 379.07 C 317.69 379.64 330.31 379.09 342.86 378.06 L 342.51 376.35 C 330.31 377.01 318.08 377.50 305.85 377.62 M 371.64 376.99 C 371.82 377.42 372.17 378.28 372.35 378.71 C 382.89 379.60 393.61 379.47 404.11 378.22 C 404.41 377.84 405.01 377.08 405.30 376.71 C 394.10 377.04 382.87 377.63 371.64 376.99 M 310.17 383.26 C 307.42 404.48 303.41 425.59 302.55 447.01 C 300.74 472.46 300.17 497.99 298.94 523.49 C 302.86 523.48 306.78 523.56 310.70 523.39 C 315.67 498.17 321.00 473.02 326.29 447.87 C 328.58 436.92 331.50 426.11 333.58 415.12 C 335.51 404.53 337.22 393.90 338.71 383.24 C 329.20 383.27 319.68 383.23 310.17 383.26 M 379.00 383.25 C 374.96 429.99 371.22 476.76 366.93 523.48 C 370.84 523.48 374.75 523.55 378.66 523.39 C 386.17 492.71 393.99 462.10 401.65 431.46 C 401.26 431.27 400.47 430.88 400.08 430.69 C 399.57 426.08 400.83 421.49 401.11 416.89 C 402.40 405.68 403.46 394.43 404.87 383.23 C 396.24 383.27 387.62 383.24 379.00 383.25 Z"></path> <path fill="#030303" opacity="1.00" d=" M 124.20 36.27 C 125.82 34.22 128.73 35.24 130.96 34.96 C 133.64 37.25 132.59 40.91 132.75 44.00 C 144.58 44.00 156.41 44.00 168.25 43.99 C 168.25 41.76 168.11 39.50 168.37 37.28 C 169.37 34.24 173.31 34.73 175.75 35.34 C 178.46 37.13 177.25 41.00 177.47 43.74 C 180.44 43.89 183.94 45.51 183.97 48.93 C 184.05 64.95 183.97 80.98 184.01 97.00 C 184.48 100.35 181.40 103.47 178.05 103.01 C 159.67 103.00 141.30 103.00 122.92 103.01 C 119.60 103.45 116.54 100.39 116.99 97.07 C 117.03 81.02 116.95 64.96 117.03 48.91 C 117.08 45.53 120.53 43.81 123.52 43.76 C 123.62 41.28 123.01 38.58 124.20 36.27 M 126.05 37.64 C 125.96 41.87 126.04 46.10 125.94 50.33 C 127.30 50.55 128.67 50.73 130.05 50.90 C 130.40 46.45 130.25 41.98 130.18 37.52 C 128.80 37.56 127.43 37.59 126.05 37.64 M 170.78 37.58 C 170.76 41.99 170.63 46.42 170.91 50.83 C 172.27 50.45 175.29 51.49 174.97 49.11 C 175.11 45.28 174.97 41.44 174.94 37.60 C 173.55 37.59 172.17 37.58 170.78 37.58 M 119.49 49.05 C 118.96 53.34 119.37 57.68 119.25 61.99 C 140.08 62.01 160.92 62.01 181.75 61.99 C 181.63 57.69 182.03 53.37 181.52 49.09 C 181.37 47.15 179.14 46.70 177.64 46.23 C 177.41 48.06 177.71 50.05 176.88 51.76 C 175.28 53.89 172.26 53.44 170.00 52.92 C 167.67 51.70 168.38 48.64 168.18 46.50 C 156.39 46.50 144.60 46.50 132.81 46.51 C 132.66 48.12 132.98 49.84 132.40 51.39 C 131.10 54.00 127.55 53.43 125.22 52.87 C 123.02 51.39 123.65 48.45 123.35 46.22 C 121.87 46.71 119.66 47.14 119.49 49.05 M 119.23 93.00 C 119.28 94.96 119.08 97.00 119.78 98.87 C 120.79 100.88 123.14 100.46 125.00 100.53 C 142.97 100.40 160.95 100.63 178.92 100.42 C 181.61 100.32 181.79 97.02 181.76 94.98 C 181.65 84.79 181.94 74.59 181.60 64.40 C 160.83 64.62 140.07 64.48 119.30 64.47 C 119.17 73.98 119.31 83.49 119.23 93.00 Z"></path> <path fill="#030303" opacity="1.00" d=" M 444.66 37.02 C 445.34 35.14 447.59 35.30 449.18 35.45 C 449.56 35.82 450.30 36.55 450.67 36.92 C 450.55 38.30 451.00 39.90 450.00 41.06 C 448.72 41.94 447.10 41.59 445.65 41.68 C 444.79 40.28 443.71 38.68 444.66 37.02 Z"></path> <path fill="#030303" opacity="1.00" d=" M 460.81 35.57 C 462.25 35.44 463.71 35.44 465.16 35.58 C 466.11 37.10 467.09 39.06 465.73 40.69 C 464.58 42.30 462.42 41.49 460.79 41.51 C 459.34 39.68 459.53 37.42 460.81 35.57 Z"></path> <path fill="#030303" opacity="1.00" d=" M 476.09 40.93 C 474.60 39.43 474.98 36.25 477.11 35.53 C 478.73 34.72 480.37 35.81 481.59 36.83 C 481.60 37.62 481.61 39.21 481.62 40.01 C 481.09 40.56 480.58 41.11 480.07 41.67 C 478.77 41.47 477.02 42.14 476.09 40.93 Z"></path> <path fill="#030303" opacity="1.00" d=" M 137.03 49.84 C 145.98 48.97 154.98 49.79 163.95 49.84 C 164.04 52.85 164.03 55.86 163.88 58.87 C 154.96 59.07 146.02 59.11 137.10 58.85 C 136.98 55.85 136.97 52.84 137.03 49.84 M 139.44 52.32 C 139.46 53.36 139.50 55.46 139.53 56.51 C 146.84 56.49 154.15 56.50 161.46 56.50 C 161.50 55.47 161.57 53.41 161.61 52.37 C 154.22 52.14 146.83 52.24 139.44 52.32 Z"></path> <path fill="#030303" opacity="1.00" d=" M 444.38 52.97 C 444.77 52.55 445.56 51.71 445.96 51.29 C 447.31 51.34 448.88 51.06 450.01 52.02 C 451.64 53.94 450.60 57.66 447.83 57.67 C 445.35 58.00 443.88 55.11 444.38 52.97 Z"></path> <path fill="#030303" opacity="1.00" d=" M 460.83 51.50 C 462.26 51.36 463.71 51.33 465.15 51.42 C 465.81 52.78 467.30 54.59 465.91 56.03 C 464.99 58.06 462.63 57.62 460.87 57.33 C 459.54 55.53 459.34 53.28 460.83 51.50 Z"></path> <path fill="#030303" opacity="1.00" d=" M 476.05 52.11 C 476.94 50.84 478.73 51.45 480.04 51.33 C 480.58 51.90 481.14 52.45 481.71 52.99 C 481.92 54.97 481.17 57.46 478.86 57.66 C 475.92 58.24 474.00 54.13 476.05 52.11 Z"></path> <path fill="#030303" opacity="1.00" d=" M 444.75 67.87 C 445.88 67.43 447.02 66.98 448.16 66.52 C 451.35 67.61 451.88 72.97 448.03 73.49 C 444.87 74.00 443.61 70.32 444.75 67.87 Z"></path> <path fill="#030303" opacity="1.00" d=" M 460.65 67.63 C 461.26 67.36 462.47 66.81 463.07 66.54 C 464.48 67.33 466.52 67.95 466.41 69.96 C 466.94 72.91 462.36 74.99 460.58 72.42 C 458.78 71.23 459.89 69.09 460.65 67.63 Z"></path> <path fill="#030303" opacity="1.00" d=" M 477.18 73.26 C 474.64 72.34 474.55 68.24 477.01 67.19 C 478.34 66.03 479.96 67.56 481.34 67.87 C 481.53 69.29 481.59 70.72 481.53 72.15 C 480.19 72.81 478.76 74.15 477.18 73.26 Z"></path> <path fill="#030303" opacity="1.00" d=" M 123.71 67.82 C 126.72 67.69 129.75 67.67 132.75 67.98 C 132.78 70.68 132.94 73.42 132.32 76.07 C 129.49 76.01 126.66 75.98 123.83 75.93 C 123.34 73.25 123.43 70.52 123.71 67.82 M 125.98 70.24 C 126.01 71.34 126.04 72.44 126.07 73.55 C 127.46 73.52 128.85 73.49 130.24 73.47 C 130.24 72.40 130.24 71.34 130.24 70.28 C 128.82 70.26 127.40 70.25 125.98 70.24 Z"></path> <path fill="#030303" opacity="1.00" d=" M 138.10 67.95 C 141.13 67.67 144.17 67.68 147.21 67.88 C 147.29 70.56 147.26 73.23 147.11 75.90 C 144.28 75.78 141.16 76.58 138.49 75.56 C 137.37 73.30 138.24 70.44 138.10 67.95 M 140.50 70.27 C 140.50 71.34 140.51 72.41 140.52 73.48 C 141.92 73.49 143.32 73.50 144.73 73.50 C 144.74 72.42 144.75 71.34 144.76 70.25 C 143.34 70.26 141.91 70.26 140.50 70.27 Z"></path> <path fill="#030303" opacity="1.00" d=" M 153.81 67.82 C 156.73 67.98 159.95 67.14 162.69 68.22 C 163.08 70.55 163.49 73.30 162.55 75.49 C 159.95 76.67 156.72 75.74 153.88 75.90 C 153.73 73.21 153.72 70.51 153.81 67.82 M 156.24 70.25 C 156.25 71.33 156.26 72.42 156.26 73.50 C 157.67 73.49 159.08 73.49 160.48 73.49 C 160.49 72.41 160.49 71.34 160.50 70.26 C 159.08 70.26 157.66 70.25 156.24 70.25 Z"></path> <path fill="#030303" opacity="1.00" d=" M 168.28 67.88 C 171.31 67.70 174.34 67.70 177.37 67.84 C 177.56 70.54 177.64 73.26 177.16 75.93 C 174.32 75.74 171.11 76.63 168.49 75.54 C 167.97 73.02 168.31 70.43 168.28 67.88 M 170.76 70.28 C 170.76 71.34 170.76 72.40 170.76 73.46 C 172.14 73.49 173.51 73.53 174.89 73.58 C 174.93 72.46 174.98 71.35 175.03 70.24 C 173.60 70.25 172.18 70.26 170.76 70.28 Z"></path> <path fill="#030303" opacity="1.00" d=" M 52.18 76.23 C 62.98 75.17 72.59 86.51 69.81 96.97 C 68.69 103.07 63.92 108.16 58.05 110.03 C 52.40 111.47 45.88 110.76 41.52 106.57 C 35.22 101.44 33.56 91.74 37.74 84.78 C 40.78 79.84 46.20 76.04 52.18 76.23 M 48.19 79.16 C 42.00 81.14 37.39 87.42 37.95 94.00 C 37.84 101.25 43.98 107.67 51.11 108.37 C 59.85 109.70 68.45 101.85 67.80 92.99 C 67.96 83.31 57.26 75.86 48.19 79.16 Z"></path> <path fill="#030303" opacity="1.00" d=" M 123.41 79.70 C 126.30 78.73 129.60 78.61 132.53 79.38 C 132.95 81.91 132.73 84.49 132.76 87.04 C 129.75 87.32 126.72 87.31 123.70 87.18 C 123.53 84.69 123.46 82.20 123.41 79.70 M 126.12 81.42 C 126.06 82.53 126.01 83.65 125.97 84.76 C 127.39 84.75 128.82 84.74 130.25 84.72 C 130.24 83.66 130.24 82.60 130.24 81.54 C 128.86 81.50 127.49 81.46 126.12 81.42 Z"></path> <path fill="#030303" opacity="1.00" d=" M 138.39 79.39 C 141.24 78.68 144.20 79.05 147.10 79.09 C 147.27 81.78 147.29 84.49 147.19 87.19 C 144.18 87.29 141.16 87.28 138.15 87.12 C 138.16 84.56 137.51 81.84 138.39 79.39 M 140.52 81.52 C 140.51 82.59 140.50 83.66 140.50 84.74 C 141.92 84.74 143.34 84.74 144.76 84.75 C 144.75 83.66 144.74 82.58 144.73 81.50 C 143.33 81.50 141.92 81.51 140.52 81.52 Z"></path> <path fill="#030303" opacity="1.00" d=" M 153.91 79.19 C 156.75 79.23 159.87 78.39 162.55 79.45 C 163.50 81.71 163.05 84.44 162.71 86.83 C 159.88 87.77 156.75 87.07 153.81 87.18 C 153.70 84.51 153.73 81.85 153.91 79.19 M 156.26 81.50 C 156.25 82.58 156.25 83.67 156.24 84.75 C 157.66 84.74 159.08 84.74 160.50 84.73 C 160.49 83.66 160.49 82.59 160.48 81.51 C 159.07 81.51 157.67 81.50 156.26 81.50 Z"></path> <path fill="#030303" opacity="1.00" d=" M 168.28 79.32 C 171.23 78.95 174.20 78.93 177.17 79.07 C 177.66 81.75 177.57 84.48 177.29 87.18 C 174.28 87.30 171.26 87.30 168.26 87.09 C 168.24 84.50 168.25 81.91 168.28 79.32 M 170.76 81.54 C 170.76 82.60 170.76 83.66 170.76 84.73 C 172.18 84.74 173.60 84.75 175.03 84.76 C 174.99 83.65 174.94 82.54 174.90 81.43 C 173.52 81.47 172.14 81.51 170.76 81.54 Z"></path> <path fill="#030303" opacity="1.00" d=" M 157.30 95.41 C 158.80 93.61 160.20 91.72 161.86 90.07 C 162.33 90.30 163.26 90.77 163.72 91.00 C 161.69 93.73 159.58 96.40 157.17 98.81 C 155.78 97.37 154.12 96.08 153.22 94.26 C 154.65 92.55 155.98 94.71 157.30 95.41 Z"></path> <path fill="#030303" opacity="1.00" d=" M 174.80 90.63 C 175.47 89.56 176.38 90.98 177.05 91.31 C 174.98 93.77 172.94 96.26 170.91 98.75 C 169.30 97.29 164.71 95.24 167.98 93.08 C 168.83 93.93 169.67 94.79 170.52 95.64 C 171.92 93.94 173.24 92.19 174.80 90.63 Z"></path> <path fill="#030303" opacity="1.00" d=" M 123.62 90.57 C 126.68 90.44 129.75 90.38 132.79 90.76 C 132.75 93.26 132.74 95.76 132.78 98.27 C 129.76 98.57 126.71 98.56 123.67 98.48 C 123.46 95.85 123.45 93.21 123.62 90.57 M 126.00 93.00 C 126.00 93.75 126.00 95.25 126.00 96.00 C 127.41 95.99 128.82 95.99 130.24 95.99 C 130.23 94.99 130.23 94.00 130.23 93.01 C 128.82 93.00 127.41 93.00 126.00 93.00 Z"></path> <path fill="#030303" opacity="1.00" d=" M 138.04 90.63 C 141.09 90.46 144.15 90.46 147.20 90.58 C 147.27 93.20 147.26 95.82 147.18 98.44 C 144.15 98.54 141.13 98.53 138.10 98.40 C 138.01 95.81 137.99 93.22 138.04 90.63 M 140.44 93.09 C 140.44 93.80 140.44 95.20 140.44 95.91 C 141.88 95.95 143.32 95.98 144.76 96.01 C 144.76 95.25 144.76 93.74 144.75 92.98 C 143.31 93.01 141.88 93.05 140.44 93.09 Z"></path> <path fill="#030303" opacity="1.00" d=" M 421.36 109.00 C 421.84 108.96 422.79 108.88 423.27 108.84 C 421.69 112.61 419.53 116.10 418.10 119.93 C 413.91 130.28 412.54 141.60 413.27 152.69 C 412.83 152.70 411.93 152.72 411.48 152.73 C 410.11 137.61 413.49 122.01 421.36 109.00 Z"></path> <path fill="#030303" opacity="1.00" d=" M 147.03 119.00 C 147.52 119.00 148.48 119.00 148.97 119.00 C 149.04 133.01 148.97 147.03 149.01 161.04 C 176.32 161.05 203.64 161.05 230.96 161.04 C 234.15 161.09 237.37 160.81 240.55 161.23 C 242.07 161.93 241.94 163.61 241.97 165.01 C 241.94 201.00 241.97 236.99 241.95 272.97 C 241.48 272.96 240.53 272.95 240.06 272.95 C 240.13 236.27 240.06 199.59 240.09 162.91 C 209.69 162.91 179.30 162.92 148.90 162.91 C 148.91 170.32 148.91 177.73 148.90 185.14 C 171.96 185.14 195.02 185.12 218.08 185.15 C 219.69 184.83 221.17 186.31 220.86 187.93 C 220.88 216.28 220.86 244.64 220.86 273.00 C 220.42 273.00 219.54 273.00 219.10 273.00 C 219.10 244.30 219.09 215.60 219.10 186.90 C 195.70 186.91 172.30 186.91 148.90 186.90 C 148.92 200.50 148.88 214.10 148.92 227.70 C 153.92 228.52 157.18 234.67 153.85 238.89 C 150.73 243.71 142.20 241.83 141.59 236.06 C 140.65 232.18 143.68 229.00 147.06 227.77 C 147.14 214.14 147.07 200.52 147.10 186.90 C 122.37 186.91 97.63 186.91 72.90 186.90 C 72.90 239.16 72.92 291.41 72.89 343.67 C 79.12 342.45 85.91 343.10 91.22 346.82 C 95.21 349.65 99.76 351.83 104.77 351.72 C 104.84 352.30 104.99 353.45 105.06 354.03 C 102.39 353.85 99.61 353.86 97.12 352.76 C 92.80 350.93 89.23 347.63 84.72 346.22 C 80.96 344.96 76.95 345.49 73.10 345.87 C 72.71 351.68 73.00 357.50 72.88 363.32 C 77.20 362.58 81.77 362.34 85.96 363.87 C 89.54 364.99 92.42 367.47 95.67 369.25 C 98.44 370.80 101.67 371.09 104.76 371.54 C 104.84 372.14 104.99 373.34 105.07 373.94 C 102.30 373.59 99.46 373.43 96.85 372.34 C 92.44 370.62 88.93 367.09 84.32 365.83 C 80.59 364.74 76.66 365.21 72.89 365.76 C 72.92 384.54 72.90 403.32 72.90 422.10 C 121.63 422.09 170.37 422.09 219.10 422.10 C 219.09 392.73 219.10 363.37 219.10 334.00 C 219.54 334.00 220.42 334.00 220.86 334.00 C 220.86 363.03 220.88 392.06 220.85 421.09 C 221.18 422.74 219.63 424.17 218.01 423.86 C 169.98 423.87 121.95 423.88 73.92 423.85 C 72.30 424.17 70.84 422.69 71.15 421.08 C 71.12 402.85 71.14 384.61 71.14 366.38 C 64.98 370.17 58.53 374.53 50.90 373.76 C 50.93 416.20 50.91 458.65 50.91 501.09 C 113.97 501.08 177.03 501.08 240.09 501.09 C 240.06 445.41 240.13 389.73 240.06 334.05 C 240.53 334.05 241.48 334.04 241.95 334.03 C 241.94 389.36 241.99 444.70 241.93 500.03 C 242.22 501.70 240.75 503.21 239.07 502.93 C 177.05 503.00 115.02 502.92 53.00 502.97 C 51.11 503.29 48.68 502.37 49.07 500.07 C 49.02 457.97 49.03 415.87 49.07 373.78 C 44.85 372.89 40.95 370.99 37.46 368.48 C 32.69 365.05 26.39 364.48 20.81 365.86 C 16.66 366.94 13.41 369.89 9.64 371.77 C 6.64 373.27 3.24 373.48 0.00 374.13 L 0.00 371.52 C 4.37 371.13 8.75 370.04 12.31 367.36 C 17.36 363.62 23.80 361.90 30.02 362.96 C 37.21 363.64 41.98 370.04 49.03 371.22 C 49.06 365.49 49.05 359.77 49.03 354.04 C 44.71 353.25 40.90 351.09 37.32 348.64 C 30.26 343.81 20.41 344.60 13.66 349.61 C 9.70 352.56 4.96 354.20 0.00 354.17 L 0.00 351.66 C 4.81 351.78 9.27 349.90 13.12 347.17 C 20.48 341.97 31.03 341.46 38.55 346.61 C 41.76 348.78 45.18 350.72 49.02 351.52 C 49.07 289.32 49.04 227.13 49.03 164.93 C 49.04 163.56 48.97 161.96 50.41 161.24 C 53.59 160.82 56.82 161.08 60.02 161.04 C 89.01 161.05 118.00 161.05 146.99 161.04 C 147.03 147.03 146.96 133.02 147.03 119.00 M 50.91 162.91 C 50.90 225.80 50.95 288.69 50.88 351.59 C 53.24 351.59 55.65 351.73 57.94 351.06 C 62.83 349.83 66.43 345.95 71.14 344.28 C 71.13 292.15 71.13 240.02 71.14 187.88 C 70.79 186.26 72.35 184.79 73.95 185.14 C 98.33 185.13 122.72 185.13 147.11 185.14 C 147.09 177.73 147.09 170.32 147.10 162.90 C 115.04 162.92 82.97 162.92 50.91 162.91 M 60.46 352.71 C 57.47 354.06 54.11 353.91 50.91 353.93 C 50.91 359.74 50.94 365.55 50.89 371.36 C 55.21 371.51 59.72 370.78 63.37 368.32 C 65.82 366.62 68.36 365.02 71.12 363.87 C 71.17 358.10 71.09 352.34 71.17 346.58 C 67.52 348.48 64.23 351.03 60.46 352.71 Z"></path> <path fill="#030303" opacity="1.00" d=" M 332.66 149.28 C 334.64 149.03 334.83 151.18 335.58 152.39 C 347.71 180.09 368.59 203.88 394.47 219.53 C 396.98 221.04 399.57 222.44 402.02 224.06 C 401.52 224.28 400.52 224.72 400.01 224.94 C 372.28 210.10 349.59 186.16 335.93 157.85 C 334.70 155.06 332.97 152.38 332.66 149.28 Z"></path> <path fill="#030303" opacity="1.00" d=" M 340.09 189.59 C 339.43 187.57 342.29 188.10 342.11 189.77 C 347.83 207.33 358.49 222.63 369.58 237.19 C 368.50 238.19 367.29 237.50 366.71 236.47 C 355.69 222.24 345.46 206.93 340.09 189.59 Z"></path> <path fill="#030303" opacity="1.00" d=" M 198.34 278.16 C 218.96 278.31 239.58 278.10 260.20 278.26 C 259.98 282.17 260.64 286.15 259.80 289.99 C 260.53 296.98 259.98 304.06 260.18 311.08 C 260.02 314.72 260.60 318.41 259.81 322.00 C 259.95 322.90 260.22 324.71 260.36 325.62 C 239.68 325.82 219.00 325.59 198.33 325.73 C 198.39 309.87 198.37 294.02 198.34 278.16 M 213.14 295.26 C 210.50 297.58 207.36 299.38 205.05 302.04 C 208.44 304.98 212.12 307.56 215.58 310.42 C 217.33 311.51 221.04 316.21 221.78 312.05 C 217.53 308.64 213.25 305.27 208.95 301.95 C 213.24 298.59 217.44 295.13 221.82 291.88 C 221.64 291.26 221.30 290.04 221.13 289.42 C 217.99 290.62 215.86 293.39 213.14 295.26 M 236.43 291.10 C 239.95 295.37 245.22 298.14 249.31 301.97 C 245.05 305.35 240.73 308.65 236.52 312.08 C 236.10 313.87 238.25 314.33 239.24 313.25 C 243.65 309.58 248.27 306.17 252.71 302.54 C 252.73 302.24 252.79 301.65 252.81 301.35 C 247.87 297.26 242.67 293.48 237.87 289.22 C 237.51 289.69 236.79 290.63 236.43 291.10 Z"></path> <path fill="#030303" opacity="1.00" d=" M 140.51 444.69 C 147.20 442.62 155.19 445.06 158.78 451.27 C 162.70 457.60 161.42 466.80 155.51 471.50 C 148.69 477.40 136.81 475.69 132.25 467.77 C 127.00 459.69 131.14 447.46 140.51 444.69 Z"></path> </g> <g id="#ffffffff"> </g> </svg> 