<?xml version="1.0" encoding="UTF-8"?> <svg xmlns="http://www.w3.org/2000/svg" width="500pt" height="553pt" viewBox="0 0 500 553"> <g id="#000000ff"> <path fill="#000000" opacity="1.00" d=" M 365.75 0.00 L 382.00 0.00 C 382.00 5.16 382.00 10.33 382.00 15.49 C 390.32 15.50 398.65 15.51 406.97 15.48 C 407.03 31.88 407.00 48.28 406.98 64.68 C 415.29 60.28 426.36 62.14 432.35 69.52 C 438.22 76.33 438.72 87.19 433.39 94.45 C 429.35 100.35 422.05 103.77 414.93 103.00 C 407.95 102.62 401.85 98.02 398.50 92.05 C 379.34 91.86 360.18 91.64 341.01 91.76 C 341.00 66.33 340.98 40.91 341.02 15.49 C 349.24 15.54 357.45 15.42 365.66 15.57 C 365.81 10.38 365.74 5.19 365.75 0.00 M 368.51 2.51 C 368.49 8.25 368.51 13.99 368.50 19.74 C 372.16 19.76 375.83 19.76 379.50 19.74 C 379.49 13.99 379.50 8.25 379.49 2.51 C 375.83 2.50 372.17 2.50 368.51 2.51 M 343.58 18.18 C 343.41 41.87 343.54 65.56 343.51 89.24 C 361.49 89.26 379.46 89.24 397.44 89.25 C 396.49 84.80 396.05 80.06 397.74 75.72 C 398.96 71.92 401.82 69.07 404.42 66.18 C 404.68 50.26 404.29 34.32 404.62 18.39 C 397.08 18.08 389.53 18.33 381.99 18.26 C 382.00 18.63 382.01 19.38 382.02 19.75 C 383.50 19.75 384.98 19.74 386.47 19.74 C 386.48 20.37 386.49 21.62 386.49 22.25 C 378.16 22.25 369.83 22.26 361.50 22.25 C 361.50 21.62 361.50 20.38 361.50 19.76 C 363.00 19.75 364.50 19.75 366.01 19.74 C 366.00 19.37 365.99 18.62 365.98 18.25 C 358.51 18.22 351.04 18.33 343.58 18.18 M 424.96 75.88 C 420.93 79.92 416.91 83.97 412.86 88.00 C 411.13 86.27 409.40 84.53 407.67 82.80 C 407.07 83.31 406.48 83.82 405.89 84.33 C 408.29 86.65 410.64 89.01 413.00 91.37 C 417.96 86.39 422.99 81.47 427.89 76.42 C 426.97 76.17 425.73 74.43 424.96 75.88 Z"></path> <path fill="#000000" opacity="1.00" d=" M 188.83 26.99 C 192.69 11.34 209.64 1.93 225.06 3.12 C 234.96 4.04 245.41 7.12 252.17 14.83 C 257.51 20.86 259.55 29.11 259.51 37.02 C 259.77 52.16 260.87 67.31 263.37 82.25 C 257.81 82.34 252.25 82.10 246.70 81.98 C 255.46 85.98 264.49 89.43 272.92 94.13 C 274.89 97.43 277.62 100.21 279.36 103.66 C 281.69 108.23 283.49 113.06 284.96 117.98 C 287.69 128.37 295.68 136.07 301.34 144.89 C 325.22 145.15 349.11 144.94 373.00 145.00 C 373.03 130.66 372.96 116.33 373.03 102.00 C 373.52 102.00 374.48 102.00 374.97 102.00 C 375.02 116.68 375.00 131.35 374.98 146.03 L 374.98 146.99 C 372.01 146.98 369.05 146.98 366.09 147.09 C 345.06 146.90 324.02 147.02 302.99 147.02 C 306.52 152.30 310.38 157.51 312.42 163.59 C 314.27 168.58 310.47 173.16 309.90 178.01 C 308.94 183.58 311.95 188.69 312.70 194.07 C 312.84 198.95 307.92 201.75 303.85 202.99 C 299.50 204.44 294.90 204.71 290.36 204.84 C 291.42 215.88 292.57 226.92 293.19 238.00 C 293.50 243.01 292.33 247.93 291.30 252.79 C 290.22 257.72 291.18 262.76 291.33 267.74 C 289.67 267.73 288.02 267.74 286.37 267.74 C 287.92 274.94 289.53 282.13 290.57 289.43 C 285.73 290.16 280.84 289.78 275.97 289.85 C 270.66 322.60 265.44 355.36 260.11 388.10 C 259.18 394.10 261.01 400.04 261.53 405.99 C 262.24 414.99 263.98 424.13 262.14 433.11 C 255.49 466.86 247.98 500.42 240.73 534.04 C 239.58 537.71 237.64 541.13 237.28 545.04 C 240.98 547.68 244.58 550.47 248.36 553.00 L 226.25 553.00 C 226.24 546.99 226.64 540.94 225.20 535.05 C 224.89 509.38 224.01 483.71 224.01 458.03 C 223.67 442.69 223.23 427.35 223.13 412.00 C 223.09 388.65 222.09 365.31 222.06 341.95 C 222.15 331.89 221.55 321.85 221.65 311.79 C 208.66 385.81 195.41 459.77 182.40 533.78 C 181.95 536.76 180.01 539.21 179.37 542.14 C 178.48 545.76 177.79 549.43 176.68 553.00 L 154.75 553.00 C 157.93 550.77 161.12 548.55 164.22 546.20 C 166.65 544.60 166.74 541.40 167.51 538.87 C 166.67 533.63 167.10 528.31 167.04 523.03 C 167.06 445.31 167.21 367.60 167.29 289.88 C 164.24 289.87 161.19 289.83 158.15 289.71 C 158.63 282.28 160.55 275.04 161.90 267.74 C 157.37 267.74 152.85 267.74 148.32 267.78 C 148.50 263.87 148.82 259.97 149.03 256.06 C 149.49 252.38 147.28 249.20 146.24 245.83 C 145.17 243.00 144.99 239.93 145.25 236.95 C 146.02 226.24 147.06 215.55 148.28 204.89 C 141.65 204.39 134.11 203.86 129.12 198.91 C 125.29 194.83 128.81 189.40 129.67 184.87 C 131.37 179.59 129.19 174.35 127.51 169.39 C 126.08 165.44 128.30 161.48 130.02 158.01 C 136.10 147.05 144.48 137.62 151.18 127.06 C 154.36 122.23 155.22 116.41 157.28 111.11 C 159.27 105.88 161.45 100.49 165.47 96.46 C 170.19 91.96 176.45 89.71 182.43 87.44 C 187.70 85.53 192.79 83.16 198.01 81.11 C 192.11 80.88 186.20 80.63 180.29 80.78 C 182.37 62.75 184.48 44.64 188.83 26.99 M 204.39 62.71 C 206.41 66.50 208.99 69.97 212.20 72.83 C 213.82 73.97 213.08 76.10 213.30 77.77 C 206.92 80.15 200.47 82.37 194.24 85.13 C 193.78 96.30 193.85 107.49 193.47 118.66 C 211.82 118.69 230.17 118.68 248.52 118.67 C 248.09 107.49 248.47 96.29 247.95 85.12 C 243.76 83.30 239.55 81.52 235.30 79.83 C 235.21 77.30 235.04 74.78 234.96 72.25 C 238.58 68.41 241.37 63.87 243.37 59.01 C 238.67 54.76 235.74 48.84 233.40 43.04 C 225.92 52.25 215.64 59.03 204.39 62.71 M 169.01 120.94 C 168.19 137.76 167.06 154.55 165.89 171.35 C 170.97 170.69 176.02 169.57 181.15 169.44 C 183.42 171.13 183.44 174.70 183.73 177.37 C 181.76 177.54 179.79 177.69 177.82 177.82 C 177.93 178.53 178.16 179.94 178.27 180.65 C 205.17 180.42 232.08 180.82 258.97 180.45 C 258.17 178.98 257.32 177.55 256.48 176.11 C 256.61 175.50 256.87 174.26 257.00 173.65 C 255.00 173.49 253.00 173.30 251.01 173.11 C 251.16 170.49 251.94 167.99 252.69 165.50 C 256.30 164.95 259.88 165.94 263.45 166.33 C 263.14 159.91 262.99 153.49 262.53 147.08 C 253.69 146.87 244.85 147.08 236.01 146.97 C 236.01 146.48 236.02 145.51 236.02 145.03 C 244.79 144.97 253.56 145.02 262.34 145.00 C 262.20 136.96 261.50 128.96 261.12 120.94 C 230.42 120.94 199.71 120.94 169.01 120.94 M 280.68 165.06 C 281.84 167.14 282.89 164.34 283.37 163.42 C 284.38 160.73 287.24 159.50 288.53 157.01 C 284.29 156.92 281.71 161.49 280.68 165.06 M 142.46 163.24 C 144.42 165.81 146.55 168.27 148.25 171.04 C 149.01 172.14 149.75 173.66 151.45 173.34 C 150.09 169.00 146.81 165.66 143.95 162.26 C 143.58 162.50 142.83 162.99 142.46 163.24 M 270.12 169.67 C 264.83 169.17 259.65 167.67 254.31 167.64 C 254.13 168.49 253.77 170.19 253.59 171.05 C 255.54 171.17 257.56 171.02 259.45 171.62 C 260.06 173.08 259.15 174.54 258.82 175.96 C 259.44 176.61 260.06 177.26 260.69 177.92 C 261.06 182.06 261.54 186.22 262.72 190.22 C 268.76 190.62 274.83 189.88 280.70 188.49 C 288.28 185.81 288.72 173.67 281.29 170.51 C 279.43 167.12 277.34 163.83 274.70 160.99 C 273.01 163.75 272.65 167.58 270.12 169.67 M 153.68 174.55 C 146.38 177.59 146.28 189.05 153.39 192.34 C 159.41 194.15 165.86 194.81 172.13 194.32 C 173.24 190.29 173.79 186.11 174.17 181.95 C 174.82 181.33 175.46 180.71 176.11 180.09 C 175.70 178.77 174.85 177.47 175.13 176.04 C 177.04 175.10 179.26 175.43 181.32 175.18 C 181.00 174.04 180.69 172.89 180.38 171.75 C 174.79 171.86 169.37 173.68 163.79 173.64 C 162.65 170.78 161.42 167.96 160.14 165.16 C 157.44 167.89 155.43 171.17 153.68 174.55 M 287.56 169.61 C 287.39 172.29 289.70 174.21 290.22 176.74 C 291.51 180.41 290.77 184.28 289.92 187.95 C 292.74 188.61 292.35 184.93 292.74 183.12 C 292.98 178.37 292.10 172.11 287.56 169.61 M 143.82 176.76 C 141.71 181.29 141.98 186.93 144.91 191.05 L 145.95 189.95 C 144.75 186.14 143.50 181.86 145.46 178.06 C 145.91 176.74 147.20 175.60 146.85 174.10 C 145.04 173.63 144.50 175.53 143.82 176.76 M 192.23 182.89 C 192.14 187.27 192.81 191.66 192.05 196.01 C 191.59 219.93 190.96 243.83 190.75 267.75 C 181.89 267.76 173.04 267.72 164.18 267.78 C 162.98 274.36 161.49 280.89 160.52 287.51 C 203.02 287.50 245.52 287.51 288.03 287.51 C 286.83 280.89 285.56 274.29 283.96 267.76 C 272.73 267.74 261.49 267.75 250.26 267.75 C 249.83 239.46 249.52 211.17 249.25 182.88 C 230.24 182.88 211.23 182.88 192.23 182.89 M 276.26 191.80 C 279.00 195.99 282.79 199.51 287.12 202.01 C 288.03 202.75 288.70 201.74 289.29 201.18 C 284.88 198.64 281.23 195.10 277.92 191.28 C 277.50 191.41 276.67 191.67 276.26 191.80 M 153.90 201.60 C 152.36 202.29 149.88 201.91 149.71 204.17 C 152.58 204.45 155.48 203.57 157.67 201.68 C 158.97 200.49 160.92 198.93 159.57 197.03 C 157.76 198.64 156.30 200.84 153.90 201.60 M 152.23 254.23 C 152.40 254.60 152.74 255.33 152.91 255.70 C 163.33 256.24 173.77 257.54 184.19 257.18 L 183.31 255.81 C 176.30 254.87 169.15 255.04 162.09 254.37 C 158.81 254.33 155.46 253.38 152.23 254.23 M 254.48 255.05 L 254.09 256.73 C 262.46 256.57 270.83 255.87 279.19 256.41 C 281.33 256.57 283.48 256.51 285.61 256.22 C 285.32 255.84 284.74 255.09 284.45 254.71 C 274.49 253.98 264.42 254.14 254.48 255.05 M 169.72 289.85 C 169.62 371.91 169.38 453.97 169.11 536.02 C 172.65 536.03 176.18 536.05 179.71 535.97 C 193.42 457.32 207.75 378.78 221.29 300.10 C 221.92 300.12 223.16 300.15 223.78 300.17 C 223.87 315.44 223.89 330.72 224.38 346.00 C 224.99 366.68 224.72 387.38 225.38 408.06 C 225.83 424.71 225.86 441.36 226.06 458.01 C 226.97 483.98 226.72 509.97 227.44 535.94 C 230.94 536.06 234.45 536.04 237.95 536.03 C 245.41 501.38 253.22 466.80 260.01 432.01 C 261.92 418.33 258.46 404.64 257.41 391.03 C 262.70 357.29 268.32 323.59 273.58 289.84 C 238.96 289.87 204.34 289.84 169.72 289.85 Z"></path> <path fill="#000000" opacity="1.00" d=" M 38.61 41.50 C 48.10 21.25 75.75 12.85 95.07 23.92 C 94.64 24.31 93.77 25.10 93.34 25.50 C 85.72 22.16 77.22 20.45 68.96 22.05 C 55.36 24.30 42.42 34.09 38.92 47.80 C 36.44 56.56 38.60 65.98 35.59 74.62 C 35.25 75.89 34.36 76.34 32.91 75.99 C 36.60 64.77 33.25 52.30 38.61 41.50 Z"></path> <path fill="#000000" opacity="1.00" d=" M 96.62 27.39 C 94.85 26.62 95.91 23.87 97.66 25.33 C 114.60 35.29 121.51 56.37 119.80 75.14 C 119.25 75.02 118.17 74.77 117.62 74.64 C 117.39 68.43 117.62 62.13 116.07 56.05 C 113.66 44.43 106.66 33.80 96.62 27.39 Z"></path> <path fill="#000000" opacity="1.00" d=" M 43.14 57.71 C 44.52 42.41 57.96 27.82 73.89 28.26 C 74.14 28.76 74.62 29.77 74.86 30.27 C 71.08 30.85 67.14 30.99 63.60 32.63 C 53.69 37.06 46.82 47.02 45.39 57.70 C 44.83 57.70 43.70 57.71 43.14 57.71 Z"></path> <path fill="#000000" opacity="1.00" d=" M 76.19 28.33 C 91.11 28.03 104.90 40.00 108.29 54.25 L 106.93 55.05 C 105.22 52.60 104.53 49.62 102.97 47.09 C 98.17 38.74 89.69 32.24 80.01 30.99 C 78.46 30.60 74.89 30.96 76.19 28.33 Z"></path> <path fill="#000000" opacity="1.00" d=" M 68.44 36.57 C 77.06 34.23 86.79 36.52 93.28 42.71 C 94.32 43.41 96.32 46.21 93.88 46.36 C 90.31 43.39 86.71 40.17 82.08 38.99 C 71.77 35.68 58.99 40.84 55.21 51.31 C 54.56 52.63 54.12 55.63 51.91 54.16 C 53.18 45.67 60.35 38.85 68.44 36.57 Z"></path> <path fill="#000000" opacity="1.00" d=" M 62.32 49.25 C 67.58 41.76 79.08 41.55 85.76 47.21 C 87.02 47.88 88.43 50.13 86.00 50.27 C 82.69 48.03 79.17 45.63 74.98 45.69 C 69.42 45.28 64.07 49.08 62.35 54.32 C 59.40 62.97 62.58 72.16 61.16 80.99 C 59.82 87.58 55.40 93.32 49.86 97.00 C 49.28 97.09 48.10 97.26 47.51 97.34 C 48.07 95.17 50.01 93.97 51.55 92.55 C 56.01 88.67 59.18 82.96 59.06 76.94 C 59.35 67.75 56.61 57.34 62.32 49.25 Z"></path> <path fill="#000000" opacity="1.00" d=" M 95.27 47.53 C 95.67 47.43 96.48 47.23 96.89 47.13 C 100.35 52.04 102.67 58.03 102.96 64.06 C 99.93 64.08 100.45 60.40 99.51 58.41 C 98.82 54.51 95.81 51.38 95.27 47.53 Z"></path> <path fill="#000000" opacity="1.00" d=" M 87.65 50.61 C 89.06 50.88 90.26 51.69 90.89 53.01 C 94.60 58.90 96.19 66.07 95.34 72.99 L 94.23 73.60 L 93.16 73.09 C 93.23 68.28 93.11 63.34 91.14 58.86 C 90.13 56.03 87.72 53.74 87.65 50.61 Z"></path> <path fill="#000000" opacity="1.00" d=" M 75.95 53.71 C 75.06 51.56 77.74 51.85 78.99 52.30 C 83.24 53.85 85.30 58.40 86.49 62.45 C 89.95 77.89 85.31 94.95 74.43 106.44 C 73.60 107.93 72.51 106.34 71.99 105.60 C 82.56 94.49 87.70 78.05 84.09 63.01 C 83.13 58.72 80.35 54.87 75.95 53.71 Z"></path> <path fill="#000000" opacity="1.00" d=" M 71.21 53.02 C 72.28 52.15 76.30 51.17 75.03 53.84 C 72.88 55.07 70.31 56.28 69.88 59.04 C 68.29 67.27 72.74 75.99 69.02 83.97 C 68.55 83.94 67.60 83.88 67.13 83.85 C 67.81 79.00 68.48 74.09 67.53 69.21 C 66.83 63.79 65.84 56.46 71.21 53.02 Z"></path> <path fill="#000000" opacity="1.00" d=" M 106.93 56.03 C 107.45 56.06 108.50 56.14 109.03 56.18 C 112.03 68.21 112.09 81.12 108.96 93.14 C 108.37 93.19 107.20 93.30 106.61 93.35 C 109.60 81.10 109.18 68.36 106.93 56.03 Z"></path> <path fill="#000000" opacity="1.00" d=" M 43.04 59.83 C 43.57 59.77 44.62 59.64 45.15 59.58 C 45.93 67.76 46.86 77.34 40.98 84.03 C 40.22 85.03 37.99 87.42 37.37 84.92 C 38.96 81.84 41.78 79.40 42.61 75.94 C 43.90 70.64 42.89 65.19 43.04 59.83 Z"></path> <path fill="#000000" opacity="1.00" d=" M 74.67 61.68 C 75.23 61.74 76.35 61.86 76.91 61.92 C 80.20 69.34 79.80 77.97 77.35 85.59 C 77.05 86.92 76.16 87.48 74.67 87.25 C 75.47 82.16 77.02 77.14 76.72 71.94 C 76.59 68.43 75.44 65.08 74.67 61.68 Z"></path> <path fill="#000000" opacity="1.00" d=" M 101.32 66.11 L 101.94 65.43 C 102.37 65.56 103.24 65.81 103.67 65.93 C 104.34 78.51 102.43 91.69 96.11 102.72 C 95.71 102.36 94.92 101.63 94.52 101.27 C 99.14 90.18 102.22 78.21 101.32 66.11 Z"></path> <path fill="#000000" opacity="1.00" d=" M 93.07 75.76 C 93.59 75.76 94.65 75.75 95.18 75.75 C 95.67 87.04 90.75 98.03 84.09 106.93 C 83.75 106.49 83.08 105.61 82.74 105.18 C 86.05 99.67 89.53 94.15 91.25 87.88 C 92.54 83.97 92.59 79.82 93.07 75.76 Z"></path> <path fill="#000000" opacity="1.00" d=" M 51.13 78.02 C 52.72 75.71 53.69 79.46 52.63 80.67 C 50.99 85.23 47.83 89.32 43.73 91.92 C 40.91 92.68 42.38 89.55 43.82 88.84 C 47.43 86.12 49.49 82.10 51.13 78.02 Z"></path> <path fill="#000000" opacity="1.00" d=" M 64.19 89.93 C 65.37 88.23 65.44 85.00 68.30 85.64 C 67.14 92.89 61.00 98.01 55.09 101.64 L 54.00 101.04 L 54.00 99.96 C 57.42 96.66 61.95 94.33 64.19 89.93 Z"></path> <path fill="#000000" opacity="1.00" d=" M 73.59 89.36 L 74.03 88.54 C 74.51 88.66 75.45 88.90 75.92 89.02 C 73.74 95.78 68.49 101.82 62.11 104.79 L 61.25 103.88 C 65.45 99.12 71.41 95.69 73.59 89.36 Z"></path> <path fill="#000000" opacity="1.00" d=" M 45.62 236.38 C 62.18 236.46 78.74 236.44 95.30 236.39 C 95.22 260.72 95.30 285.06 95.26 309.40 C 79.13 309.34 63.00 309.32 46.88 309.41 C 36.80 309.91 26.71 309.34 16.63 309.78 C 16.38 318.52 16.25 327.28 16.69 336.01 C 25.12 336.34 33.55 336.08 41.97 336.10 C 43.78 336.00 45.45 336.72 47.08 337.42 C 36.26 337.88 25.42 337.46 14.59 337.64 C 14.81 327.86 14.78 318.07 14.60 308.29 C 24.92 308.28 35.25 308.23 45.57 308.32 C 45.79 284.34 45.70 260.36 45.62 236.38 M 48.23 238.76 C 48.23 261.39 48.33 284.02 48.18 306.64 C 63.04 306.66 77.91 306.63 92.77 306.66 C 92.66 284.04 92.60 261.42 92.80 238.80 C 77.94 238.73 63.09 238.80 48.23 238.76 Z"></path> <path fill="#000000" opacity="1.00" d=" M 57.60 286.31 C 65.81 286.41 74.04 286.14 82.25 286.43 C 82.25 286.98 82.27 288.08 82.27 288.63 C 74.09 288.57 65.91 288.62 57.73 288.60 L 57.60 286.31 Z"></path> <path fill="#000000" opacity="1.00" d=" M 355.76 287.76 C 363.91 287.74 372.07 287.75 380.22 287.75 C 380.23 288.31 380.25 289.43 380.26 290.00 C 372.09 290.00 363.91 290.01 355.74 289.99 C 355.75 289.43 355.75 288.31 355.76 287.76 Z"></path> <path fill="#000000" opacity="1.00" d=" M 338.08 298.47 C 358.02 298.51 377.96 298.53 397.90 298.45 C 397.93 299.03 398.00 300.18 398.04 300.75 C 378.02 300.75 357.99 300.75 337.97 300.75 C 338.00 300.18 338.05 299.04 338.08 298.47 Z"></path> <path fill="#000000" opacity="1.00" d=" M 338.05 309.23 C 358.03 309.27 378.00 309.24 397.98 309.24 C 397.99 309.74 398.00 310.74 398.01 311.24 C 378.00 311.25 357.98 311.25 337.97 311.24 C 337.99 310.74 338.03 309.73 338.05 309.23 Z"></path> <path fill="#000000" opacity="1.00" d=" M 337.97 319.76 C 357.99 319.74 378.00 319.74 398.01 319.76 C 398.00 320.26 397.98 321.26 397.98 321.76 C 378.00 321.75 358.02 321.73 338.05 321.77 C 338.03 321.26 337.99 320.26 337.97 319.76 Z"></path> <path fill="#000000" opacity="1.00" d=" M 338.01 330.24 C 358.00 330.25 377.98 330.26 397.97 330.24 C 397.98 330.80 398.01 331.93 398.02 332.49 C 378.01 332.50 358.00 332.50 337.99 332.49 C 338.00 331.93 338.01 330.80 338.01 330.24 Z"></path> <path fill="#000000" opacity="1.00" d=" M 383.26 339.23 C 384.12 339.42 384.99 339.62 385.86 339.82 C 386.45 339.56 387.64 339.03 388.23 338.77 C 388.97 339.39 389.72 340.01 390.48 340.64 C 391.13 340.68 392.42 340.77 393.07 340.82 C 393.51 341.67 393.95 342.53 394.40 343.39 C 394.95 343.66 396.03 344.19 396.57 344.46 C 396.51 345.11 396.40 346.42 396.34 347.08 C 396.72 347.60 397.47 348.66 397.85 349.19 C 397.06 350.94 396.70 352.80 396.90 354.72 C 396.42 355.09 395.45 355.82 394.96 356.18 C 396.30 361.15 397.64 366.12 398.97 371.10 C 397.06 369.98 395.19 368.81 393.34 367.61 C 392.36 369.56 391.36 371.51 390.33 373.44 C 388.90 369.07 388.53 364.31 386.26 360.27 C 384.88 364.62 383.84 369.07 382.60 373.46 C 381.53 371.58 380.56 369.64 379.66 367.68 C 377.72 368.77 375.83 369.95 373.98 371.18 C 375.21 366.43 376.59 361.72 377.71 356.95 C 376.60 355.92 376.42 354.50 376.41 353.08 C 376.09 352.57 375.46 351.56 375.14 351.06 C 375.84 349.38 376.31 347.62 376.10 345.80 C 377.35 344.72 378.34 343.41 378.89 341.84 C 380.55 341.33 382.00 340.41 383.26 339.23 M 380.97 343.86 C 379.63 345.75 378.11 347.78 378.25 350.23 C 378.18 355.70 384.57 360.13 389.61 357.77 C 391.71 357.00 392.95 355.06 394.22 353.35 C 394.40 352.10 394.60 350.85 394.82 349.61 C 394.45 348.47 394.10 347.32 393.76 346.18 C 392.98 345.24 392.21 344.30 391.47 343.35 C 388.13 341.46 384.06 341.49 380.97 343.86 M 379.48 359.50 C 378.96 361.61 378.44 363.73 377.93 365.85 C 378.57 365.40 379.84 364.50 380.48 364.06 C 380.84 364.73 381.57 366.08 381.93 366.75 C 382.62 364.52 383.21 362.25 383.42 359.92 C 382.10 359.78 380.79 359.64 379.48 359.50 M 389.53 361.11 C 390.03 362.99 390.53 364.87 391.04 366.75 C 391.42 366.08 392.17 364.73 392.54 364.06 C 393.17 364.51 394.44 365.42 395.07 365.88 C 394.50 363.66 394.01 361.41 393.25 359.25 C 391.72 358.27 390.71 360.50 389.53 361.11 Z"></path> <path fill="#000000" opacity="1.00" d=" M 338.00 341.00 C 348.00 341.00 358.00 341.00 368.00 341.00 C 368.00 341.50 368.00 342.50 368.00 343.00 C 358.00 343.00 348.00 343.00 338.00 343.00 C 338.00 342.50 338.00 341.50 338.00 341.00 Z"></path> <path fill="#000000" opacity="1.00" d=" M 383.33 345.37 C 386.47 343.10 391.40 345.13 392.09 348.92 C 393.15 352.83 388.98 356.91 385.07 355.72 C 380.34 354.87 379.18 347.76 383.33 345.37 M 385.15 347.07 C 382.59 348.03 382.48 352.21 385.08 353.20 C 386.80 354.19 389.38 352.90 389.69 350.95 C 390.56 348.51 387.37 345.84 385.15 347.07 Z"></path> <path fill="#000000" opacity="1.00" d=" M 338.07 351.48 C 348.02 351.51 357.97 351.52 367.91 351.47 C 367.95 351.98 368.01 352.98 368.04 353.49 C 358.02 353.50 347.99 353.50 337.96 353.49 C 337.99 352.98 338.04 351.98 338.07 351.48 Z"></path> <path fill="#000000" opacity="1.00" d=" M 338.00 362.00 C 348.00 362.00 358.00 362.00 368.00 362.00 C 368.00 362.56 368.00 363.68 368.00 364.24 C 358.00 364.25 348.00 364.25 338.00 364.24 C 338.00 363.68 338.00 362.56 338.00 362.00 Z"></path> </g> <g id="#010101f1"> <path fill="#010101" opacity="0.95" d=" M 371.16 5.30 C 373.42 3.18 377.87 4.80 377.81 8.05 C 378.23 11.29 374.02 13.22 371.58 11.39 C 369.59 10.01 369.72 7.03 371.16 5.30 M 373.07 7.28 C 372.58 8.91 373.14 9.48 374.77 8.99 C 375.25 7.37 374.68 6.80 373.07 7.28 Z"></path> </g> <g id="#0000002c"> <path fill="#000000" opacity="0.17" d=" M 373.07 7.28 C 374.68 6.80 375.25 7.37 374.77 8.99 C 373.14 9.48 372.58 8.91 373.07 7.28 Z"></path> </g> <g id="#010101ff"> <path fill="#010101" opacity="1.00" d=" M 367.34 30.42 C 370.05 26.52 376.28 25.88 379.58 29.39 C 382.68 32.14 382.48 36.79 380.83 40.27 C 383.75 42.54 387.92 43.76 389.52 47.35 C 390.42 50.73 389.89 54.30 389.97 57.77 C 379.32 57.74 368.67 57.75 358.02 57.76 C 358.13 54.24 357.61 50.65 358.31 47.19 C 360.02 43.65 364.18 42.47 367.12 40.21 C 365.54 37.15 365.08 33.29 367.34 30.42 M 371.38 30.40 C 367.32 32.22 367.61 38.92 371.76 40.48 C 375.30 42.24 380.08 38.96 379.51 34.97 C 379.35 31.20 374.70 28.37 371.38 30.40 M 369.06 42.39 C 366.48 44.00 363.73 45.40 361.41 47.39 C 359.92 49.60 360.67 52.49 360.49 55.00 C 369.41 55.00 378.33 55.01 387.25 55.00 C 387.04 52.54 387.90 49.69 386.42 47.53 C 384.20 45.37 381.34 44.06 378.77 42.38 C 375.66 43.81 372.16 43.89 369.06 42.39 Z"></path> <path fill="#010101" opacity="1.00" d=" M 363.76 64.00 C 370.59 64.00 377.42 63.99 384.25 64.00 C 384.25 64.56 384.24 65.68 384.24 66.24 C 377.41 66.25 370.59 66.25 363.77 66.24 C 363.76 65.68 363.76 64.56 363.76 64.00 Z"></path> <path fill="#010101" opacity="1.00" d=" M 354.75 72.01 C 367.58 72.00 380.42 72.00 393.25 72.00 C 393.25 72.63 393.25 73.87 393.25 74.49 C 380.42 74.51 367.58 74.50 354.75 74.49 C 354.75 73.87 354.75 72.63 354.75 72.01 Z"></path> <path fill="#010101" opacity="1.00" d=" M 215.07 73.89 C 218.31 74.85 221.48 76.50 224.96 76.16 C 228.28 76.09 231.12 74.21 234.26 73.41 C 234.10 74.79 233.39 75.73 232.13 76.22 C 227.37 78.72 221.44 78.81 216.61 76.45 C 215.43 76.04 214.91 75.18 215.07 73.89 Z"></path> <path fill="#010101" opacity="1.00" d=" M 354.76 80.25 C 367.59 80.24 380.43 80.26 393.26 80.24 C 393.24 80.88 393.18 82.16 393.16 82.80 C 380.35 82.68 367.55 82.79 354.75 82.75 C 354.75 82.12 354.76 80.87 354.76 80.25 Z"></path> <path fill="#010101" opacity="1.00" d=" M 211.56 142.76 C 216.71 139.20 225.11 143.59 224.29 150.05 C 224.60 156.45 216.50 160.40 211.43 156.76 C 206.35 153.85 206.60 145.66 211.56 142.76 M 213.35 144.38 C 209.11 146.28 208.78 153.00 213.05 155.04 C 216.47 157.27 221.36 154.93 221.99 150.97 C 223.34 146.28 217.45 142.06 213.35 144.38 Z"></path> <path fill="#010101" opacity="1.00" d=" M 480.69 181.89 C 481.17 180.01 481.65 178.14 482.17 176.27 C 482.48 178.66 482.67 181.08 482.79 183.49 C 473.54 183.51 464.30 183.44 455.05 183.53 C 455.30 183.17 455.79 182.44 456.03 182.07 C 464.25 181.70 472.47 182.22 480.69 181.89 Z"></path> <path fill="#010101" opacity="1.00" d=" M 204.78 194.77 C 205.21 194.91 206.08 195.19 206.51 195.33 C 209.81 214.62 217.25 233.29 229.01 249.01 C 230.44 251.47 233.48 253.30 233.46 256.37 C 231.52 255.84 230.46 254.10 229.29 252.64 C 216.37 235.89 207.40 215.81 204.78 194.77 Z"></path> </g> <g id="#ffffffff"> </g> <g id="#000000f2"> <path fill="#000000" opacity="0.95" d=" M 51.15 55.86 C 51.65 55.81 52.65 55.71 53.15 55.66 C 53.04 62.50 54.01 69.39 53.15 76.19 C 50.47 75.89 51.38 72.93 51.10 71.08 C 51.08 66.01 50.28 60.90 51.15 55.86 Z"></path> </g> <g id="#191817f4"> <path fill="#191817" opacity="0.96" d=" M 17.17 143.20 C 28.00 142.10 37.63 153.55 34.85 164.02 C 33.63 170.30 28.61 175.56 22.46 177.24 C 17.64 178.08 12.22 178.04 8.19 174.89 C 1.62 170.64 -1.36 161.85 1.43 154.51 C 3.83 148.13 10.20 143.07 17.17 143.20 M 13.21 146.18 C 7.01 148.15 2.40 154.46 2.97 161.05 C 2.77 170.37 12.95 177.65 21.76 174.93 C 30.17 172.97 35.11 162.97 31.82 155.05 C 29.24 147.74 20.51 143.68 13.21 146.18 Z"></path> </g> <g id="#1b1a19ff"> <path fill="#1b1a19" opacity="1.00" d=" M 425.77 168.92 C 429.32 167.56 433.12 166.65 436.95 166.78 C 447.68 166.90 458.42 166.67 469.16 166.89 C 474.99 167.04 479.99 170.98 482.17 176.27 C 481.65 178.14 481.17 180.01 480.69 181.89 C 472.47 182.22 464.25 181.70 456.03 182.07 C 455.79 182.44 455.30 183.17 455.05 183.53 C 448.13 194.73 440.76 205.66 433.83 216.86 C 431.12 220.92 428.52 225.76 423.62 227.45 C 420.61 228.78 417.26 228.88 414.02 228.81 C 402.34 228.70 390.66 228.95 378.98 228.69 C 371.40 227.72 366.69 219.63 367.50 212.38 C 376.78 212.56 386.07 212.31 395.35 212.52 C 402.95 201.33 409.97 189.77 417.34 178.43 C 419.49 174.77 422.01 171.08 425.77 168.92 M 422.86 174.86 C 414.17 187.16 406.95 200.49 397.93 212.55 C 400.84 212.44 403.75 212.45 406.66 212.31 C 406.46 215.65 406.55 219.46 408.99 222.06 C 410.65 224.31 413.31 225.32 415.77 226.41 C 419.19 226.38 422.81 225.69 425.48 223.40 C 429.78 219.94 431.92 214.68 435.00 210.24 C 440.81 201.45 446.13 192.33 452.06 183.62 C 449.28 183.54 446.52 183.54 443.76 183.50 C 443.81 180.06 443.87 176.24 441.28 173.59 C 436.92 167.52 426.71 168.95 422.86 174.86 Z"></path> <path fill="#1b1a19" opacity="1.00" d=" M 420.59 197.97 C 421.42 196.36 421.97 194.17 424.06 193.80 C 425.52 193.14 426.98 194.26 428.41 194.55 C 429.74 196.71 429.83 199.13 428.47 201.31 C 426.35 202.50 423.89 202.73 421.95 201.07 C 421.51 200.03 421.06 198.99 420.59 197.97 Z"></path> <path fill="#1b1a19" opacity="1.00" d=" M 16.63 309.78 C 26.71 309.34 36.80 309.91 46.88 309.41 C 47.06 318.74 46.68 328.09 47.08 337.42 C 45.45 336.72 43.78 336.00 41.97 336.10 C 33.55 336.08 25.12 336.34 16.69 336.01 C 16.25 327.28 16.38 318.52 16.63 309.78 Z"></path> <path fill="#1b1a19" opacity="1.00" d=" M 367.38 463.79 C 367.72 463.98 368.41 464.34 368.75 464.53 C 369.56 474.76 368.07 485.10 369.67 495.27 C 360.94 499.91 352.47 505.06 343.92 510.02 C 343.49 509.99 342.62 509.92 342.19 509.88 C 343.52 507.45 344.50 504.80 344.28 501.99 C 344.12 495.03 344.46 488.07 344.09 481.12 C 343.77 480.84 343.13 480.27 342.80 479.99 L 342.25 479.62 C 342.71 479.10 343.64 478.07 344.10 477.55 C 351.77 472.83 359.79 468.65 367.38 463.79 Z"></path> </g> <g id="#1e1d1cff"> <path fill="#1e1d1c" opacity="1.00" d=" M 57.68 256.73 C 65.87 256.74 74.06 256.74 82.24 256.73 C 82.25 257.44 82.28 258.87 82.29 259.58 C 74.07 259.56 65.85 259.55 57.63 259.58 C 57.64 258.87 57.67 257.44 57.68 256.73 Z"></path> </g> <g id="#232221ff"> <path fill="#232221" opacity="1.00" d=" M 57.61 271.44 C 65.84 271.48 74.07 271.47 82.30 271.45 C 82.29 272.16 82.26 273.57 82.25 274.28 C 74.06 274.27 65.87 274.27 57.68 274.28 C 57.66 273.57 57.62 272.15 57.61 271.44 Z"></path> </g> <g id="#000000fe"> <path fill="#000000" opacity="1.00" d=" M 330.50 276.50 C 330.85 276.38 331.54 276.14 331.88 276.02 C 355.98 275.98 380.08 275.98 404.18 276.02 C 405.95 275.68 406.14 277.73 406.02 278.96 C 405.99 310.33 405.99 341.71 406.02 373.09 C 406.14 374.34 405.90 376.36 404.10 375.98 C 380.39 376.04 356.68 375.96 332.97 376.02 C 331.75 376.18 329.71 375.85 330.02 374.15 C 329.95 343.11 330.05 312.06 329.97 281.01 C 330.20 279.56 329.48 277.68 330.50 276.50 M 332.25 278.26 C 332.25 310.08 332.25 341.91 332.25 373.75 C 356.08 373.75 379.91 373.75 403.75 373.75 C 403.75 341.92 403.75 310.08 403.75 278.25 C 379.91 278.25 356.08 278.25 332.25 278.26 Z"></path> </g> <g id="#0e0d0cff"> <path fill="#0e0d0c" opacity="1.00" d=" M 72.48 383.42 C 76.96 381.49 78.69 389.68 74.00 389.79 C 70.13 390.73 68.81 384.44 72.48 383.42 Z"></path> </g> <g id="#0c0b0aff"> <path fill="#0c0b0a" opacity="1.00" d=" M 86.75 383.54 C 88.22 383.44 89.70 383.44 91.18 383.54 C 92.67 385.41 92.68 387.74 91.21 389.64 C 89.78 389.63 88.34 389.59 86.91 389.51 C 86.54 388.93 85.80 387.77 85.43 387.19 C 85.87 385.97 86.30 384.75 86.75 383.54 Z"></path> </g> <g id="#0f0e0dff"> <path fill="#0f0e0d" opacity="1.00" d=" M 102.57 383.74 C 104.33 382.56 106.31 383.66 107.70 384.83 C 107.90 386.81 107.63 389.68 105.03 389.75 C 101.47 390.81 99.77 385.50 102.57 383.74 Z"></path> <path fill="#0f0e0d" opacity="1.00" d=" M 85.77 401.16 C 86.79 398.97 89.19 399.10 91.20 399.42 C 92.12 400.96 93.28 403.16 91.51 404.59 C 89.34 407.41 84.33 404.48 85.77 401.16 Z"></path> </g> <g id="#0b0a0aff"> <path fill="#0b0a0a" opacity="1.00" d=" M 70.31 402.02 C 70.23 398.66 75.71 398.12 76.62 401.09 C 77.27 402.77 76.25 404.42 75.19 405.65 C 72.86 406.13 69.96 404.73 70.31 402.02 Z"></path> </g> <g id="#090807ff"> <path fill="#090807" opacity="1.00" d=" M 101.69 400.55 C 102.54 398.90 104.50 399.32 106.02 399.29 C 106.59 399.86 107.16 400.44 107.74 401.01 C 107.62 402.67 107.70 405.11 105.55 405.49 C 102.58 406.70 100.05 403.09 101.69 400.55 Z"></path> </g> <g id="#161514ff"> <path fill="#161514" opacity="1.00" d=" M 70.70 415.85 C 71.90 415.38 73.10 414.93 74.30 414.48 C 77.37 415.72 77.92 421.10 74.01 421.51 C 70.83 422.02 69.59 418.30 70.70 415.85 Z"></path> </g> <g id="#191817ff"> <path fill="#191817" opacity="1.00" d=" M 88.03 414.92 C 91.12 413.61 94.23 418.39 91.48 420.50 C 90.30 422.06 87.66 421.97 86.50 420.44 C 84.56 418.85 85.79 415.54 88.03 414.92 Z"></path> </g> <g id="#121110ff"> <path fill="#121110" opacity="1.00" d=" M 101.70 420.04 C 100.25 417.93 101.92 415.62 103.72 414.44 C 105.45 414.97 107.91 415.71 107.74 418.02 C 108.22 421.22 103.26 422.98 101.70 420.04 Z"></path> </g> <g id="#0b0a08ff"> <path fill="#0b0a08" opacity="1.00" d=" M 319.48 461.38 C 327.64 456.70 335.68 451.83 343.89 447.25 C 352.76 452.66 361.94 457.53 370.75 463.05 C 370.32 473.35 370.91 483.68 370.64 493.99 C 370.40 494.31 369.91 494.95 369.67 495.27 C 368.07 485.10 369.56 474.76 368.75 464.53 C 368.41 464.34 367.72 463.98 367.38 463.79 C 359.48 459.50 351.88 454.68 343.97 450.44 C 335.82 454.31 328.32 459.53 320.34 463.77 C 328.17 468.52 336.24 472.87 344.10 477.55 C 343.64 478.07 342.71 479.10 342.25 479.62 C 334.46 475.21 326.76 470.65 318.95 466.29 C 318.83 475.28 318.94 484.27 318.86 493.26 C 326.77 497.94 334.79 502.45 342.71 507.12 C 342.82 498.07 342.66 489.03 342.80 479.99 C 343.13 480.27 343.77 480.84 344.09 481.12 C 344.46 488.07 344.12 495.03 344.28 501.99 C 344.50 504.80 343.52 507.45 342.19 509.88 C 333.83 504.64 325.19 499.81 316.61 494.94 C 316.27 484.94 316.59 474.91 316.49 464.90 C 316.15 462.98 318.23 462.25 319.48 461.38 Z"></path> </g> </svg> 