<?xml version="1.0" encoding="UTF-8"?> <svg xmlns="http://www.w3.org/2000/svg" width="410pt" height="425pt" viewBox="0 0 410 425"> <g id="#ffffffff"> </g> <g id="#1b1a19ff"> <path fill="#1b1a19" opacity="1.00" d=" M 186.41 1.40 C 214.61 1.73 242.80 0.97 271.01 1.26 C 281.48 0.75 291.96 0.94 302.44 0.96 C 303.11 14.30 302.59 27.68 302.75 41.04 C 302.63 55.89 303.36 70.74 302.87 85.59 C 295.22 85.39 287.57 85.47 279.94 85.76 C 254.70 85.61 229.47 85.90 204.24 86.05 C 198.35 91.89 192.77 98.04 186.77 103.77 C 186.85 90.52 186.32 77.29 186.50 64.05 C 186.78 43.16 185.87 22.28 186.41 1.40 M 213.40 38.55 C 207.29 40.20 205.05 48.83 209.72 53.16 C 213.88 57.90 222.58 56.07 224.46 50.02 C 227.25 43.50 220.03 36.03 213.40 38.55 M 241.40 38.64 C 235.12 40.75 233.73 50.08 239.13 53.90 C 243.90 57.98 252.15 55.07 253.30 48.91 C 255.17 42.31 247.65 35.81 241.40 38.64 M 270.52 38.57 C 264.05 40.78 262.96 50.66 268.85 54.17 C 273.89 57.95 281.82 54.42 282.61 48.24 C 283.93 41.75 276.61 35.80 270.52 38.57 Z"></path> <path fill="#1b1a19" opacity="1.00" d=" M 14.93 13.18 C 53.58 13.15 92.23 13.19 130.89 13.16 C 130.87 38.25 130.83 63.35 130.91 88.45 C 124.05 88.52 117.20 88.41 110.35 88.51 C 110.44 94.15 110.41 99.80 110.39 105.44 C 92.88 105.37 75.38 105.44 57.88 105.41 C 57.84 99.74 57.95 94.08 57.83 88.41 C 43.50 88.58 29.16 88.37 14.83 88.52 C 14.94 63.40 14.75 38.29 14.93 13.18 M 34.45 15.56 C 34.41 20.75 34.43 25.94 34.44 31.14 C 65.66 31.09 96.89 31.22 128.11 31.08 C 128.92 26.05 128.10 20.71 128.49 15.57 C 97.14 15.66 65.79 15.68 34.45 15.56 M 24.52 20.61 C 20.97 21.45 22.53 26.95 26.00 25.96 C 29.38 25.17 27.91 19.30 24.52 20.61 M 17.19 33.70 C 17.43 51.08 17.23 68.46 17.29 85.84 C 30.82 85.82 44.35 85.83 57.88 85.84 C 57.96 80.18 57.69 74.51 58.05 68.86 C 75.52 69.12 93.00 68.65 110.46 69.10 C 110.35 74.69 110.42 80.28 110.41 85.86 C 116.43 85.78 122.46 85.90 128.49 85.79 C 128.33 68.39 128.46 51.00 128.42 33.61 C 91.34 33.69 54.26 33.50 17.19 33.70 M 76.21 77.93 C 76.06 84.08 76.23 90.24 76.13 96.39 C 81.53 93.37 86.85 90.23 92.22 87.15 C 86.86 84.11 81.55 80.99 76.21 77.93 Z"></path> <path fill="#1b1a19" opacity="1.00" d=" M 314.02 42.03 C 336.34 41.99 358.66 42.00 380.98 42.02 C 381.02 108.26 380.98 174.50 381.00 240.74 C 385.50 241.25 388.54 246.25 386.46 250.40 C 384.47 255.27 376.52 255.27 374.54 250.41 C 372.64 246.58 375.04 242.04 378.98 240.85 C 379.03 175.23 378.99 109.62 379.00 44.00 C 357.34 43.98 335.69 44.02 314.03 43.98 C 314.03 43.49 314.02 42.51 314.02 42.03 Z"></path> <path fill="#1b1a19" opacity="1.00" d=" M 127.43 119.56 C 132.54 117.06 138.43 117.24 143.95 117.78 C 149.37 118.21 154.48 120.69 159.98 120.28 C 163.73 119.90 168.06 121.98 168.63 126.03 C 169.71 133.22 168.24 140.46 167.49 147.61 C 169.04 148.08 170.69 149.03 170.58 150.91 C 170.19 158.78 165.93 165.67 164.31 173.26 C 163.26 177.53 160.66 181.12 158.74 185.00 C 158.36 188.68 158.60 192.40 158.93 196.08 C 158.75 197.77 160.75 197.84 161.86 198.34 C 169.35 200.64 176.72 203.34 184.20 205.70 C 194.19 208.82 203.30 215.12 209.18 223.83 C 212.57 228.80 214.15 234.69 216.92 239.98 C 223.30 252.67 230.55 264.92 238.01 277.00 C 240.05 280.35 242.86 283.89 241.88 288.09 C 240.46 294.04 236.04 298.63 232.25 303.21 C 223.96 313.16 213.31 320.85 201.79 326.65 C 205.81 327.89 209.81 329.35 213.97 330.08 C 218.78 330.07 223.39 328.36 228.06 327.38 C 241.86 324.19 255.68 319.90 270.00 320.30 C 275.56 320.35 282.51 319.60 286.40 324.52 C 290.86 330.31 294.47 336.97 296.20 344.10 C 297.47 347.76 294.20 350.56 291.89 352.87 C 282.16 361.61 271.47 369.19 260.87 376.82 C 253.27 382.45 244.12 385.43 235.08 387.81 C 223.67 391.17 212.18 394.31 200.85 397.92 C 207.91 399.37 215.14 398.64 222.23 399.76 C 229.71 400.52 238.27 400.32 244.15 405.78 C 247.52 408.86 250.70 413.06 250.62 417.82 C 250.28 422.15 245.85 423.97 242.25 425.00 L 230.20 425.00 C 217.27 422.14 203.94 422.72 190.83 421.31 C 182.00 420.90 173.59 417.53 165.92 413.32 C 163.58 415.01 161.25 416.71 158.95 418.46 C 154.18 417.62 149.77 415.43 145.01 414.56 C 138.09 415.91 131.58 418.83 124.64 420.14 C 124.24 419.58 123.42 418.48 123.01 417.93 C 118.62 418.88 114.48 421.04 109.90 421.07 C 102.31 422.13 94.63 421.83 87.03 422.85 C 80.56 422.71 74.19 423.76 67.86 425.00 L 56.29 425.00 C 53.26 424.04 49.53 423.07 48.18 419.83 C 46.48 411.92 53.34 405.00 60.07 402.15 C 71.47 399.10 83.41 399.50 95.07 398.38 C 80.78 393.81 66.48 389.26 52.17 384.72 C 47.85 383.37 43.63 381.52 40.02 378.75 C 28.90 369.89 16.88 362.16 6.30 352.63 C 4.20 350.55 1.32 348.24 2.02 344.90 C 2.70 339.76 5.32 335.14 7.77 330.66 C 9.71 327.48 11.57 323.91 14.90 321.98 C 18.95 319.94 23.63 320.32 28.02 320.29 C 46.53 319.88 64.08 326.67 82.06 329.99 C 83.96 330.44 85.79 329.66 87.58 329.14 C 74.37 320.87 60.42 313.56 48.49 303.42 C 45.88 300.92 42.35 297.99 43.03 293.95 C 44.18 288.06 46.85 282.60 49.13 277.09 C 54.85 264.80 60.74 252.53 68.17 241.17 C 72.26 233.70 76.26 226.15 81.20 219.20 C 83.47 216.17 86.06 213.09 89.74 211.77 C 102.25 206.81 115.00 202.51 127.62 197.84 C 128.39 193.57 129.17 189.29 129.57 184.95 C 126.05 180.07 124.03 174.35 122.62 168.56 C 120.59 162.49 117.71 156.45 117.90 149.91 C 117.85 148.34 119.54 147.79 120.52 146.94 C 120.24 141.57 119.13 136.26 119.27 130.87 C 119.83 126.05 123.05 121.64 127.43 119.56 M 126.48 143.63 C 126.35 145.94 127.04 148.51 125.73 150.61 C 123.89 153.61 125.13 157.31 124.67 160.61 C 119.93 158.66 123.34 152.33 119.97 149.45 C 120.20 155.01 121.78 160.51 124.26 165.48 C 125.52 170.42 126.58 175.52 129.17 179.98 C 130.29 182.01 132.22 183.76 131.91 186.29 C 135.26 188.51 138.85 190.89 143.05 190.78 C 148.53 190.97 154.93 188.48 156.98 183.02 C 162.27 175.29 165.43 165.29 163.04 156.04 C 163.31 151.23 162.11 146.58 160.95 141.96 C 149.81 138.22 137.21 138.80 126.48 143.63 M 131.82 186.97 C 130.94 191.14 130.61 195.43 129.43 199.53 C 125.32 201.91 120.46 202.83 116.00 204.50 C 119.56 214.03 124.45 223.17 131.01 230.98 C 134.55 234.93 139.30 239.08 145.01 238.26 C 149.99 237.46 154.03 233.88 157.10 230.07 C 163.16 222.22 166.72 212.75 169.11 203.21 C 165.22 202.02 161.36 200.69 157.47 199.47 C 155.99 195.53 156.26 191.27 156.17 187.15 C 152.73 192.74 145.45 196.20 139.07 193.99 C 135.65 192.91 133.73 189.74 131.82 186.97 M 171.26 203.87 C 169.07 213.12 165.56 222.20 160.04 229.98 C 156.48 235.10 151.31 239.55 145.03 240.67 C 138.98 241.33 133.71 237.33 129.85 233.11 C 122.73 225.07 117.77 215.36 113.81 205.44 C 106.07 207.89 98.49 210.85 90.92 213.77 C 86.92 215.10 84.40 218.69 82.05 221.96 C 77.51 228.64 73.78 235.81 69.82 242.83 C 62.43 254.27 56.50 266.57 50.83 278.93 C 48.64 284.16 46.25 289.40 45.10 294.98 C 45.88 298.60 49.18 300.88 51.80 303.21 C 63.66 312.62 76.95 320.00 89.95 327.71 C 90.65 327.33 92.05 326.56 92.75 326.18 C 91.77 321.79 91.48 317.23 90.21 312.92 C 87.46 310.26 84.21 308.14 81.75 305.19 C 78.57 301.38 74.53 298.44 71.19 294.81 C 69.79 293.37 69.17 291.01 70.48 289.30 C 76.89 278.26 83.52 267.32 89.69 256.14 C 90.91 256.17 91.88 256.65 92.13 257.96 C 96.59 268.66 101.61 279.26 103.99 290.67 C 122.29 290.21 140.60 289.81 158.91 289.39 C 166.95 288.94 175.08 289.46 183.06 288.54 C 184.16 283.24 184.73 277.79 186.79 272.74 C 189.35 266.44 190.18 259.65 191.18 252.97 C 190.98 251.00 193.68 251.65 194.14 252.92 C 201.80 263.18 209.28 273.60 217.52 283.41 C 219.16 285.04 218.44 287.52 217.32 289.22 C 214.58 293.39 210.88 296.80 207.61 300.54 C 204.39 304.42 200.00 307.03 195.89 309.85 C 195.36 314.05 194.52 318.21 194.21 322.44 C 195.84 323.42 197.45 324.45 199.03 325.52 C 209.80 320.02 220.24 313.41 228.23 304.19 C 232.87 298.75 238.80 293.40 239.96 286.00 C 238.88 281.68 235.81 278.25 233.70 274.42 C 225.12 260.01 216.27 245.63 210.02 230.03 C 206.70 222.81 200.93 216.90 194.21 212.75 C 187.20 208.33 178.98 206.63 171.26 203.87 M 193.11 255.49 C 192.19 261.73 191.20 268.04 188.81 273.92 C 187.01 278.67 186.17 283.71 185.49 288.73 C 190.03 288.85 194.56 288.35 199.10 288.51 C 198.16 294.61 197.30 300.72 196.33 306.83 C 200.02 304.42 203.57 301.76 206.43 298.39 C 209.87 294.43 214.13 290.92 216.29 286.04 C 215.68 284.36 214.26 283.18 213.20 281.80 C 206.22 273.25 199.79 264.27 193.11 255.49 M 84.98 268.99 C 80.77 276.69 75.79 284.01 71.94 291.88 C 73.90 294.93 76.98 296.98 79.49 299.54 C 82.94 302.72 85.73 306.67 89.77 309.18 C 88.66 303.12 87.63 297.06 86.55 291.00 C 91.57 291.14 96.59 290.66 101.62 290.73 C 99.43 279.94 94.52 270.01 90.55 259.83 C 88.43 262.71 86.81 265.92 84.98 268.99 M 141.31 314.31 C 136.32 317.17 136.60 325.72 141.99 327.98 C 146.32 329.79 150.74 325.22 150.30 320.96 C 150.81 316.38 145.69 311.64 141.31 314.31 M 13.37 326.37 C 8.90 332.21 5.66 338.98 3.80 346.09 C 6.71 350.77 11.36 353.93 15.54 357.36 C 23.89 364.11 32.85 370.03 41.20 376.76 C 44.50 379.39 48.43 381.09 52.42 382.38 C 68.60 387.53 84.78 392.69 100.97 397.83 C 105.92 396.38 111.27 398.05 116.06 395.88 C 117.57 395.64 119.30 394.26 120.75 395.15 C 122.59 402.59 123.61 410.23 125.84 417.58 C 132.26 415.87 138.55 413.73 144.97 412.06 C 147.51 411.37 149.55 409.58 151.95 408.54 C 163.64 403.04 175.76 398.51 187.83 393.90 C 192.52 391.43 197.14 397.07 201.96 395.11 C 215.13 391.21 228.31 387.31 241.54 383.62 C 247.47 381.53 253.50 379.36 258.61 375.61 C 269.42 367.84 280.33 360.16 290.24 351.25 C 292.12 349.30 295.14 347.11 293.91 344.00 C 292.03 337.57 288.85 331.48 284.77 326.17 C 282.77 323.39 279.18 322.65 275.95 322.72 C 270.26 322.73 264.55 322.59 258.88 323.05 C 245.06 325.08 231.66 329.17 218.00 332.00 C 215.02 332.80 211.89 331.87 208.94 332.80 C 200.88 334.97 192.67 336.71 184.91 339.89 C 170.98 345.40 156.85 350.65 143.81 358.10 C 127.79 351.90 111.86 345.36 95.31 340.68 C 94.89 338.44 94.48 336.21 94.05 333.98 C 91.68 333.36 89.38 332.38 86.92 332.14 C 84.97 332.28 83.00 332.64 81.07 332.13 C 68.61 329.65 56.41 326.03 43.91 323.76 C 37.01 322.36 29.94 322.83 22.95 322.72 C 19.46 322.61 15.49 323.27 13.37 326.37 M 193.56 325.01 C 193.44 326.21 193.33 327.42 193.21 328.63 C 194.43 327.93 195.65 327.23 196.85 326.52 C 195.75 326.00 194.66 325.50 193.56 325.01 M 109.53 399.67 C 106.34 405.55 107.27 414.16 113.00 418.07 C 116.32 417.30 119.60 416.30 122.71 414.90 C 121.35 409.10 120.14 403.27 118.99 397.42 C 115.90 398.42 112.77 399.35 109.53 399.67 M 168.35 411.61 C 172.58 413.90 176.96 415.97 181.69 417.00 C 184.82 412.34 186.43 406.79 185.70 401.16 C 178.84 402.48 174.00 407.95 168.35 411.61 M 168.55 406.57 C 168.00 406.50 166.89 406.38 166.34 406.32 C 166.64 406.87 166.96 407.43 167.30 407.99 C 162.85 409.59 159.08 412.59 154.86 414.70 C 155.88 415.22 156.91 415.70 157.95 416.21 C 163.60 412.26 169.07 408.04 174.81 404.21 C 172.70 404.94 170.61 405.70 168.55 406.57 Z"></path> <path fill="#1b1a19" opacity="1.00" d=" M 306.16 129.00 C 309.95 129.00 313.75 129.00 317.55 129.00 C 317.55 132.75 317.55 136.51 317.55 140.26 C 316.84 140.26 315.42 140.27 314.71 140.27 C 314.71 138.16 314.73 136.06 314.76 133.97 C 309.91 138.71 305.26 143.65 300.54 148.53 C 301.81 151.61 300.56 155.97 296.89 156.53 C 293.97 157.51 291.27 155.42 290.01 152.92 C 286.50 152.79 282.99 152.73 279.49 152.98 C 278.16 156.14 274.41 157.57 271.29 156.20 C 267.24 160.28 263.38 164.54 259.16 168.45 C 260.00 171.31 259.57 175.04 256.48 176.32 C 252.59 178.51 247.39 174.23 248.75 170.00 C 249.37 166.16 253.75 165.07 257.02 166.04 C 261.12 162.08 264.82 157.74 268.97 153.83 C 268.71 151.57 268.05 148.81 269.99 147.08 C 272.72 143.97 278.30 145.39 279.45 149.33 C 282.73 149.47 286.02 149.54 289.30 149.42 C 290.82 148.54 291.46 146.59 293.15 145.92 C 294.72 145.06 296.53 145.58 298.19 145.80 C 302.84 141.23 307.55 136.69 312.01 131.94 C 310.08 131.76 308.14 131.81 306.22 131.80 C 306.20 131.10 306.17 129.70 306.16 129.00 M 272.04 149.09 C 271.76 150.48 271.32 152.49 272.94 153.29 C 274.73 154.74 277.50 151.80 276.16 150.01 C 275.49 148.24 273.41 148.62 272.04 149.09 M 295.32 148.47 C 293.81 149.03 292.54 150.29 293.00 152.04 C 293.96 153.12 295.63 154.56 296.92 153.03 C 299.31 151.81 297.54 148.57 295.32 148.47 M 252.09 169.11 C 251.62 170.49 251.22 172.52 252.97 173.24 C 254.73 174.76 257.50 171.78 256.16 170.02 C 255.52 168.24 253.44 168.67 252.09 169.11 Z"></path> <path fill="#1b1a19" opacity="1.00" d=" M 224.97 143.00 C 237.65 143.00 250.34 143.00 263.03 143.00 C 263.01 143.71 262.99 145.14 262.98 145.85 C 253.17 145.82 243.37 145.81 233.56 145.85 C 233.55 161.71 233.54 177.57 233.57 193.43 C 266.53 193.45 299.48 193.46 332.43 193.43 C 332.46 177.57 332.45 161.71 332.44 145.85 C 328.37 145.81 324.30 145.84 320.24 145.81 C 320.21 145.11 320.14 143.71 320.11 143.01 C 327.08 142.97 334.06 143.02 341.04 143.00 C 341.02 143.71 340.98 145.12 340.96 145.83 C 339.05 145.83 337.14 145.86 335.24 145.94 C 335.42 161.81 335.07 177.69 335.42 193.55 C 337.24 193.47 339.06 193.42 340.89 193.34 C 340.94 194.14 341.03 195.75 341.08 196.55 C 322.09 196.51 303.11 196.66 284.12 196.47 C 284.11 201.25 283.55 206.15 284.51 210.86 C 291.54 221.72 298.97 232.36 306.16 243.13 C 307.28 243.17 308.41 243.21 309.54 243.26 C 309.58 243.91 309.66 245.21 309.70 245.87 C 306.87 246.09 304.03 246.07 301.21 245.90 C 301.17 244.59 301.59 243.50 302.47 242.62 C 296.32 233.60 290.22 224.54 284.05 215.52 C 283.94 224.70 284.03 233.88 284.00 243.06 C 285.06 243.12 286.13 243.21 287.19 243.33 C 287.23 244.00 287.32 245.33 287.36 246.00 C 284.27 246.00 281.19 246.02 278.11 245.99 C 278.13 245.32 278.19 243.98 278.21 243.31 C 279.31 243.17 280.42 243.02 281.53 242.86 C 281.34 233.86 281.49 224.86 281.45 215.86 C 274.83 224.61 269.02 233.97 262.78 243.01 C 263.24 243.09 264.16 243.26 264.63 243.34 C 264.63 243.98 264.65 245.26 264.66 245.89 C 261.87 246.07 259.08 246.08 256.31 245.88 C 256.35 245.25 256.42 244.00 256.46 243.38 C 257.60 243.05 259.24 243.47 259.93 242.25 C 266.53 232.44 273.12 222.63 279.80 212.88 C 280.53 211.67 281.58 210.46 281.43 208.94 C 281.51 204.83 281.40 200.72 281.46 196.61 C 262.61 196.47 243.75 196.60 224.90 196.55 C 224.96 195.74 225.09 194.13 225.16 193.32 C 226.97 193.41 228.78 193.47 230.59 193.55 C 230.91 177.68 230.59 161.80 230.75 145.93 C 228.84 145.86 226.93 145.83 225.03 145.83 C 225.01 145.12 224.98 143.71 224.97 143.00 Z"></path> <path fill="#1b1a19" opacity="1.00" d=" M 307.00 146.00 C 307.75 146.00 309.25 146.00 310.00 146.00 C 310.03 158.25 309.93 170.51 310.06 182.77 C 312.04 182.73 314.02 182.72 316.00 182.71 C 316.00 183.35 316.00 184.63 316.00 185.27 C 294.00 185.28 272.00 185.28 249.99 185.27 C 249.99 184.64 249.99 183.37 250.00 182.73 C 251.81 182.72 253.63 182.71 255.45 182.69 C 255.44 181.29 255.44 179.89 255.44 178.49 C 256.13 178.48 257.51 178.46 258.21 178.45 C 258.30 179.85 258.39 181.26 258.50 182.66 C 261.84 182.75 265.19 182.80 268.53 182.57 C 268.47 175.74 268.25 168.87 268.59 162.05 C 269.26 162.01 270.61 161.94 271.28 161.90 C 271.29 168.84 271.27 175.77 271.28 182.71 C 274.70 182.73 278.11 182.79 281.52 182.58 C 281.31 173.76 281.57 164.94 281.38 156.12 C 282.03 156.07 283.34 155.97 284.00 155.93 C 284.02 164.87 283.94 173.82 284.06 182.77 C 287.38 182.70 290.71 182.70 294.04 182.76 C 294.33 175.26 294.07 167.75 294.18 160.25 C 294.88 160.21 296.29 160.14 296.99 160.11 C 297.06 167.66 296.90 175.23 297.08 182.78 C 300.37 182.69 303.65 182.70 306.93 182.77 C 307.08 170.51 306.96 158.26 307.00 146.00 Z"></path> <path fill="#1b1a19" opacity="1.00" d=" M 30.46 164.47 C 32.92 163.84 34.94 166.97 33.59 169.04 C 32.63 171.46 28.27 170.77 28.14 168.14 C 27.73 166.52 28.74 164.68 30.46 164.47 Z"></path> <path fill="#1b1a19" opacity="1.00" d=" M 44.40 164.45 C 48.59 163.51 49.22 170.78 44.94 170.50 C 41.28 170.81 40.89 164.90 44.40 164.45 Z"></path> <path fill="#1b1a19" opacity="1.00" d=" M 15.13 165.21 C 16.59 163.48 20.11 164.68 19.95 167.01 C 20.43 168.79 18.90 170.77 17.02 170.48 C 14.30 170.83 13.06 166.68 15.13 165.21 Z"></path> <path fill="#1b1a19" opacity="1.00" d=" M 16.62 178.73 C 20.20 178.06 21.55 183.75 17.99 184.66 C 13.98 186.15 12.52 179.19 16.62 178.73 Z"></path> <path fill="#1b1a19" opacity="1.00" d=" M 30.61 178.72 C 34.70 177.94 35.14 185.10 30.98 184.78 C 27.39 184.97 27.06 179.06 30.61 178.72 Z"></path> <path fill="#1b1a19" opacity="1.00" d=" M 43.19 179.28 C 45.51 177.29 49.20 180.47 47.66 183.10 C 46.73 185.42 42.90 185.32 42.15 182.89 C 41.30 181.74 42.20 180.02 43.19 179.28 Z"></path> <path fill="#1b1a19" opacity="1.00" d=" M 14.89 193.84 C 16.97 191.84 19.81 193.65 20.57 195.98 C 19.83 197.55 18.62 198.75 17.02 199.45 C 14.73 198.67 13.00 195.94 14.89 193.84 Z"></path> <path fill="#1b1a19" opacity="1.00" d=" M 28.10 196.02 C 27.58 192.69 33.22 191.84 33.80 195.02 C 34.80 197.10 32.68 198.71 31.03 199.44 C 29.81 198.62 27.76 197.90 28.10 196.02 Z"></path> <path fill="#1b1a19" opacity="1.00" d=" M 41.47 196.05 C 42.13 193.68 45.10 191.77 47.10 193.89 C 49.16 195.87 47.26 198.77 44.98 199.45 C 43.41 198.76 42.22 197.58 41.47 196.05 Z"></path> <path fill="#1b1a19" opacity="1.00" d=" M 356.74 260.58 C 371.83 260.65 386.93 260.59 402.02 260.61 C 401.97 282.63 402.12 304.66 401.94 326.68 C 387.29 326.58 372.64 326.66 357.99 326.64 C 357.99 335.21 357.99 343.79 357.99 352.37 C 348.16 352.44 338.32 352.20 328.50 352.50 C 328.71 343.46 328.69 334.42 328.51 325.39 C 337.95 325.48 347.39 325.47 356.84 325.39 C 356.72 303.79 356.91 282.18 356.74 260.58 M 359.16 263.02 C 359.20 283.44 359.19 303.85 359.17 324.26 C 372.64 324.31 386.11 324.13 399.58 324.35 C 399.75 303.93 399.53 283.50 399.69 263.07 C 386.18 262.91 372.67 263.00 359.16 263.02 Z"></path> <path fill="#1b1a19" opacity="1.00" d=" M 369.01 281.63 C 366.91 282.37 367.15 278.64 369.04 279.28 C 376.08 279.24 383.12 279.32 390.16 279.25 C 390.10 279.87 389.98 281.10 389.92 281.72 C 382.95 281.55 375.97 281.75 369.01 281.63 Z"></path> <path fill="#1b1a19" opacity="1.00" d=" M 367.78 292.55 C 374.51 292.25 381.26 292.53 387.99 292.41 C 389.81 291.92 390.49 293.18 390.23 294.82 C 382.72 294.81 375.21 294.80 367.70 294.82 C 367.72 294.25 367.76 293.12 367.78 292.55 Z"></path> <path fill="#1b1a19" opacity="1.00" d=" M 367.66 305.56 C 375.17 305.62 382.68 305.58 390.20 305.58 C 390.17 306.18 390.12 307.37 390.09 307.97 C 382.67 307.97 375.25 307.97 367.84 307.97 C 367.79 307.37 367.70 306.16 367.66 305.56 Z"></path> <path fill="#1b1a19" opacity="1.00" d=" M 49.87 340.43 C 59.63 341.07 69.52 342.53 78.50 346.62 C 85.10 349.58 90.62 354.35 96.62 358.30 C 103.01 362.94 109.81 367.02 116.01 371.89 C 103.04 364.67 90.18 357.10 76.38 351.53 C 69.80 348.72 62.49 348.11 56.06 344.89 C 53.83 343.68 51.12 342.79 49.87 340.43 Z"></path> <path fill="#1b1a19" opacity="1.00" d=" M 181.02 361.09 C 199.79 348.05 222.79 343.39 245.05 340.43 C 236.68 346.93 225.84 348.33 216.25 352.22 C 191.74 361.82 168.30 373.88 144.89 385.83 C 156.50 377.01 168.95 369.28 181.02 361.09 Z"></path> </g> </svg> 