<?xml version="1.0" encoding="UTF-8"?> <svg xmlns="http://www.w3.org/2000/svg" width="334pt" height="334pt" viewBox="0 0 334 334"> <g id="#000000ff"> <path fill="#000000" opacity="1.00" d=" M 177.59 68.17 C 184.63 62.52 193.18 58.50 202.27 57.89 C 202.21 60.48 201.30 63.64 203.33 65.74 C 204.31 67.09 206.74 66.36 207.23 64.93 C 207.74 62.63 207.46 60.26 207.49 57.93 C 216.61 58.28 225.09 62.58 232.10 68.21 C 230.57 69.80 228.87 71.28 227.68 73.15 C 226.38 75.23 228.83 77.73 230.98 76.90 C 232.82 75.53 234.33 73.78 235.96 72.17 C 241.67 79.52 245.45 88.41 246.25 97.72 C 243.51 98.05 239.27 96.77 237.96 100.06 C 237.92 104.58 243.32 103.44 246.33 103.51 C 245.91 105.68 245.49 107.84 245.05 110.00 C 249.12 110.00 253.18 110.00 257.25 110.01 C 257.25 149.25 257.26 188.50 257.24 227.75 C 196.83 227.76 136.42 227.75 76.01 227.76 C 75.99 188.51 76.01 149.25 76.00 110.00 C 105.57 110.00 135.14 110.00 164.71 110.00 C 164.28 107.75 163.86 105.51 163.45 103.26 C 165.82 103.18 168.32 103.59 170.58 102.65 C 172.59 101.35 171.70 98.13 169.48 97.69 C 167.46 97.34 165.40 97.50 163.36 97.46 C 164.24 88.22 168.00 79.37 173.81 72.16 C 175.47 73.88 176.88 76.08 179.20 76.97 C 181.33 77.50 182.95 74.94 182.08 73.08 C 180.82 71.25 179.14 69.76 177.59 68.17 M 185.39 68.55 C 187.49 72.16 188.01 77.57 184.37 80.39 C 181.45 82.91 177.23 82.15 174.25 80.17 C 172.30 83.94 170.66 87.87 169.52 91.96 C 172.91 92.96 176.42 95.29 176.71 99.15 C 177.47 103.56 173.86 107.30 169.86 108.42 C 170.87 112.55 172.43 116.53 174.55 120.22 C 177.72 118.01 182.59 117.52 185.34 120.65 C 188.37 123.63 187.63 128.35 185.72 131.73 C 189.33 133.68 193.07 135.39 197.02 136.56 C 197.85 132.76 200.59 128.71 204.97 129.12 C 209.19 129.04 211.80 132.92 212.68 136.60 C 216.64 135.50 220.41 133.83 223.98 131.79 C 222.36 128.67 221.29 124.64 223.58 121.55 C 226.04 117.57 231.63 117.85 235.18 120.13 C 237.15 116.41 238.65 112.46 239.91 108.45 C 236.42 107.44 232.86 104.97 232.64 101.01 C 231.90 96.48 235.72 92.81 239.86 91.90 C 238.74 87.83 237.20 83.89 235.24 80.15 C 232.31 82.01 228.34 82.96 225.39 80.62 C 221.47 77.96 221.50 72.34 224.07 68.74 C 220.42 66.69 216.61 64.89 212.54 63.82 C 211.85 67.18 209.80 70.91 205.99 71.22 C 201.35 72.04 197.44 68.14 196.68 63.81 C 192.73 64.90 188.95 66.51 185.39 68.55 M 80.77 115.25 C 80.74 119.75 80.75 124.25 80.76 128.75 C 110.68 128.75 140.59 128.74 170.50 128.75 C 170.49 130.50 170.50 132.25 170.50 134.00 C 140.59 134.01 110.67 133.99 80.76 134.01 C 80.75 163.67 80.75 193.33 80.76 222.99 C 137.92 223.00 195.08 223.00 252.24 222.99 C 252.25 193.33 252.25 163.67 252.24 134.01 C 247.74 133.99 243.25 134.01 238.75 133.99 C 238.75 132.25 238.75 130.50 238.75 128.76 C 243.34 128.73 247.93 128.80 252.53 128.70 C 252.48 124.21 252.51 119.73 252.48 115.25 C 249.53 115.23 246.58 115.24 243.63 115.30 C 241.73 120.14 239.09 124.67 235.94 128.81 C 234.30 127.18 232.78 125.42 230.89 124.09 C 228.61 123.30 226.72 125.78 227.64 127.87 C 228.75 129.84 230.56 131.26 232.12 132.85 C 225.18 138.67 216.55 142.69 207.42 143.18 C 207.48 141.13 207.63 139.07 207.42 137.02 C 207.67 134.31 203.03 133.82 202.40 136.28 C 201.89 138.56 202.03 140.91 201.95 143.23 C 193.00 142.18 184.48 138.37 177.60 132.57 C 179.38 130.56 182.15 128.88 182.31 125.93 C 182.20 124.24 180.38 123.54 178.91 123.69 C 176.88 125.00 175.29 126.86 173.59 128.56 C 170.70 124.45 168.10 120.11 166.42 115.36 C 137.87 115.10 109.32 115.33 80.77 115.25 Z"></path> <path fill="#000000" opacity="1.00" d=" M 199.27 81.30 C 205.71 79.25 213.23 81.16 217.93 86.02 C 223.66 91.63 225.30 100.83 222.17 108.16 C 218.88 115.81 210.36 121.13 201.99 119.62 C 192.20 118.45 184.84 108.73 185.71 99.02 C 185.78 90.98 191.71 83.69 199.27 81.30 M 200.34 86.43 C 194.78 88.39 190.53 94.00 190.71 99.99 C 190.65 106.46 195.36 112.72 201.69 114.25 C 209.89 116.63 218.88 109.43 219.02 101.04 C 219.64 91.63 209.54 82.93 200.34 86.43 Z"></path> <path fill="#000000" opacity="1.00" d=" M 89.99 119.75 C 91.58 119.75 93.17 119.75 94.75 119.76 C 94.75 121.42 94.75 123.09 94.75 124.75 C 93.18 124.75 91.61 124.74 90.04 124.73 C 90.02 123.07 90.00 121.41 89.99 119.75 Z"></path> <path fill="#000000" opacity="1.00" d=" M 100.74 119.75 C 102.32 119.75 103.91 119.75 105.49 119.75 C 105.50 121.41 105.50 123.08 105.51 124.75 C 103.93 124.74 102.36 124.74 100.79 124.74 C 100.77 123.07 100.75 121.41 100.74 119.75 Z"></path> <path fill="#000000" opacity="1.00" d=" M 112.00 119.75 C 113.58 119.75 115.17 119.75 116.75 119.76 C 116.75 121.42 116.75 123.08 116.75 124.74 C 115.17 124.75 113.59 124.75 112.01 124.76 C 112.01 123.09 112.00 121.42 112.00 119.75 Z"></path> <path fill="#000000" opacity="1.00" d=" M 153.41 153.14 C 154.90 153.68 156.39 154.22 157.88 154.77 C 150.91 174.72 144.02 194.70 136.98 214.63 C 135.49 214.07 134.01 213.52 132.52 212.97 C 139.54 193.05 146.45 173.08 153.41 153.14 Z"></path> <path fill="#000000" opacity="1.00" d=" M 95.82 183.61 C 103.96 177.22 112.05 170.78 120.16 164.36 C 121.11 165.64 122.06 166.92 123.02 168.20 C 116.51 173.41 109.96 178.56 103.36 183.67 C 109.93 188.92 116.43 194.25 123.04 199.44 C 122.06 200.64 121.09 201.84 120.12 203.04 C 112.03 196.55 103.80 190.24 95.82 183.61 Z"></path> <path fill="#000000" opacity="1.00" d=" M 167.12 168.32 C 168.03 166.99 168.94 165.67 169.84 164.35 C 178.08 170.69 186.14 177.26 194.37 183.62 C 186.32 190.22 178.10 196.61 169.93 203.07 C 168.99 201.86 168.05 200.65 167.12 199.44 C 173.70 194.25 180.19 188.94 186.74 183.71 C 180.23 178.53 173.68 173.43 167.12 168.32 Z"></path> <path fill="#000000" opacity="1.00" d=" M 65.01 233.24 C 132.67 233.25 200.33 233.25 267.98 233.24 C 267.96 236.11 268.20 239.00 267.83 241.86 C 265.49 245.19 262.34 247.86 259.73 250.97 C 198.10 251.03 136.47 251.00 74.85 250.98 C 73.46 251.23 72.71 249.90 71.86 249.11 C 69.63 246.67 67.39 244.25 65.06 241.91 C 64.99 239.02 64.98 236.13 65.01 233.24 M 69.67 238.29 C 71.17 241.31 73.71 243.57 76.00 245.99 C 136.36 246.02 196.73 245.99 257.10 246.00 C 259.55 243.68 262.04 241.33 263.63 238.31 C 198.98 238.20 134.33 238.24 69.67 238.29 Z"></path> </g> </svg> 