<?xml version="1.0" encoding="UTF-8"?> <svg xmlns="http://www.w3.org/2000/svg" width="800pt" height="800pt" viewBox="0 0 800 800"> <g id="#000000ff"> <path fill="#000000" opacity="1.00" d=" M 499.63 118.90 C 502.09 116.58 505.27 114.09 508.88 115.24 C 512.24 115.98 513.88 119.34 514.06 122.52 C 514.84 120.78 515.57 119.02 516.27 117.24 C 524.18 122.59 526.09 134.91 520.30 142.44 C 518.82 144.35 516.80 145.73 514.88 147.15 C 515.06 152.49 513.92 157.74 513.72 163.05 C 514.80 169.02 519.31 173.65 520.77 179.53 C 519.16 179.70 517.55 179.83 515.96 179.95 C 515.44 187.16 517.55 195.17 513.72 201.74 C 509.91 205.90 503.80 202.64 499.45 201.12 C 498.16 206.81 496.41 212.38 495.10 218.06 C 494.53 219.43 495.75 220.56 496.33 221.68 C 503.05 231.62 508.61 242.30 513.92 253.05 C 515.93 257.67 518.50 262.14 519.66 267.09 C 519.25 277.29 517.56 287.42 516.60 297.60 C 519.62 297.60 522.63 297.59 525.65 297.54 C 528.03 292.20 531.69 286.27 537.97 285.29 C 543.57 284.35 547.55 289.95 553.03 289.75 C 555.52 289.73 556.45 287.17 557.51 285.38 C 568.45 282.28 579.44 279.33 590.40 276.27 C 591.78 278.03 592.84 280.01 593.77 282.05 C 594.55 279.12 595.20 276.15 596.35 273.34 C 597.26 271.15 599.34 269.80 600.64 267.87 C 602.27 263.68 601.96 258.79 604.76 255.07 C 609.63 256.85 609.83 262.69 610.30 267.04 C 612.50 256.93 615.63 247.04 618.41 237.07 C 620.90 237.96 623.37 238.89 625.84 239.85 C 623.90 246.31 621.85 252.73 619.93 259.19 C 623.21 264.72 621.97 271.73 619.22 277.22 C 616.60 282.63 615.12 289.25 609.74 292.70 C 606.43 295.02 603.55 297.96 600.02 299.95 C 579.68 308.49 559.50 317.40 539.23 326.11 C 532.30 329.50 524.91 331.78 517.75 334.62 C 522.07 360.23 526.14 385.88 530.40 411.49 C 531.26 417.57 532.72 423.57 533.02 429.71 C 530.23 430.19 527.44 430.64 524.64 431.04 C 532.39 461.63 540.38 492.16 548.10 522.76 C 545.84 523.62 543.60 524.50 541.37 525.38 C 556.09 577.69 571.11 629.91 585.85 682.20 C 585.43 682.58 584.58 683.32 584.16 683.70 C 584.79 685.62 585.45 687.54 586.10 689.47 C 595.52 690.08 605.07 690.43 614.30 692.65 C 601.25 696.70 587.97 699.98 574.81 703.68 C 572.58 696.16 571.17 688.36 567.90 681.18 C 549.03 637.09 530.22 592.96 511.35 548.87 C 509.91 545.50 509.30 541.87 508.58 538.31 C 506.48 538.93 504.39 539.55 502.29 540.15 C 492.50 517.31 482.79 494.43 472.99 471.60 C 463.65 495.42 454.55 519.34 445.15 543.15 C 444.40 542.98 442.91 542.65 442.17 542.49 C 438.41 550.75 435.43 559.36 431.40 567.49 C 406.60 605.67 381.80 643.85 356.95 682.00 C 354.15 684.81 351.87 688.04 350.28 691.69 C 351.67 695.00 353.06 698.32 354.43 701.64 C 359.80 703.03 365.15 704.56 370.59 705.68 C 363.22 706.29 355.81 705.91 348.41 705.97 C 343.05 701.72 337.64 697.53 332.18 693.41 C 334.94 688.77 337.77 684.19 340.59 679.60 C 342.04 677.33 342.10 674.53 343.17 672.11 C 363.26 626.15 383.23 580.14 403.33 534.19 C 402.68 533.96 401.39 533.52 400.74 533.29 C 405.96 499.33 411.17 465.37 416.37 431.41 C 414.24 430.79 412.15 430.10 410.08 429.32 C 416.88 398.17 423.91 367.07 430.81 335.94 C 431.45 333.01 430.88 330.02 430.55 327.10 C 429.70 319.63 428.86 312.14 427.27 304.79 C 423.52 308.57 420.21 312.82 417.38 317.33 C 413.60 323.11 415.43 330.52 412.43 336.62 C 409.43 343.89 401.64 347.00 396.74 352.67 C 388.73 361.57 382.18 371.66 375.79 381.74 C 375.05 382.84 374.10 383.77 373.17 384.71 C 371.36 383.53 369.52 382.39 367.67 381.29 C 366.94 385.83 371.18 389.37 370.51 393.93 C 370.39 396.98 368.17 399.15 366.05 401.03 C 365.64 405.61 365.61 411.72 360.93 414.15 C 357.36 415.69 356.53 410.99 355.48 408.70 C 354.16 408.34 352.82 408.04 351.55 407.55 C 350.46 405.78 350.00 403.71 349.04 401.88 C 347.28 401.01 345.35 400.60 343.51 400.00 C 341.41 400.83 339.25 403.35 336.90 402.34 C 334.16 397.80 332.28 392.80 329.88 388.08 C 307.26 385.36 284.25 383.28 262.58 375.83 C 263.82 385.57 266.32 395.16 266.91 404.97 C 262.32 403.88 257.82 402.50 253.27 401.27 C 261.44 425.28 269.69 449.27 277.52 473.40 C 279.93 481.27 282.83 489.03 284.59 497.08 C 293.14 559.05 301.52 621.04 310.06 683.00 C 310.62 686.75 311.10 690.50 311.34 694.29 C 319.36 697.69 327.81 700.42 335.06 705.37 C 322.49 705.66 309.91 705.41 297.34 705.51 C 296.64 700.35 296.63 695.05 295.04 690.06 C 276.64 630.73 258.21 571.42 239.83 512.08 C 237.71 529.03 236.13 546.06 233.37 562.92 C 233.10 565.66 230.59 567.16 228.75 568.86 C 198.75 594.13 168.27 618.84 137.98 643.79 C 136.63 645.12 134.51 646.02 133.86 647.89 C 133.78 656.17 134.89 664.49 133.73 672.75 C 131.20 669.96 129.51 666.59 127.52 663.43 C 123.11 656.25 118.66 649.09 114.30 641.88 C 117.58 639.49 120.91 637.19 124.14 634.74 C 124.40 633.56 124.45 632.28 125.18 631.28 C 147.91 598.84 170.70 566.44 193.38 533.96 C 190.75 500.59 187.69 467.26 184.96 433.89 C 184.90 432.35 184.23 430.95 183.64 429.56 C 180.63 428.59 179.75 425.39 177.73 423.34 C 175.77 422.84 173.57 423.18 171.76 422.20 C 168.73 417.97 170.74 412.36 172.09 407.85 C 160.70 405.03 149.26 402.37 137.87 399.56 C 142.60 378.64 148.39 357.97 153.53 337.14 C 154.59 333.30 155.23 329.33 156.70 325.62 C 157.76 324.91 159.08 325.48 160.23 325.62 C 165.62 326.86 171.05 327.96 176.45 329.18 C 177.44 310.43 178.63 291.67 179.98 272.96 C 175.03 263.77 170.62 254.17 168.34 243.91 C 162.45 219.45 165.13 193.12 175.23 170.13 C 181.56 155.96 191.48 142.77 205.40 135.39 C 217.08 129.17 231.51 128.20 243.84 133.07 C 251.69 136.14 258.41 142.11 262.12 149.71 C 270.19 165.93 267.79 185.37 276.75 201.25 C 284.76 215.19 301.70 220.26 310.73 233.30 C 318.97 244.93 321.48 260.29 317.82 274.03 C 314.09 288.18 304.27 300.31 291.88 307.90 C 284.00 312.86 274.93 315.62 265.78 317.04 C 270.48 327.06 275.12 337.12 279.91 347.10 C 289.29 345.67 299.41 344.94 308.35 348.73 C 314.29 351.17 317.22 357.29 321.97 361.25 C 327.59 366.18 333.65 371.04 340.87 373.35 C 344.48 374.87 347.45 377.53 350.44 380.01 C 352.11 377.83 353.70 375.58 355.24 373.31 C 354.19 372.58 353.13 371.85 352.08 371.13 C 359.60 355.59 368.20 340.59 376.31 325.36 C 390.18 299.97 404.17 274.63 419.05 249.82 C 414.66 245.25 409.95 240.71 407.23 234.90 C 404.87 230.05 407.68 224.63 411.28 221.27 C 414.64 217.59 419.51 215.31 422.02 210.88 C 421.63 205.76 417.17 202.04 416.53 196.99 C 416.25 194.94 418.25 193.55 420.06 193.32 C 423.66 192.70 427.33 192.50 430.98 192.54 C 441.79 192.91 452.77 193.61 463.09 197.13 C 465.21 191.40 461.13 186.03 459.55 180.69 C 456.68 178.64 455.48 175.22 453.83 172.26 C 449.43 163.58 444.97 154.77 442.84 145.21 C 441.02 137.77 443.58 129.34 449.43 124.35 C 457.23 117.71 468.41 117.00 478.07 119.05 C 485.64 120.73 493.29 122.87 500.05 126.76 C 501.92 125.64 504.34 123.86 503.66 121.35 C 503.29 119.45 501.07 119.42 499.63 118.90 M 446.25 132.45 C 443.68 138.07 444.58 144.52 446.54 150.17 C 449.84 159.79 454.47 168.90 459.47 177.73 C 466.63 173.70 472.15 167.41 477.09 160.96 C 484.81 150.50 491.28 139.15 496.62 127.32 C 486.01 123.15 474.62 119.01 463.04 120.80 C 456.10 121.81 449.02 125.70 446.25 132.45 M 501.13 151.44 C 500.20 153.56 499.32 155.99 497.10 157.08 C 493.93 158.83 490.23 158.22 486.86 157.60 C 486.78 164.46 490.35 171.28 496.28 174.81 C 501.32 178.00 507.52 177.63 513.20 178.52 C 514.58 177.52 516.19 177.11 517.91 177.45 C 515.35 172.84 512.35 168.28 511.27 163.05 C 511.70 158.14 512.55 153.25 512.51 148.29 C 508.83 149.73 505.02 150.80 501.13 151.44 M 470.86 171.91 C 472.19 175.52 474.22 178.80 476.60 181.81 C 472.99 184.97 469.67 188.45 466.31 191.87 C 466.03 194.02 465.66 196.16 465.24 198.29 C 475.51 202.70 485.73 208.20 492.98 216.94 C 494.39 211.31 496.04 205.74 497.37 200.10 C 493.15 197.85 489.03 195.44 484.94 192.98 C 483.96 192.38 482.86 191.77 482.57 190.57 C 480.26 183.77 480.35 176.47 479.32 169.44 C 478.63 167.98 477.24 167.01 476.17 165.85 C 474.41 167.88 472.64 169.90 470.86 171.91 M 251.69 170.71 C 242.79 184.20 231.13 195.92 217.43 204.54 C 223.90 208.80 230.15 213.39 236.47 217.87 C 236.72 213.72 236.65 209.34 238.49 205.51 C 240.55 202.43 244.79 203.74 247.89 203.70 C 250.79 203.75 255.04 204.22 256.45 200.98 C 256.41 194.87 255.26 188.83 254.70 182.76 C 256.44 182.63 258.20 182.54 259.94 182.35 C 257.78 178.07 254.35 174.65 251.69 170.71 M 418.63 196.11 C 419.44 201.74 425.03 205.99 423.94 211.97 C 421.63 216.78 416.37 219.03 412.92 222.88 C 409.99 225.59 407.60 229.73 409.23 233.78 C 412.09 239.81 417.05 244.48 421.75 249.09 C 420.23 252.67 417.99 255.86 416.09 259.23 C 394.77 295.75 374.63 332.93 354.82 370.28 C 360.88 374.09 366.85 378.04 372.94 381.81 C 379.96 371.04 386.82 360.06 395.55 350.56 C 399.93 345.57 406.61 342.81 409.81 336.75 C 413.40 330.37 411.18 322.28 415.42 316.15 C 419.08 310.54 423.14 305.03 428.22 300.62 C 430.06 304.83 430.44 309.47 431.17 313.96 C 432.06 320.93 433.30 327.94 433.33 334.97 C 426.55 365.99 419.49 396.96 412.68 427.98 C 419.97 430.07 427.47 431.27 435.00 432.06 C 466.94 434.89 499.05 431.93 530.75 427.90 C 525.60 396.25 520.39 364.61 515.22 332.96 C 522.84 330.55 530.12 327.26 537.55 324.34 C 558.05 315.51 578.49 306.55 599.03 297.81 C 596.01 291.43 592.71 285.19 589.64 278.83 C 579.50 281.70 569.31 284.39 559.17 287.29 C 557.91 289.59 556.07 292.22 553.08 291.97 C 547.17 292.70 542.91 286.07 536.95 287.91 C 531.63 289.64 529.46 295.22 527.02 299.70 C 522.75 300.09 518.44 299.90 514.16 299.73 C 514.86 289.45 516.76 279.27 517.27 268.98 C 517.53 266.12 516.12 263.54 515.05 261.01 C 510.75 251.22 505.72 241.77 500.43 232.48 C 495.74 224.80 491.14 216.65 483.73 211.24 C 477.14 206.04 469.42 202.66 461.83 199.24 C 453.92 196.25 445.39 195.70 437.04 194.98 C 430.91 194.99 424.58 194.23 418.63 196.11 M 216.54 206.78 C 214.52 210.04 212.38 213.23 210.15 216.35 C 215.62 215.66 222.17 215.37 226.34 219.66 C 230.33 223.77 234.02 228.18 237.51 232.73 C 239.03 229.96 240.60 227.22 242.07 224.43 C 233.43 218.73 225.24 212.38 216.54 206.78 M 210.48 218.75 C 203.06 220.61 197.12 225.84 191.89 231.19 C 198.57 231.70 204.48 235.24 209.65 239.26 C 216.66 244.76 223.08 251.75 225.63 260.49 C 227.29 268.06 224.74 275.65 222.62 282.86 C 218.75 295.92 212.99 308.51 211.16 322.12 C 210.38 327.37 213.20 332.13 214.30 337.12 C 227.13 340.01 240.02 342.61 252.87 345.43 C 251.04 333.90 249.01 322.38 247.37 310.83 C 248.63 307.33 249.91 303.79 251.78 300.57 L 253.19 300.99 C 253.28 305.49 248.75 309.23 250.09 313.89 C 251.81 324.50 253.54 335.12 255.22 345.74 C 255.89 345.97 257.24 346.44 257.92 346.67 C 255.04 352.97 257.87 359.57 258.44 366.04 C 257.93 366.28 256.92 366.78 256.41 367.02 C 255.77 363.83 255.26 360.61 254.85 357.38 C 251.57 370.49 249.34 383.82 246.78 397.08 C 252.68 398.78 258.62 400.35 264.53 402.06 C 263.15 392.26 261.02 382.58 259.87 372.76 C 264.45 373.70 268.71 375.78 273.29 376.79 C 291.81 381.38 310.80 383.79 329.77 385.67 C 330.39 380.95 331.18 376.25 332.03 371.57 C 324.87 367.47 318.64 361.87 313.46 355.47 C 310.99 352.30 307.30 350.37 303.45 349.44 C 295.19 347.14 286.66 348.74 278.29 349.21 C 270.60 332.72 262.88 316.24 255.12 299.78 C 258.03 292.54 261.97 285.62 263.50 277.90 C 264.21 274.49 261.97 271.48 260.43 268.65 C 252.70 255.99 243.69 244.15 234.50 232.53 C 231.00 228.37 227.71 223.98 223.62 220.37 C 219.83 217.82 214.81 217.54 210.48 218.75 M 186.26 242.90 C 182.55 262.54 181.71 282.57 180.19 302.45 C 178.39 333.89 177.18 365.37 176.48 396.86 C 183.64 397.59 190.73 398.90 197.88 399.75 C 199.31 387.34 201.41 374.92 204.98 362.93 C 206.80 356.33 211.81 350.90 212.47 343.95 C 213.04 338.69 210.86 333.74 209.35 328.83 C 208.55 324.26 208.99 319.53 210.09 315.04 C 213.66 299.35 220.98 284.71 223.75 268.81 C 224.62 264.56 223.50 260.20 221.60 256.39 C 217.65 248.73 211.08 242.77 204.00 238.04 C 199.83 235.47 194.98 232.88 189.93 233.99 C 187.48 236.27 186.98 239.79 186.26 242.90 M 605.50 257.76 C 604.45 261.47 604.02 265.35 602.72 268.99 C 601.54 271.03 599.20 272.23 598.36 274.49 C 597.12 277.94 596.16 281.51 595.65 285.13 C 596.94 289.15 599.31 292.73 601.04 296.58 C 604.37 293.73 608.06 291.33 611.27 288.35 C 614.50 283.41 616.41 277.74 618.70 272.33 C 615.21 271.84 611.71 271.51 608.26 270.86 C 607.87 266.42 607.98 261.66 605.50 257.76 M 617.64 269.87 C 618.06 269.99 618.90 270.23 619.32 270.34 C 619.39 267.90 619.38 265.45 619.32 263.00 C 618.73 265.28 618.17 267.57 617.64 269.87 M 158.30 327.62 C 152.41 351.04 146.35 374.42 140.41 397.83 C 151.34 400.49 162.27 403.13 173.22 405.69 C 174.18 403.63 175.14 401.57 176.13 399.52 C 174.81 398.77 173.75 397.67 174.16 396.03 C 174.65 374.47 175.68 352.94 176.31 331.39 C 170.28 330.24 164.32 328.78 158.30 327.62 M 214.85 339.63 C 216.15 349.25 208.81 356.63 206.59 365.43 C 203.21 377.40 201.45 389.74 199.70 402.03 C 197.10 401.92 194.50 401.69 191.92 401.47 C 194.31 404.55 196.80 407.71 197.69 411.61 C 211.57 414.92 225.41 418.36 239.31 421.58 C 244.97 399.24 247.37 376.20 253.46 353.97 C 254.20 351.96 253.50 349.88 253.25 347.87 C 240.46 345.06 227.64 342.41 214.85 339.63 M 334.07 373.31 C 333.42 377.88 332.18 382.41 332.05 387.02 C 333.82 391.54 336.16 395.83 338.21 400.23 C 339.57 399.51 340.92 398.76 342.26 398.01 C 342.38 391.91 345.25 386.37 349.19 381.86 C 344.81 377.96 339.82 374.73 334.07 373.31 M 357.16 374.53 C 354.42 378.63 351.50 382.61 348.54 386.55 C 346.23 389.57 344.82 393.34 344.79 397.15 C 345.25 398.95 347.62 398.60 348.97 399.31 C 351.86 400.01 352.04 403.42 353.00 405.70 C 354.33 406.10 355.91 406.05 357.03 406.97 C 358.14 408.77 358.83 410.79 359.83 412.65 C 363.66 409.51 363.27 404.34 363.94 399.93 C 365.11 398.15 367.48 397.23 368.02 395.01 C 369.64 389.59 363.14 385.43 365.85 380.05 C 362.95 378.21 360.06 376.36 357.16 374.53 M 178.71 399.45 C 175.86 406.06 170.65 413.11 173.37 420.58 C 175.23 420.96 177.15 420.94 179.00 421.37 C 180.79 422.54 181.51 424.75 182.72 426.43 C 186.66 425.26 188.69 428.86 190.35 431.68 C 193.77 428.74 192.70 423.83 192.21 419.92 C 191.61 417.11 195.23 415.74 195.18 413.01 C 195.77 408.09 190.50 405.53 189.75 401.01 C 186.08 400.40 182.40 399.88 178.71 399.45 M 188.05 437.24 C 194.26 447.72 201.36 457.66 208.53 467.51 C 209.63 466.83 210.16 465.98 209.09 464.98 C 202.42 455.62 195.89 446.15 189.71 436.46 C 189.29 436.66 188.46 437.04 188.05 437.24 M 486.56 442.43 C 482.51 448.48 478.24 454.52 474.89 460.97 L 476.11 461.72 C 479.25 457.88 481.54 453.45 484.32 449.37 C 485.81 446.88 487.95 444.64 488.32 441.64 C 487.88 441.84 487.00 442.23 486.56 442.43 M 191.43 482.80 C 192.75 499.53 194.21 516.25 195.70 532.96 C 196.02 534.57 194.84 535.86 194.05 537.12 C 171.51 569.10 149.16 601.21 126.62 633.18 C 128.66 637.12 130.84 640.98 132.95 644.89 C 152.35 629.06 171.68 613.16 191.01 597.25 C 204.36 586.11 218.03 575.31 230.98 563.69 C 234.03 544.70 235.74 525.52 238.23 506.46 C 239.94 506.12 240.88 507.08 241.15 508.70 C 260.03 569.24 278.63 629.87 297.63 690.36 C 301.24 691.54 305.31 691.46 309.09 692.19 C 301.58 638.86 294.47 585.46 287.10 532.10 C 285.39 520.06 283.99 507.97 282.01 495.98 C 278.73 483.65 274.43 471.62 270.54 459.48 C 245.04 469.83 218.64 478.36 191.43 482.80 M 510.76 537.60 C 511.58 541.03 511.95 544.59 513.41 547.84 C 532.74 593.07 552.06 638.30 571.39 683.53 C 575.38 682.94 579.34 682.12 583.28 681.22 C 568.48 629.60 553.90 577.92 539.21 526.27 C 529.75 530.13 520.35 534.11 510.76 537.60 M 344.39 675.12 C 347.65 677.43 351.01 679.59 354.28 681.89 C 379.34 643.38 404.42 604.87 429.41 566.31 C 433.31 558.43 436.22 550.10 439.84 542.09 C 428.33 540.09 416.86 537.81 405.59 534.71 C 385.18 581.51 364.78 628.31 344.39 675.12 Z"></path> <path fill="#000000" opacity="1.00" d=" M 483.15 133.76 L 484.25 133.73 L 484.66 134.74 C 479.01 146.40 471.84 157.48 462.86 166.86 C 462.35 166.85 461.33 166.84 460.81 166.83 C 463.35 163.08 466.61 159.89 469.26 156.22 C 474.68 149.25 478.92 141.48 483.15 133.76 Z"></path> <path fill="#000000" opacity="1.00" d=" M 425.70 246.56 C 429.56 230.18 438.02 214.51 451.24 203.84 C 451.52 204.31 452.07 205.26 452.35 205.73 C 441.95 214.82 434.17 226.75 429.99 239.91 C 424.11 257.94 423.73 277.42 427.00 296.00 C 427.47 297.70 426.86 298.36 425.18 297.98 C 421.69 281.09 421.77 263.37 425.70 246.56 Z"></path> <path fill="#000000" opacity="1.00" d=" M 445.24 228.23 C 448.68 220.76 457.58 216.40 465.54 218.86 C 465.42 219.32 465.17 220.24 465.05 220.70 C 460.71 220.39 455.96 220.45 452.37 223.25 C 446.36 227.77 444.48 235.72 444.04 242.85 C 443.59 254.04 447.53 264.81 452.08 274.85 C 459.86 291.72 469.08 307.97 480.00 323.02 C 484.50 329.26 490.99 335.21 499.11 335.41 C 501.08 335.60 504.41 333.76 504.26 337.04 C 497.43 339.04 490.12 336.50 484.92 331.94 C 479.36 327.07 475.42 320.71 471.33 314.63 C 461.69 299.74 453.12 284.09 446.49 267.62 C 441.68 255.23 439.31 240.66 445.24 228.23 Z"></path> <path fill="#000000" opacity="1.00" d=" M 474.62 234.70 C 476.55 234.97 478.29 235.95 479.61 237.38 C 485.69 243.23 487.28 252.01 492.50 258.47 C 495.91 262.79 501.84 264.36 504.76 269.15 C 509.11 276.11 508.95 284.85 507.96 292.71 C 507.47 292.86 506.51 293.17 506.03 293.32 C 506.10 286.04 507.08 278.21 503.42 271.56 C 500.71 266.29 494.47 264.63 490.86 260.19 C 484.78 252.89 483.33 242.30 475.17 236.65 C 475.03 236.17 474.76 235.19 474.62 234.70 Z"></path> <path fill="#000000" opacity="1.00" d=" M 615.70 338.34 C 631.94 338.24 648.18 338.43 664.42 338.24 C 664.42 362.09 664.45 385.93 664.41 409.78 C 648.80 409.55 633.18 409.81 617.57 409.65 C 617.76 408.88 617.98 408.12 618.16 407.35 C 632.87 407.46 647.59 407.35 662.31 407.40 C 662.26 385.15 662.25 362.89 662.31 340.63 C 647.64 340.61 632.96 340.61 618.29 340.63 C 617.42 339.86 616.55 339.10 615.70 338.34 Z"></path> <path fill="#000000" opacity="1.00" d=" M 219.97 480.14 C 220.37 480.11 221.16 480.06 221.56 480.03 C 227.32 487.77 232.88 495.67 238.49 503.52 C 239.64 504.49 237.08 505.94 236.71 504.40 C 231.87 497.85 227.23 491.14 222.41 484.58 C 221.50 483.16 220.15 481.89 219.97 480.14 Z"></path> <path fill="#000000" opacity="1.00" d=" M 665.78 526.81 C 666.08 526.39 666.69 525.54 666.99 525.12 C 676.97 543.48 688.11 561.19 698.17 579.50 C 693.12 576.66 691.88 570.46 688.07 566.42 C 680.65 554.55 673.94 542.23 666.93 530.10 C 657.47 545.98 648.42 562.11 638.99 578.01 C 633.32 587.28 628.38 596.98 622.43 606.09 C 623.21 605.59 624.00 605.12 624.80 604.65 C 629.56 606.95 634.91 606.12 640.01 606.18 C 659.34 606.16 678.67 606.16 698.00 606.18 C 703.02 606.15 708.21 606.77 713.03 604.97 L 713.22 604.92 C 713.80 605.98 714.35 607.07 714.88 608.19 C 709.66 607.57 704.41 608.53 699.18 607.96 C 681.45 608.46 663.72 607.64 645.99 608.08 C 636.91 608.54 627.82 607.52 618.76 608.21 C 634.26 580.98 650.52 554.18 665.78 526.81 Z"></path> </g> <g id="#ffffffff"> <path fill="#ffffff" opacity="1.00" d=" M 617.64 269.87 C 618.17 267.57 618.73 265.28 619.32 263.00 C 619.38 265.45 619.39 267.90 619.32 270.34 C 618.90 270.23 618.06 269.99 617.64 269.87 Z"></path> </g> <g id="#181716e7"> <path fill="#181716" opacity="0.91" d=" M 93.48 138.08 C 94.27 128.34 104.56 120.67 114.11 123.11 C 121.78 124.67 127.90 132.06 127.55 139.96 C 127.79 146.89 122.95 153.48 116.55 155.91 C 111.95 156.95 107.18 156.66 102.71 155.21 C 96.66 151.93 92.58 145.03 93.48 138.08 M 107.46 125.57 C 100.79 126.84 95.60 133.26 95.98 140.07 C 95.66 148.03 103.10 155.08 111.03 154.50 C 119.43 154.58 126.43 146.15 124.98 137.91 C 124.18 129.70 115.45 123.62 107.46 125.57 Z"></path> </g> <g id="#1b1a19ff"> <path fill="#1b1a19" opacity="1.00" d=" M 590.42 124.10 C 621.78 123.70 653.15 123.91 684.50 123.51 C 684.64 146.42 684.86 169.33 684.76 192.24 C 658.21 192.70 631.66 192.34 605.12 192.75 C 600.20 197.47 595.64 202.53 590.78 207.31 C 590.85 179.57 590.54 151.84 590.42 124.10 M 611.46 154.51 C 606.42 156.70 606.11 164.54 610.90 167.18 C 615.40 170.26 622.01 166.37 621.79 161.02 C 622.01 155.93 616.00 151.96 611.46 154.51 M 634.38 154.53 C 629.41 156.77 629.25 164.54 633.99 167.14 C 638.39 170.05 645.10 166.32 644.79 161.02 C 645.20 155.83 638.87 151.82 634.38 154.53 M 658.34 154.21 C 653.25 156.31 652.63 163.96 657.29 166.87 C 662.02 170.39 669.37 165.80 668.41 160.02 C 668.04 155.28 662.61 152.30 658.34 154.21 Z"></path> <path fill="#1b1a19" opacity="1.00" d=" M 588.17 411.25 C 597.06 411.01 605.97 411.05 614.86 411.24 C 615.17 419.51 614.87 427.78 615.02 436.05 C 605.98 435.85 596.94 436.22 587.90 435.83 C 588.29 427.64 587.78 419.44 588.17 411.25 Z"></path> <path fill="#1b1a19" opacity="1.00" d=" M 624.80 604.65 C 645.83 591.80 667.10 579.35 688.07 566.42 C 691.88 570.46 693.12 576.66 698.17 579.50 C 700.50 582.11 701.86 585.49 703.72 588.46 C 706.70 594.03 710.19 599.32 713.03 604.97 C 708.21 606.77 703.02 606.15 698.00 606.18 C 678.67 606.16 659.34 606.16 640.01 606.18 C 634.91 606.12 629.56 606.95 624.80 604.65 Z"></path> </g> <g id="#0d0c0bff"> <path fill="#0d0c0b" opacity="1.00" d=" M 325.69 129.01 C 326.51 128.51 327.33 128.01 328.14 127.51 C 329.42 128.49 331.70 129.10 331.52 131.09 C 332.04 133.78 327.96 135.91 326.16 133.79 C 324.61 132.63 325.33 130.56 325.69 129.01 Z"></path> </g> <g id="#050303ff"> <path fill="#050303" opacity="1.00" d=" M 340.68 128.96 C 341.73 128.54 342.80 128.14 343.86 127.71 C 344.68 128.12 345.49 128.56 346.28 129.03 C 347.45 131.48 346.35 135.21 343.08 134.54 C 340.12 134.41 340.04 131.12 340.68 128.96 Z"></path> </g> <g id="#0a0908ff"> <path fill="#0a0908" opacity="1.00" d=" M 355.94 132.92 C 354.16 130.58 356.92 128.51 358.84 127.51 C 359.67 128.02 360.52 128.52 361.39 128.98 C 361.59 130.36 361.74 131.73 361.90 133.11 C 360.18 134.61 357.21 135.44 355.94 132.92 Z"></path> </g> <g id="#0c0b0bff"> <path fill="#0c0b0b" opacity="1.00" d=" M 325.64 149.05 C 324.23 146.49 325.94 142.96 329.12 143.55 C 330.20 144.39 332.11 145.37 331.53 147.06 C 331.59 149.00 329.39 149.61 328.14 150.57 C 327.52 150.19 326.27 149.43 325.64 149.05 Z"></path> </g> <g id="#040302ff"> <path fill="#040302" opacity="1.00" d=" M 341.47 144.41 C 342.86 142.69 345.06 144.06 346.59 144.79 C 346.64 146.21 346.56 147.62 346.37 149.02 C 345.80 149.33 344.66 149.93 344.09 150.23 C 343.80 150.23 343.22 150.22 342.93 150.22 C 342.37 149.91 341.24 149.29 340.68 148.97 C 340.44 147.41 339.74 145.40 341.47 144.41 Z"></path> <path fill="#040302" opacity="1.00" d=" M 627.65 372.67 C 635.59 372.72 643.54 372.74 651.49 372.65 C 651.52 373.58 651.57 374.51 651.64 375.45 C 643.61 375.38 635.59 375.41 627.57 375.43 C 627.59 374.74 627.63 373.36 627.65 372.67 Z"></path> </g> <g id="#0f0d0dff"> <path fill="#0f0d0d" opacity="1.00" d=" M 355.63 147.99 C 354.50 145.60 357.40 142.74 359.79 143.71 C 361.07 144.46 361.75 145.83 362.60 146.99 C 361.54 148.34 360.35 149.59 359.07 150.74 C 357.90 149.87 356.38 149.32 355.63 147.99 Z"></path> </g> <g id="#0b0a0a68"> <path fill="#0b0a0a" opacity="0.41" d=" M 102.71 155.21 C 107.18 156.66 111.95 156.95 116.55 155.91 C 112.42 158.64 106.69 157.85 102.71 155.21 Z"></path> </g> <g id="#100f0eff"> <path fill="#100f0e" opacity="1.00" d=" M 325.69 159.67 C 327.11 159.51 328.69 158.70 330.01 159.60 C 331.67 160.49 331.39 162.48 331.60 164.05 C 330.07 165.07 327.68 166.69 326.11 164.84 C 324.44 163.57 325.52 161.35 325.69 159.67 Z"></path> </g> <g id="#080707ff"> <path fill="#080707" opacity="1.00" d=" M 340.33 160.53 C 342.26 158.62 346.67 158.55 346.72 161.99 C 347.54 165.12 343.25 166.80 341.19 164.79 C 339.87 163.79 340.57 161.92 340.33 160.53 Z"></path> </g> <g id="#0e0d0cff"> <path fill="#0e0d0c" opacity="1.00" d=" M 356.79 159.29 C 358.31 159.25 359.82 159.37 361.32 159.64 C 361.47 161.33 362.66 163.65 360.88 164.86 C 358.95 167.01 354.85 164.72 355.52 161.96 C 355.84 161.29 356.48 159.96 356.79 159.29 Z"></path> </g> <g id="#161514ff"> <path fill="#161514" opacity="1.00" d=" M 615.70 338.34 C 616.55 339.10 617.42 339.86 618.29 340.63 C 618.32 362.87 618.59 385.12 618.16 407.35 C 617.98 408.12 617.76 408.88 617.57 409.65 C 616.41 418.43 617.63 427.40 616.94 436.25 C 616.46 436.20 615.50 436.10 615.02 436.05 C 614.87 427.78 615.17 419.51 614.86 411.24 C 605.97 411.05 597.06 411.01 588.17 411.25 C 587.78 419.44 588.29 427.64 587.90 435.83 C 587.37 436.12 586.30 436.71 585.76 437.00 C 596.37 437.62 607.01 436.85 617.62 437.49 C 606.91 438.10 596.16 437.49 585.43 437.81 C 585.56 428.05 585.58 418.28 585.42 408.51 C 595.54 408.63 605.67 408.53 615.79 408.57 C 615.70 385.16 615.88 361.75 615.70 338.34 Z"></path> </g> <g id="#030302ff"> <path fill="#030302" opacity="1.00" d=" M 627.56 358.42 C 635.57 358.44 643.59 358.49 651.60 358.39 C 651.61 359.00 651.61 360.22 651.62 360.83 C 643.61 360.73 635.60 360.75 627.59 360.81 C 627.59 360.22 627.57 359.02 627.56 358.42 Z"></path> </g> <g id="#030303ff"> <path fill="#030303" opacity="1.00" d=" M 627.55 387.27 C 635.57 387.33 643.59 387.36 651.62 387.25 C 651.60 387.85 651.58 389.04 651.57 389.63 C 643.59 389.51 635.61 389.57 627.63 389.59 C 627.61 389.01 627.57 387.85 627.55 387.27 Z"></path> </g> <g id="#010000ff"> <path fill="#010000" opacity="1.00" d=" M 585.76 437.00 C 586.30 436.71 587.37 436.12 587.90 435.83 C 596.94 436.22 605.98 435.85 615.02 436.05 C 615.50 436.10 616.46 436.20 616.94 436.25 L 617.62 437.49 C 607.01 436.85 596.37 437.62 585.76 437.00 Z"></path> </g> <g id="#060504ff"> <path fill="#060504" opacity="1.00" d=" M 113.57 493.51 C 124.86 493.39 136.16 493.45 147.46 493.47 C 147.36 504.68 147.49 515.90 147.39 527.12 C 136.15 515.88 124.99 504.58 113.57 493.51 M 120.76 495.75 C 121.77 498.67 124.70 500.18 126.69 502.37 C 132.45 508.43 138.45 514.25 144.40 520.13 C 144.63 512.00 144.52 503.86 144.46 495.73 C 136.56 495.80 128.66 495.76 120.76 495.75 Z"></path> </g> </svg> 