<?xml version="1.0" encoding="UTF-8"?> <svg xmlns="http://www.w3.org/2000/svg" width="268pt" height="233pt" viewBox="0 0 268 233"> <g id="#010101ff"> <path fill="#010101" opacity="1.00" d=" M 55.00 1.00 C 107.67 1.00 160.33 1.00 213.00 1.00 C 212.99 5.84 213.04 10.68 212.95 15.53 C 208.64 15.49 204.32 15.50 200.00 15.51 C 199.81 27.32 200.57 39.19 199.09 50.95 C 197.31 63.63 192.66 75.93 185.46 86.53 C 178.05 96.71 170.11 106.48 162.58 116.57 C 169.14 124.98 175.61 133.46 182.13 141.89 C 193.06 155.80 199.32 173.29 199.82 190.96 C 200.21 199.80 199.90 208.65 200.00 217.49 C 204.33 217.51 208.66 217.49 213.00 217.50 C 213.00 222.33 213.00 227.16 213.00 232.00 C 160.33 232.00 107.67 232.00 55.00 232.00 C 55.01 227.15 54.95 222.31 55.05 217.47 C 59.37 217.51 63.68 217.50 68.00 217.49 C 68.10 208.31 67.78 199.12 68.18 189.95 C 68.91 172.67 75.08 155.66 85.74 142.03 C 92.29 133.61 98.68 125.06 105.32 116.71 C 97.80 106.02 89.21 96.10 81.73 85.37 C 72.69 71.73 68.14 55.33 67.99 39.02 C 68.00 31.18 68.01 23.34 68.00 15.51 C 63.70 15.51 59.40 15.46 55.10 15.57 C 54.89 10.71 55.04 5.86 55.00 1.00 M 81.51 15.51 C 81.51 23.66 81.47 31.81 81.52 39.96 C 81.70 54.49 86.56 68.94 95.38 80.52 C 103.34 90.90 111.36 101.25 119.34 111.62 C 121.80 114.58 121.23 119.11 118.95 121.99 C 111.16 131.88 103.57 141.92 95.86 151.88 C 89.41 160.06 85.06 169.81 82.93 179.98 C 80.44 192.33 81.89 204.99 81.50 217.49 C 84.61 217.50 87.71 217.50 90.82 217.50 C 105.21 193.83 119.56 170.14 133.98 146.49 C 148.40 170.13 162.79 193.80 177.12 217.50 C 180.24 217.50 183.37 217.50 186.49 217.49 C 186.51 209.67 186.48 201.85 186.51 194.03 C 186.47 178.93 181.46 163.83 172.17 151.90 C 164.34 141.74 156.50 131.59 148.71 121.41 C 146.42 118.64 146.39 114.40 148.70 111.63 C 156.61 101.24 164.63 90.93 172.57 80.55 C 178.10 73.35 182.03 64.98 184.31 56.20 C 187.74 42.91 186.13 29.07 186.49 15.51 C 151.50 15.50 116.50 15.50 81.51 15.51 M 107.01 217.51 C 124.99 217.50 142.96 217.47 160.94 217.53 C 151.98 202.72 142.98 187.94 133.96 173.17 C 125.02 187.97 116.01 202.74 107.01 217.51 Z"></path> </g> </svg> 