<?xml version="1.0" encoding="UTF-8"?> <svg xmlns="http://www.w3.org/2000/svg" width="459pt" height="459pt" viewBox="0 0 459 459"> <g id="#000000ff"> <path fill="#000000" opacity="1.00" d=" M 286.31 130.26 C 290.50 123.03 294.50 115.69 298.77 108.50 C 301.13 109.81 303.44 111.22 305.69 112.70 C 302.33 118.53 298.99 124.38 295.67 130.23 C 297.85 130.24 300.04 130.25 302.22 130.24 C 302.25 132.91 302.26 135.58 302.24 138.24 C 298.59 138.33 294.93 138.07 291.29 138.38 C 290.64 139.04 290.10 139.79 289.66 140.62 C 254.27 202.68 218.82 264.70 183.37 326.72 C 185.57 326.74 187.78 326.75 189.99 326.76 C 190.00 329.42 190.00 332.09 189.99 334.76 C 186.14 334.69 182.28 334.75 178.45 335.10 C 174.52 342.33 170.34 349.41 166.30 356.57 C 163.95 355.22 161.63 353.82 159.34 352.38 C 162.68 346.51 166.05 340.66 169.38 334.78 C 149.09 334.72 128.80 334.76 108.51 334.76 C 108.53 266.57 108.41 198.39 108.57 130.20 C 167.82 130.32 227.06 130.20 286.31 130.26 M 116.52 138.25 C 116.49 146.08 116.49 153.92 116.52 161.76 C 167.12 161.64 217.73 161.97 268.32 161.57 C 269.87 159.12 271.25 156.56 272.63 154.00 C 243.76 154.00 214.88 154.01 186.00 154.00 C 186.00 151.33 186.00 148.67 186.00 146.00 C 216.42 146.00 246.83 145.99 277.24 146.01 C 278.75 143.43 280.32 140.88 281.61 138.18 C 226.58 138.34 171.55 138.21 116.52 138.25 M 116.51 169.76 C 116.50 222.09 116.49 274.42 116.52 326.75 C 134.70 326.75 152.88 326.73 171.06 326.77 C 172.22 326.61 173.99 327.02 174.57 325.67 C 183.31 310.36 192.12 295.09 200.84 279.77 C 177.81 279.74 154.79 279.76 131.76 279.75 C 131.74 245.67 131.75 211.59 131.75 177.50 C 174.27 177.00 216.80 177.30 259.32 177.31 C 260.90 174.86 262.26 172.28 263.68 169.74 C 214.62 169.78 165.57 169.73 116.51 169.76 M 139.76 185.51 C 139.75 214.26 139.74 243.01 139.76 271.76 C 141.72 271.74 143.68 271.73 145.65 271.71 C 165.66 251.46 185.61 231.15 205.53 210.81 C 212.66 218.75 219.29 227.13 226.33 235.14 C 235.75 218.59 245.29 202.10 254.63 185.51 C 216.34 185.49 178.05 185.50 139.76 185.51 M 205.26 222.89 C 189.12 239.08 173.14 255.42 157.14 271.74 C 173.25 271.72 189.35 271.82 205.46 271.69 C 210.98 262.09 216.41 252.42 221.99 242.85 C 216.46 236.15 210.83 229.54 205.26 222.89 Z"></path> <path fill="#000000" opacity="1.00" d=" M 310.01 130.24 C 317.67 130.25 325.33 130.25 332.99 130.24 C 333.00 132.91 333.00 135.57 332.99 138.24 C 325.33 138.25 317.67 138.25 310.01 138.24 C 309.99 135.57 310.00 132.91 310.01 130.24 Z"></path> <path fill="#000000" opacity="1.00" d=" M 340.76 130.25 C 345.92 130.24 351.08 130.24 356.24 130.25 C 356.26 135.50 356.25 140.75 356.25 145.99 C 353.66 146.01 351.07 146.00 348.48 145.98 C 348.48 143.42 348.50 140.87 348.55 138.32 C 345.95 138.25 343.35 138.21 340.76 138.24 C 340.74 135.58 340.74 132.91 340.76 130.25 Z"></path> <path fill="#000000" opacity="1.00" d=" M 124.24 146.01 C 126.83 146.00 129.41 145.99 132.00 146.00 C 132.00 148.67 132.00 151.33 132.00 154.00 C 129.41 154.01 126.83 154.00 124.24 153.99 C 124.24 151.33 124.24 148.67 124.24 146.01 Z"></path> <path fill="#000000" opacity="1.00" d=" M 139.75 146.01 C 142.33 146.00 144.91 145.99 147.50 146.00 C 147.51 148.67 147.50 151.33 147.50 154.00 C 144.91 154.00 142.33 154.00 139.75 153.99 C 139.74 151.33 139.74 148.67 139.75 146.01 Z"></path> <path fill="#000000" opacity="1.00" d=" M 155.24 146.01 C 157.75 145.99 160.25 146.00 162.76 146.02 C 162.75 148.67 162.75 151.33 162.76 153.99 C 160.25 154.00 157.75 154.00 155.24 153.99 C 155.24 151.33 155.24 148.67 155.24 146.01 Z"></path> <path fill="#000000" opacity="1.00" d=" M 348.50 154.00 C 351.08 153.99 353.66 154.00 356.25 154.01 C 356.25 162.25 356.26 170.50 356.24 178.75 C 353.67 178.74 351.09 178.75 348.53 178.76 C 348.47 170.51 348.51 162.26 348.50 154.00 Z"></path> <path fill="#000000" opacity="1.00" d=" M 286.76 161.76 C 302.23 161.74 317.70 161.75 333.17 161.75 C 333.02 164.41 332.94 167.08 332.99 169.75 C 317.58 169.74 302.17 169.75 286.76 169.75 C 286.74 167.08 286.74 164.42 286.76 161.76 Z"></path> <path fill="#000000" opacity="1.00" d=" M 271.25 185.25 C 291.83 185.24 312.40 185.26 332.97 185.24 C 332.95 187.91 333.05 190.58 333.27 193.24 C 312.60 193.25 291.92 193.25 271.25 193.24 C 271.24 190.57 271.24 187.91 271.25 185.25 Z"></path> <path fill="#000000" opacity="1.00" d=" M 348.50 187.00 C 351.08 186.99 353.66 187.00 356.25 187.01 C 356.25 195.25 356.26 203.50 356.24 211.75 C 353.69 211.73 351.14 211.75 348.59 211.81 C 348.38 203.54 348.55 195.27 348.50 187.00 Z"></path> <path fill="#000000" opacity="1.00" d=" M 159.41 193.52 C 167.74 191.23 176.62 197.84 178.18 206.04 C 180.28 215.44 171.60 225.35 162.06 224.77 C 153.14 224.22 145.69 214.94 147.54 206.10 C 148.74 200.13 153.57 195.13 159.41 193.52 M 160.35 201.58 C 153.53 203.23 153.59 214.77 160.46 216.31 C 165.59 218.26 171.44 213.56 170.48 208.09 C 170.40 203.07 164.86 199.95 160.35 201.58 Z"></path> <path fill="#000000" opacity="1.00" d=" M 255.75 209.01 C 281.50 208.99 307.25 209.00 333.00 209.00 C 333.00 211.58 333.00 214.17 332.99 216.75 C 307.24 216.74 281.50 216.76 255.76 216.75 C 255.74 214.16 255.74 211.59 255.75 209.01 Z"></path> <path fill="#000000" opacity="1.00" d=" M 348.50 220.00 C 351.08 219.99 353.66 220.00 356.25 220.01 C 356.25 228.25 356.26 236.50 356.24 244.75 C 353.66 244.75 351.09 244.75 348.51 244.75 C 348.48 236.50 348.50 228.25 348.50 220.00 Z"></path> <path fill="#000000" opacity="1.00" d=" M 248.02 232.49 C 276.31 232.47 304.60 232.58 332.89 232.43 C 333.01 235.12 333.04 237.80 332.99 240.49 C 304.66 240.50 276.33 240.50 248.00 240.49 C 247.99 237.82 248.00 235.16 248.02 232.49 Z"></path> <path fill="#000000" opacity="1.00" d=" M 348.50 253.00 C 351.08 252.99 353.66 253.00 356.25 253.01 C 356.21 261.13 356.32 269.25 356.21 277.37 C 353.94 278.28 351.01 277.51 348.52 277.75 C 348.48 269.50 348.50 261.25 348.50 253.00 Z"></path> <path fill="#000000" opacity="1.00" d=" M 232.50 256.00 C 266.00 256.00 299.50 256.00 333.00 256.00 C 333.00 258.67 333.00 261.33 333.00 264.00 C 299.50 264.00 266.00 264.00 232.50 264.00 C 232.49 261.33 232.49 258.66 232.50 256.00 Z"></path> <path fill="#000000" opacity="1.00" d=" M 217.01 279.75 C 255.73 279.75 294.45 279.75 333.17 279.75 C 333.02 282.33 332.95 284.91 332.99 287.49 C 294.33 287.50 255.66 287.50 217.00 287.49 C 216.99 284.91 217.00 282.33 217.01 279.75 Z"></path> <path fill="#000000" opacity="1.00" d=" M 348.50 286.00 C 351.08 285.99 353.66 286.00 356.25 286.01 C 356.25 294.25 356.26 302.50 356.24 310.75 C 353.65 310.77 351.06 310.75 348.47 310.70 C 348.53 302.47 348.48 294.23 348.50 286.00 Z"></path> <path fill="#000000" opacity="1.00" d=" M 132.03 287.49 C 148.77 287.54 165.52 287.43 182.27 287.55 C 182.25 290.19 182.25 292.84 182.24 295.49 C 165.50 295.51 148.75 295.50 132.00 295.49 C 131.99 292.82 132.00 290.15 132.03 287.49 Z"></path> <path fill="#000000" opacity="1.00" d=" M 132.01 303.24 C 146.16 303.24 160.31 303.27 174.46 303.23 C 174.50 305.90 174.52 308.57 174.49 311.24 C 160.33 311.25 146.17 311.25 132.01 311.24 C 131.99 308.57 132.00 305.91 132.01 303.24 Z"></path> <path fill="#000000" opacity="1.00" d=" M 209.25 303.25 C 250.49 303.24 291.73 303.26 332.98 303.24 C 332.95 305.91 333.05 308.58 333.27 311.24 C 291.93 311.25 250.59 311.25 209.25 311.24 C 209.24 308.57 209.24 305.91 209.25 303.25 Z"></path> <path fill="#000000" opacity="1.00" d=" M 348.48 319.02 C 351.07 319.00 353.66 318.99 356.25 319.01 C 356.25 324.25 356.26 329.50 356.24 334.75 C 351.08 334.75 345.92 334.75 340.76 334.75 C 340.74 332.08 340.74 329.42 340.76 326.76 C 343.30 326.73 345.86 326.74 348.41 326.81 C 348.50 324.21 348.54 321.61 348.48 319.02 Z"></path> <path fill="#000000" opacity="1.00" d=" M 197.25 326.76 C 204.42 326.74 211.59 326.74 218.76 326.76 C 218.75 329.42 218.75 332.08 218.75 334.74 C 211.58 334.75 204.42 334.75 197.25 334.75 C 197.24 332.08 197.24 329.42 197.25 326.76 Z"></path> <path fill="#000000" opacity="1.00" d=" M 226.00 327.05 C 233.16 326.70 240.33 326.57 247.50 326.93 C 247.49 329.52 247.51 332.11 247.52 334.71 C 240.35 334.80 233.18 334.72 226.01 334.75 C 226.00 332.18 225.99 329.62 226.00 327.05 Z"></path> <path fill="#000000" opacity="1.00" d=" M 254.76 326.76 C 261.92 326.74 269.08 326.74 276.24 326.76 C 276.25 329.42 276.25 332.08 276.24 334.75 C 269.08 334.75 261.92 334.75 254.76 334.75 C 254.74 332.08 254.74 329.42 254.76 326.76 Z"></path> <path fill="#000000" opacity="1.00" d=" M 283.51 327.00 C 290.67 327.00 297.83 327.00 305.00 327.00 C 305.01 329.59 305.00 332.17 304.98 334.76 C 297.80 334.69 290.63 334.85 283.45 334.67 C 283.49 332.11 283.51 329.56 283.51 327.00 Z"></path> <path fill="#000000" opacity="1.00" d=" M 312.22 326.81 C 319.40 326.68 326.58 326.77 333.75 326.76 C 333.75 329.42 333.75 332.08 333.75 334.75 C 326.58 334.75 319.42 334.75 312.25 334.75 C 312.25 332.10 312.24 329.45 312.22 326.81 Z"></path> </g> </svg> 