<?xml version="1.0" encoding="UTF-8"?> <svg xmlns="http://www.w3.org/2000/svg" width="504pt" height="513pt" viewBox="0 0 504 513"> <g id="#1b1a19ff"> <path fill="#1b1a19" opacity="1.00" d=" M 361.76 0.00 L 441.25 0.00 C 441.03 22.26 441.73 44.50 441.44 66.76 C 415.70 67.19 389.95 66.87 364.21 67.22 C 359.43 71.73 355.04 76.64 350.31 81.19 C 350.14 54.30 349.88 27.42 350.00 0.52 C 353.92 0.58 357.86 0.54 361.76 0.00 M 393.52 29.61 C 388.77 31.02 387.03 37.89 390.79 41.22 C 394.25 45.19 401.60 43.14 402.47 37.92 C 404.00 32.86 398.43 27.74 393.52 29.61 M 416.48 29.54 C 411.29 31.03 409.98 38.65 414.37 41.78 C 418.34 45.28 425.21 42.21 425.53 37.02 C 426.31 32.20 421.06 27.81 416.48 29.54 M 370.12 30.13 C 365.22 32.41 365.19 40.27 370.08 42.58 C 374.65 45.16 380.81 41.22 380.29 35.98 C 380.20 31.05 374.43 27.81 370.12 30.13 Z"></path> <path fill="#1b1a19" opacity="1.00" d=" M 4.24 24.06 C 25.41 23.77 46.58 24.47 67.75 24.25 C 67.45 43.21 67.59 62.17 67.39 81.13 C 63.99 77.99 60.97 74.46 57.64 71.24 C 39.83 71.07 22.01 71.63 4.21 70.93 C 4.29 55.31 4.23 39.69 4.24 24.06 M 17.32 45.40 C 14.23 47.38 14.64 52.70 18.09 54.06 C 21.29 55.82 25.48 52.44 24.79 48.93 C 24.65 45.43 20.16 43.24 17.32 45.40 M 33.29 45.36 C 30.09 47.37 30.52 52.83 34.11 54.18 C 37.72 55.88 42.03 51.76 40.51 48.07 C 39.71 45.07 35.87 43.68 33.29 45.36 M 49.19 45.23 C 45.47 47.00 45.96 53.31 50.00 54.37 C 53.63 55.67 57.42 51.56 56.00 48.04 C 55.18 45.27 51.73 43.77 49.19 45.23 Z"></path> <path fill="#1b1a19" opacity="1.00" d=" M 262.99 49.15 C 267.88 44.65 274.61 43.07 281.01 42.20 C 288.78 41.15 297.27 45.25 300.28 52.69 C 302.63 58.76 305.48 64.62 308.46 70.41 C 312.56 77.85 310.90 86.86 314.53 94.49 C 316.33 100.16 321.56 103.85 323.44 109.43 C 324.68 115.74 321.75 121.84 320.61 127.95 C 325.31 131.11 330.60 134.43 332.61 140.05 C 337.24 151.89 339.70 164.43 342.25 176.85 C 343.25 182.55 344.40 188.25 344.76 194.03 C 345.31 197.40 341.81 199.31 339.07 199.99 C 330.74 201.93 322.14 200.41 313.79 199.42 C 317.13 209.93 319.31 220.77 322.38 231.36 C 323.67 236.22 325.13 241.05 326.06 245.99 C 326.84 248.67 324.45 251.18 325.65 253.85 C 329.34 267.95 330.04 282.67 328.59 297.13 C 326.28 321.05 323.33 344.95 323.26 369.01 C 323.72 399.88 319.29 430.52 315.54 461.09 C 317.95 464.22 320.17 467.91 319.80 472.04 C 319.45 476.35 319.47 480.68 319.52 485.01 C 319.24 486.44 320.23 489.12 317.59 488.86 C 317.52 486.83 317.52 484.82 317.48 482.81 C 316.09 487.55 315.53 492.65 312.94 496.96 C 311.12 500.09 307.19 500.58 303.96 501.12 C 299.31 501.68 294.14 502.10 290.01 499.46 C 293.57 490.57 299.25 482.67 302.72 473.74 C 304.28 467.31 306.04 460.67 305.04 454.01 C 303.49 434.16 301.86 414.33 300.39 394.48 C 300.07 382.96 300.44 371.42 299.81 359.91 C 296.16 336.41 295.72 312.56 293.12 288.95 C 292.47 285.02 291.43 280.41 287.82 278.15 C 285.34 277.00 284.61 280.32 284.04 282.03 C 278.16 305.17 274.03 328.71 268.90 352.02 C 266.96 358.62 269.05 365.42 269.98 372.01 C 272.74 385.81 274.58 399.78 277.65 413.52 C 280.92 428.84 284.42 444.12 287.63 459.46 C 290.74 462.56 293.64 466.36 293.67 470.97 C 293.51 476.81 293.46 482.66 293.49 488.51 L 291.25 488.52 C 291.26 486.65 291.29 484.80 291.30 482.95 C 289.55 488.34 289.42 494.89 284.99 498.96 C 278.57 502.00 270.67 502.47 264.01 499.88 C 267.42 488.78 276.21 479.77 277.92 468.04 C 278.66 464.27 276.81 460.74 275.69 457.25 C 267.98 436.17 259.39 415.41 250.22 394.92 C 245.65 384.19 240.90 373.47 237.69 362.23 C 236.15 357.31 237.31 352.18 237.74 347.19 C 239.79 328.80 241.73 310.39 244.41 292.08 C 246.47 279.64 249.01 267.29 251.18 254.87 C 250.50 253.61 248.95 252.56 249.20 250.98 C 250.74 236.83 252.89 222.71 253.29 208.46 C 246.88 209.79 240.56 211.52 234.13 212.75 C 229.41 213.64 223.86 212.03 221.42 207.64 C 218.34 202.18 219.29 195.61 220.72 189.81 C 224.53 174.15 228.59 158.54 233.35 143.13 C 234.60 139.73 235.41 135.78 238.43 133.43 C 245.42 127.85 253.15 123.30 261.00 119.05 C 263.72 117.79 262.86 114.25 262.69 111.88 C 259.86 97.35 254.97 82.97 255.52 67.98 C 255.81 61.15 257.77 53.89 262.99 49.15 M 265.15 78.23 C 262.72 82.31 264.99 86.97 266.13 91.08 C 267.65 96.24 271.37 100.24 275.24 103.78 C 280.33 105.94 286.56 104.72 290.76 101.15 C 292.43 96.59 296.14 92.91 296.92 87.92 C 298.70 83.30 297.83 78.11 294.83 74.20 C 290.69 69.15 286.01 64.58 281.68 59.71 C 273.14 62.23 268.76 70.80 265.15 78.23 M 288.52 103.68 C 285.65 106.87 280.89 107.81 276.99 106.06 C 276.12 105.41 275.23 104.78 274.35 104.16 C 274.33 108.87 273.62 113.53 272.31 118.05 C 272.54 121.60 272.51 125.42 274.34 128.60 C 276.58 132.74 279.09 136.73 281.65 140.68 C 288.09 134.39 292.48 126.36 296.54 118.41 C 294.81 117.74 293.09 117.06 291.37 116.36 C 290.64 111.60 290.40 106.79 290.62 101.98 C 290.09 102.40 289.04 103.26 288.52 103.68 M 290.11 134.08 C 287.56 137.71 284.96 141.54 280.97 143.71 C 278.54 140.19 276.26 136.56 274.18 132.82 C 274.95 136.42 276.44 140.30 274.80 143.89 C 272.14 149.90 264.43 152.83 258.36 150.52 C 254.28 148.85 251.74 144.39 251.96 140.04 C 251.98 133.61 255.66 128.01 258.99 122.78 C 252.55 126.22 246.42 130.24 240.58 134.62 C 237.28 136.85 236.60 141.05 235.32 144.53 C 231.02 158.59 227.19 172.80 223.75 187.09 C 222.28 193.11 220.36 199.79 223.03 205.75 C 224.62 209.53 229.08 211.09 232.92 210.55 C 239.66 209.53 246.20 207.49 252.89 206.23 C 258.61 206.66 264.28 204.98 269.63 203.11 C 266.19 202.78 262.71 203.17 259.29 202.68 C 258.63 199.51 261.86 196.81 263.09 194.02 C 264.50 190.68 269.73 193.54 271.01 190.03 C 273.61 186.85 272.14 182.42 274.27 179.09 C 274.09 176.02 273.66 172.95 273.69 169.87 C 273.50 168.49 274.85 167.60 276.08 167.59 C 280.64 167.33 285.25 166.99 289.81 167.25 C 292.71 168.93 291.08 173.01 291.56 175.74 C 294.04 177.73 296.64 179.61 299.64 180.76 C 299.69 184.41 300.14 188.08 299.75 191.72 C 297.72 192.96 294.81 191.69 292.41 191.76 C 291.29 195.05 290.19 199.51 286.25 200.34 C 281.10 202.34 275.58 202.85 270.13 203.25 C 265.57 206.59 260.40 208.94 255.58 211.86 C 254.69 225.23 252.82 238.49 251.54 251.82 C 262.79 258.23 276.24 259.05 288.86 257.70 C 300.96 256.10 312.96 253.02 324.13 248.09 C 320.98 233.24 316.31 218.74 312.92 203.94 C 306.23 200.95 299.35 197.86 294.06 192.64 C 298.80 193.70 303.39 195.32 308.08 196.59 C 310.99 197.51 314.07 196.76 317.05 197.21 C 323.60 198.47 330.37 198.98 337.00 198.08 C 338.87 197.88 340.63 197.09 342.12 195.95 C 342.73 192.94 342.05 189.85 341.67 186.85 C 339.37 173.27 336.68 159.70 332.53 146.55 C 331.07 142.37 329.83 137.70 326.15 134.87 C 318.09 128.02 308.34 123.62 298.73 119.42 C 296.05 124.42 293.33 129.41 290.11 134.08 M 275.93 170.88 C 274.14 172.71 277.01 173.76 278.56 173.61 C 278.88 171.82 277.97 169.41 275.93 170.88 M 291.40 186.11 C 292.24 187.20 293.06 188.31 293.85 189.44 C 295.12 189.68 296.39 189.93 297.67 190.17 C 297.52 187.54 297.39 184.92 297.20 182.30 C 295.02 181.19 293.01 179.80 291.15 178.22 C 291.36 180.84 292.06 183.49 291.40 186.11 M 274.85 188.91 C 273.30 189.61 272.97 191.38 272.31 192.77 C 270.21 193.90 267.84 194.27 265.56 194.88 C 264.01 196.64 263.04 198.87 261.36 200.55 C 270.05 201.36 279.27 201.04 287.33 197.33 C 287.74 195.60 288.19 193.90 289.95 193.03 C 288.33 192.79 287.09 192.02 286.62 190.44 C 288.28 190.12 289.93 189.79 291.59 189.44 C 288.52 187.58 284.79 188.85 281.43 188.50 C 282.31 184.75 287.38 185.55 290.01 183.39 C 284.65 184.17 279.59 186.37 274.85 188.91 M 281.19 463.20 C 280.36 466.04 280.10 469.01 279.45 471.90 C 278.09 478.45 273.79 483.80 271.34 489.93 C 275.28 490.24 280.51 490.79 282.88 486.83 C 287.14 479.38 288.89 470.31 287.06 461.87 C 285.11 462.09 282.62 461.49 281.19 463.20 M 307.27 463.18 C 306.23 467.53 305.99 472.09 304.25 476.25 C 302.31 480.96 299.38 485.20 297.47 489.93 C 301.58 490.30 307.16 490.77 309.31 486.31 C 313.26 478.97 315.20 470.05 313.12 461.84 C 311.19 462.10 308.72 461.55 307.27 463.18 Z"></path> <path fill="#1b1a19" opacity="1.00" d=" M 106.94 55.93 C 118.06 46.51 136.57 48.04 146.16 58.93 C 148.84 62.12 150.48 66.06 151.53 70.05 C 152.77 75.03 150.16 80.10 151.60 85.06 C 152.31 89.06 154.46 92.87 154.11 97.00 C 152.73 97.87 151.21 98.49 149.74 99.17 C 148.32 103.35 147.48 108.05 144.36 111.36 C 141.57 113.80 137.61 112.41 134.33 112.25 C 134.76 115.67 135.14 119.10 135.50 122.53 C 138.67 124.00 142.17 124.47 145.41 125.69 C 151.23 129.65 156.80 134.66 159.46 141.35 C 162.11 147.51 162.61 154.32 162.45 160.96 C 162.16 175.47 161.72 189.98 162.08 204.50 C 168.83 199.13 175.49 193.64 182.18 188.19 C 183.43 187.30 185.30 185.36 186.57 187.36 C 195.65 198.32 204.50 209.48 213.49 220.52 C 215.73 223.37 218.24 226.02 220.19 229.09 C 219.61 231.30 217.31 232.34 215.75 233.79 C 206.19 241.48 196.69 249.24 187.17 256.98 C 187.60 258.29 188.42 259.53 188.38 260.96 C 186.45 266.11 182.60 271.05 176.91 272.10 C 174.73 273.19 173.06 270.97 171.36 270.01 C 168.22 272.34 165.04 274.66 162.22 277.37 C 162.06 278.56 162.19 279.76 162.30 280.95 C 164.25 297.91 165.79 314.93 166.94 331.97 C 167.12 333.75 166.80 335.53 166.23 337.23 C 166.91 342.84 168.38 348.34 168.80 353.98 C 169.02 361.05 167.76 368.06 166.86 375.05 C 166.65 380.34 166.96 385.66 167.40 390.94 C 168.79 412.98 170.68 434.98 172.65 456.97 C 172.53 460.83 175.52 463.55 177.60 466.44 C 182.54 473.31 190.83 476.74 195.87 483.51 C 199.58 484.62 204.47 485.05 206.41 488.92 C 207.74 492.70 203.25 493.80 200.49 494.26 C 193.46 495.26 186.12 495.45 179.21 493.67 C 173.76 490.23 169.87 484.56 163.73 482.08 C 160.77 485.61 161.60 490.49 161.77 494.73 C 160.61 494.73 159.45 494.75 158.29 494.77 C 157.82 490.50 157.25 486.23 156.91 481.95 C 156.57 475.52 159.39 469.42 159.83 463.14 C 152.29 443.65 146.10 423.59 141.69 403.16 C 139.97 396.18 141.17 389.02 141.57 381.96 C 142.37 373.65 142.13 365.25 140.94 356.99 C 140.26 352.48 138.11 348.39 136.40 344.22 C 125.09 346.21 113.71 347.86 102.23 348.50 C 100.72 357.50 99.04 366.53 95.78 375.09 C 92.92 388.55 92.64 402.43 89.99 415.94 C 87.41 433.49 86.63 451.24 85.01 468.89 C 84.05 475.41 87.83 481.15 89.76 487.11 C 92.55 493.28 95.53 500.08 93.72 506.98 C 92.81 510.23 89.05 511.13 86.16 511.78 C 81.65 512.20 76.06 513.18 72.57 509.52 C 68.08 503.81 67.26 495.93 68.95 489.01 C 69.85 482.99 71.92 477.09 71.92 470.97 C 69.41 448.29 65.88 425.71 64.13 402.95 C 63.27 391.72 66.58 380.75 70.60 370.41 C 73.48 363.62 74.15 356.21 75.35 349.01 C 73.91 349.00 72.48 349.00 71.05 349.00 C 70.40 332.64 70.87 316.27 71.37 299.92 C 71.29 296.10 69.20 292.72 68.23 289.10 C 66.02 282.92 67.30 276.30 67.33 269.91 C 67.09 254.29 64.94 238.61 66.91 223.03 C 67.84 213.83 69.55 204.74 71.68 195.76 C 73.68 184.55 73.75 173.11 75.59 161.88 C 76.64 152.35 77.35 142.41 81.83 133.75 C 85.57 126.96 93.12 123.63 100.47 122.50 C 102.24 118.00 101.99 112.76 101.69 107.94 C 100.72 96.97 99.37 86.01 99.31 74.98 C 99.41 68.02 101.49 60.61 106.94 55.93 M 149.59 72.41 C 143.06 77.74 135.49 81.79 127.35 84.03 C 124.80 90.98 122.60 98.04 120.33 105.08 C 124.21 108.01 128.95 109.44 133.57 110.75 C 136.52 109.38 140.06 111.19 142.83 109.63 C 145.66 106.23 146.56 101.72 147.66 97.55 C 149.14 96.87 150.63 96.22 152.13 95.58 C 151.29 92.56 150.35 89.58 149.56 86.54 C 148.31 81.91 149.31 77.10 149.59 72.41 M 119.80 106.68 C 118.46 111.90 117.53 117.21 117.78 122.62 C 117.09 122.78 115.71 123.09 115.01 123.25 C 116.60 129.38 118.64 136.08 123.98 140.01 C 127.95 142.80 135.09 141.93 136.86 136.93 C 137.82 131.97 135.16 127.35 133.31 122.94 C 132.85 120.30 132.80 117.61 132.42 114.96 C 128.82 112.69 124.99 110.60 122.16 107.35 C 121.37 107.11 120.59 106.89 119.80 106.68 M 103.03 124.54 C 106.38 132.13 103.78 140.51 101.77 148.10 C 98.98 156.72 95.72 165.23 93.86 174.12 C 95.20 178.14 97.61 181.74 99.33 185.61 C 101.67 190.99 106.10 195.73 105.80 201.97 C 106.51 212.59 100.90 222.00 96.44 231.20 C 108.50 233.29 120.80 233.55 133.01 233.46 C 139.55 233.10 146.58 233.65 152.52 230.42 C 152.09 223.93 152.63 217.45 153.01 210.98 C 153.28 199.61 155.37 188.35 155.22 176.97 C 155.22 171.32 159.05 166.57 159.30 160.95 C 160.07 155.76 157.93 150.81 155.50 146.36 C 152.11 140.14 150.27 132.77 144.78 127.94 C 142.41 126.68 139.60 126.57 137.07 125.74 C 138.79 129.95 140.40 134.92 138.29 139.28 C 134.94 144.70 126.45 145.36 121.80 141.24 C 116.61 136.90 114.37 130.14 112.81 123.78 C 109.54 124.00 106.29 124.29 103.03 124.54 M 82.54 137.56 C 79.40 145.36 78.80 153.82 77.85 162.09 C 76.23 172.83 75.82 183.71 74.30 194.45 C 72.46 202.62 70.62 210.81 69.64 219.13 C 67.79 231.67 68.74 244.35 68.99 256.96 C 69.22 263.27 70.16 269.61 69.27 275.92 C 67.97 284.15 71.41 292.14 74.80 299.44 C 76.13 292.36 72.54 285.26 74.52 278.16 C 77.10 278.69 77.88 281.20 78.93 283.24 C 78.65 275.30 74.28 267.96 75.38 259.93 C 77.93 244.23 79.98 228.40 83.84 212.95 C 85.57 204.52 84.99 195.72 87.59 187.45 C 91.12 175.07 94.16 162.53 98.65 150.45 C 100.81 143.52 103.00 136.27 102.09 128.92 C 101.87 127.37 100.77 125.33 98.94 125.51 C 91.84 126.06 85.03 130.80 82.54 137.56 M 154.11 137.78 C 155.38 141.34 157.11 144.72 159.01 147.99 C 157.86 144.38 156.34 140.86 154.11 137.78 M 159.70 168.53 C 158.79 170.95 157.77 173.40 157.68 176.02 C 157.50 187.44 155.94 198.78 155.19 210.17 C 156.83 208.83 158.47 207.49 160.08 206.12 C 159.17 193.60 160.66 181.04 159.70 168.53 M 92.61 177.84 C 91.20 183.30 89.40 188.66 88.34 194.21 C 87.37 201.43 87.31 208.81 85.48 215.90 C 81.80 231.08 80.05 246.62 77.19 261.95 C 79.61 255.17 82.28 248.42 86.27 242.39 C 88.88 237.96 92.46 234.17 94.70 229.52 C 97.73 223.45 100.96 217.38 102.75 210.80 C 103.63 205.00 104.36 198.40 100.85 193.28 C 97.75 188.32 95.78 182.75 92.61 177.84 M 155.20 213.24 C 154.54 218.47 154.93 223.77 154.75 229.02 C 153.96 235.56 157.27 241.60 158.16 247.96 C 159.47 256.88 160.68 265.83 161.57 274.81 C 164.23 272.66 166.85 270.48 169.52 268.35 C 168.17 265.92 166.66 262.92 168.81 260.45 C 169.03 258.47 169.90 256.76 171.58 255.66 C 171.88 254.67 172.17 253.69 172.48 252.71 C 174.62 252.22 176.69 251.36 178.90 251.24 C 181.42 251.96 183.32 253.89 185.32 255.48 C 196.12 246.85 206.72 237.97 217.59 229.42 C 206.90 215.78 195.83 202.43 184.95 188.94 C 175.05 197.07 164.95 204.96 155.20 213.24 M 173.92 254.52 C 174.19 255.37 174.71 257.07 174.98 257.93 C 174.12 258.09 172.41 258.41 171.56 258.56 C 171.79 259.88 172.20 261.15 172.52 262.45 C 171.78 262.59 170.31 262.87 169.58 263.01 C 170.53 266.15 172.86 268.52 175.61 270.20 C 177.73 269.09 180.60 268.99 181.73 266.56 C 182.51 266.05 183.29 265.54 184.07 265.04 C 184.12 264.37 184.22 263.03 184.28 262.36 C 184.84 262.00 185.97 261.28 186.53 260.91 C 184.75 257.79 181.96 255.39 178.93 253.53 C 177.86 256.02 175.90 255.40 173.92 254.52 M 138.63 343.72 C 140.71 348.35 142.86 353.04 143.42 358.15 C 144.38 366.06 144.03 374.07 143.87 382.02 C 143.83 388.30 141.99 394.62 143.60 400.84 C 147.66 420.69 153.54 440.18 160.79 459.09 C 163.16 463.39 161.63 468.35 160.05 472.64 C 167.50 474.44 174.38 477.95 181.10 481.54 C 184.58 483.59 188.73 483.11 192.59 482.99 C 186.94 477.44 179.65 473.63 175.12 466.98 C 173.22 464.23 170.35 461.66 170.39 458.05 C 168.20 431.04 165.59 404.04 164.35 376.96 C 164.52 371.57 166.30 366.36 166.21 360.94 C 167.14 352.91 165.10 345.03 163.83 337.17 C 155.61 339.98 147.13 341.97 138.63 343.72 M 77.63 349.27 C 76.64 355.20 76.02 361.23 74.29 367.01 C 71.03 375.82 67.43 384.68 66.55 394.13 C 65.79 399.41 66.68 404.72 66.96 410.01 C 68.70 427.76 71.15 445.43 73.32 463.14 C 73.74 466.71 74.31 470.32 74.14 473.93 C 73.38 479.67 71.76 485.26 71.00 490.99 C 72.88 495.28 77.08 499.23 82.07 498.78 C 86.03 498.86 88.58 494.71 88.68 491.14 C 87.06 484.66 82.97 478.85 82.65 472.06 C 83.92 453.65 85.21 435.23 87.48 416.91 C 90.11 403.74 90.69 390.29 92.97 377.07 C 93.35 373.83 94.92 370.93 95.82 367.84 C 97.65 361.57 98.75 355.12 99.87 348.69 C 92.46 349.12 85.05 349.31 77.63 349.27 Z"></path> <path fill="#1b1a19" opacity="1.00" d=" M 385.17 112.00 C 392.99 109.30 402.37 113.30 405.35 121.13 C 409.22 129.75 403.52 140.62 394.44 142.78 C 385.09 145.69 374.69 137.62 374.42 128.02 C 373.93 121.06 378.62 114.27 385.17 112.00 M 386.19 114.19 C 379.42 116.22 375.26 124.00 377.28 130.77 C 378.85 137.56 386.15 142.04 392.93 140.69 C 400.18 139.66 405.31 132.08 404.00 124.95 C 402.97 116.90 393.81 111.39 386.19 114.19 Z"></path> <path fill="#1b1a19" opacity="1.00" d=" M 8.95 128.77 C 19.15 128.72 29.34 128.80 39.54 128.73 C 39.75 139.10 39.62 149.48 39.61 159.85 C 29.45 149.43 18.93 139.36 8.95 128.77 M 15.03 131.44 C 22.52 138.60 29.55 146.22 37.02 153.41 C 37.07 146.06 37.09 138.71 37.01 131.37 C 29.68 131.43 22.35 131.29 15.03 131.44 Z"></path> <path fill="#1b1a19" opacity="1.00" d=" M 245.29 158.86 C 245.83 158.95 246.90 159.12 247.44 159.21 C 247.82 170.99 251.26 182.36 253.79 193.78 C 249.41 195.31 244.53 194.66 239.96 195.28 C 237.53 195.75 235.51 193.49 236.41 191.15 C 239.44 180.41 242.38 169.64 245.29 158.86 M 245.49 166.60 C 243.36 175.51 240.40 184.22 238.49 193.18 C 242.72 192.97 246.93 192.46 251.15 192.10 C 248.81 183.70 247.20 175.14 245.49 166.60 Z"></path> <path fill="#1b1a19" opacity="1.00" d=" M 315.27 158.75 C 317.68 157.65 317.98 160.58 318.82 162.11 C 321.40 168.56 324.49 174.83 326.47 181.51 C 326.89 182.78 326.59 184.11 326.48 185.41 C 321.03 186.55 315.48 185.16 310.22 183.74 C 311.04 179.36 313.18 175.35 313.97 170.95 C 314.96 166.95 315.02 162.83 315.27 158.75 M 317.29 164.64 C 316.72 170.66 314.99 176.47 312.89 182.11 C 316.73 183.02 320.64 183.65 324.60 183.63 C 322.93 177.04 320.04 170.84 317.29 164.64 Z"></path> <path fill="#1b1a19" opacity="1.00" d=" M 429.84 214.92 C 433.38 213.51 437.20 212.70 441.02 212.78 C 451.03 212.83 461.04 212.80 471.05 212.80 C 475.81 212.79 480.98 214.24 483.83 218.35 C 486.61 221.39 486.74 225.64 486.87 229.52 C 477.59 229.61 468.31 229.46 459.04 229.60 C 452.22 240.54 445.05 251.25 438.24 262.20 C 435.41 266.47 432.76 271.63 427.62 273.45 C 422.99 275.46 417.84 274.64 412.94 274.79 C 402.72 274.67 392.47 275.04 382.26 274.62 C 375.04 273.10 370.80 265.46 371.46 258.40 C 380.76 258.52 390.06 258.33 399.35 258.51 C 406.83 247.50 413.76 236.13 420.99 224.96 C 423.32 221.16 425.81 217.10 429.84 214.92 M 426.44 221.41 C 418.10 233.63 410.64 246.45 402.14 258.57 C 404.95 258.44 407.77 258.44 410.59 258.32 C 410.60 261.19 410.45 264.33 412.09 266.85 C 414.73 270.99 420.23 273.67 425.00 271.69 C 431.36 270.02 434.32 263.59 437.57 258.51 C 443.79 248.92 449.72 239.15 456.01 229.61 C 453.26 229.54 450.52 229.54 447.77 229.50 C 447.80 226.05 447.86 222.25 445.28 219.59 C 440.72 213.30 430.15 215.10 426.44 221.41 Z"></path> <path fill="#1b1a19" opacity="1.00" d=" M 425.34 242.50 C 426.03 239.20 430.03 239.27 432.46 240.51 C 433.67 242.76 434.25 246.06 431.62 247.57 C 428.39 250.29 423.69 246.13 425.34 242.50 Z"></path> <path fill="#1b1a19" opacity="1.00" d=" M 17.40 318.51 C 21.44 316.58 26.80 319.40 27.16 323.95 C 28.08 328.92 22.38 333.39 17.78 331.23 C 12.20 329.50 12.02 320.64 17.40 318.51 Z"></path> <path fill="#1b1a19" opacity="1.00" d=" M 388.39 370.69 C 391.65 368.76 395.57 369.34 399.17 369.60 C 402.30 370.85 405.70 373.19 405.35 377.04 C 405.35 400.68 405.37 424.33 405.35 447.97 C 405.59 452.85 400.20 455.45 395.99 455.43 C 391.75 455.76 386.33 454.54 384.66 450.15 C 384.45 425.41 384.63 400.66 384.57 375.92 C 384.40 373.52 386.47 371.73 388.39 370.69 M 387.94 374.00 C 386.53 375.03 387.21 377.35 388.65 378.02 C 392.18 380.16 397.00 380.28 400.65 378.33 C 401.64 377.50 403.36 376.37 402.49 374.84 C 400.26 371.94 396.27 371.77 392.94 371.63 C 391.24 372.33 389.29 372.67 387.94 374.00 M 387.20 447.98 C 386.70 452.43 392.28 452.84 395.48 452.99 C 395.48 429.46 395.43 405.93 395.51 382.40 C 392.64 382.13 389.80 381.59 387.21 380.29 C 387.20 402.85 387.20 425.42 387.20 447.98 Z"></path> </g> <g id="#ffffffff"> <path fill="#ffffff" opacity="1.00" d=" M 154.11 137.78 C 156.34 140.86 157.86 144.38 159.01 147.99 C 157.11 144.72 155.38 141.34 154.11 137.78 Z"></path> </g> </svg> 