<?xml version="1.0" encoding="UTF-8"?> <svg xmlns="http://www.w3.org/2000/svg" width="184pt" height="184pt" viewBox="0 0 184 184"> <g id="#010101ff"> <path fill="#010101" opacity="1.00" d=" M 90.45 0.00 L 94.44 0.00 C 113.21 0.66 131.83 6.80 146.88 18.12 C 168.57 33.97 182.48 59.73 184.00 86.54 L 184.00 97.49 C 182.65 119.97 172.83 141.86 156.62 157.55 C 140.23 173.97 117.37 183.35 94.24 184.00 L 90.65 184.00 C 80.14 183.59 69.64 181.86 59.80 178.08 C 36.41 169.38 16.96 150.70 7.41 127.63 C -0.63 108.51 -1.98 86.65 3.79 66.71 C 9.01 48.15 20.33 31.39 35.54 19.54 C 51.08 7.27 70.68 0.49 90.45 0.00 M 80.54 10.78 C 54.45 14.32 30.76 31.51 18.98 55.01 C 11.43 69.66 8.76 86.64 10.88 102.95 C 13.55 123.43 24.42 142.68 40.49 155.64 C 53.56 166.37 70.06 172.81 86.93 173.86 C 105.31 175.08 124.08 169.86 139.10 159.17 C 154.31 148.66 165.71 132.78 170.90 115.04 C 175.74 98.86 175.27 81.20 169.75 65.25 C 162.91 45.31 148.05 28.25 129.19 18.81 C 114.33 11.16 97.07 8.40 80.54 10.78 Z"></path> <path fill="#010101" opacity="1.00" d=" M 131.04 55.94 C 132.55 53.64 136.02 53.13 138.13 54.89 C 140.23 56.51 140.47 59.67 138.81 61.70 C 122.58 83.49 106.31 105.26 90.03 127.00 C 88.49 129.72 84.35 130.17 82.36 127.74 C 71.69 117.04 61.27 106.09 50.70 95.29 C 47.92 92.82 49.25 87.68 52.97 87.03 C 56.35 86.27 58.46 89.43 60.46 91.54 C 64.95 96.06 69.31 100.71 73.80 105.24 C 77.73 109.64 82.33 113.45 85.79 118.25 C 85.89 115.74 87.73 113.95 89.13 112.06 C 103.09 93.35 117.08 74.65 131.04 55.94 Z"></path> </g> </svg> 