<?xml version="1.0" encoding="UTF-8"?> <svg xmlns="http://www.w3.org/2000/svg" width="470pt" height="478pt" viewBox="0 0 470 478"> <g id="#1b1a19ff"> <path fill="#1b1a19" opacity="1.00" d=" M 216.57 8.64 C 225.30 1.78 237.27 -0.85 248.00 2.21 C 255.01 4.00 261.85 8.09 265.17 14.75 C 270.06 24.14 269.05 35.16 267.24 45.22 C 266.31 57.01 264.74 69.72 256.77 79.07 C 256.59 79.97 256.42 80.86 256.25 81.76 C 256.31 79.32 255.76 76.57 257.34 74.49 C 261.99 67.47 263.48 58.99 264.42 50.79 C 253.46 45.32 245.63 35.46 238.82 25.57 C 231.83 32.39 225.84 40.33 221.52 49.10 C 221.91 56.07 224.68 62.92 227.79 69.17 C 232.04 76.67 230.90 85.66 229.54 93.78 C 228.73 94.15 227.92 94.52 227.11 94.89 C 226.68 101.63 226.79 109.85 232.66 114.37 C 239.43 118.92 249.62 116.91 254.52 110.48 C 258.42 105.54 259.96 99.20 260.38 93.03 C 268.13 94.17 275.96 96.17 282.56 100.56 C 284.25 101.57 285.85 103.03 287.95 103.02 C 298.98 104.08 310.11 104.28 321.04 106.26 C 318.28 138.35 315.07 170.40 311.95 202.46 C 338.14 202.60 364.33 202.36 390.52 202.58 C 390.43 240.30 390.61 278.02 390.42 315.74 C 395.49 316.05 400.56 317.23 404.69 320.33 C 409.08 323.58 414.56 325.21 420.02 324.50 C 427.05 324.19 431.70 317.89 438.43 316.63 C 445.01 314.97 452.07 316.65 457.53 320.57 C 461.17 323.22 465.52 324.58 470.00 324.83 L 470.00 327.16 C 464.76 327.32 459.93 325.17 455.72 322.24 C 450.89 318.88 444.72 317.55 438.98 319.00 C 433.03 320.17 428.81 325.22 422.94 326.56 C 419.34 327.25 415.61 327.24 412.02 326.54 C 406.36 325.35 402.33 320.59 396.79 319.08 C 394.75 318.54 392.63 318.51 390.54 318.36 C 390.46 324.04 390.56 329.73 390.42 335.42 C 395.59 335.76 400.82 336.93 404.99 340.19 C 410.39 344.28 417.73 345.39 424.15 343.29 C 428.18 341.98 431.24 338.84 435.14 337.28 C 442.31 334.42 450.88 335.38 457.11 340.00 C 460.84 342.82 465.37 344.19 470.00 344.52 L 470.00 347.04 C 464.89 346.75 459.98 345.09 455.83 342.09 C 451.25 338.80 445.46 337.40 439.90 338.51 C 434.22 339.29 430.20 343.89 424.89 345.60 C 417.81 348.05 409.66 346.78 403.68 342.27 C 399.93 339.38 395.30 338.09 390.62 338.00 C 390.36 372.33 390.56 406.68 390.52 441.02 C 390.35 443.69 391.02 446.58 390.07 449.13 C 387.72 449.35 385.36 449.27 383.01 449.26 C 382.96 412.77 383.06 376.29 382.96 339.80 C 377.48 343.40 371.70 346.93 364.93 347.07 C 364.98 346.41 365.10 345.10 365.16 344.45 C 371.98 344.48 377.40 340.23 383.00 336.99 C 382.93 331.32 383.22 325.64 382.75 319.98 C 377.39 323.62 371.72 327.58 364.90 327.13 C 364.98 326.49 365.13 325.22 365.20 324.58 C 372.02 325.10 377.21 320.37 382.91 317.54 C 383.12 282.61 382.95 247.69 382.99 212.76 C 359.01 212.74 335.02 212.74 311.04 212.76 C 308.46 239.90 305.89 267.04 303.30 294.18 C 302.56 294.29 301.08 294.52 300.34 294.64 C 305.31 328.85 310.60 363.01 315.67 397.20 C 317.71 412.01 320.52 426.72 322.02 441.59 C 320.52 441.66 319.03 441.74 317.55 441.82 C 310.38 392.67 302.83 343.57 295.50 294.44 C 287.98 294.35 280.47 294.48 272.95 294.35 C 275.33 313.99 278.72 333.51 281.53 353.10 C 285.97 382.48 290.26 411.89 294.84 441.25 C 293.26 441.53 291.68 441.80 290.11 442.08 C 282.74 392.83 275.48 343.56 267.84 294.35 C 260.97 294.45 254.10 294.43 247.23 294.36 C 249.33 309.90 251.62 325.59 250.41 341.30 C 248.71 359.02 245.40 376.53 242.41 394.05 C 245.12 396.11 248.13 398.04 249.86 401.08 C 253.43 407.62 258.21 413.41 262.18 419.70 C 263.37 421.02 262.32 422.20 261.14 422.99 C 259.02 420.05 257.04 417.03 255.01 414.03 C 257.58 421.94 262.15 429.42 262.27 437.95 C 262.39 441.73 259.77 444.73 257.33 447.31 C 252.74 451.95 247.42 456.00 241.36 458.53 C 241.21 459.15 240.91 460.40 240.76 461.03 C 240.24 460.99 239.18 460.92 238.66 460.88 C 237.94 459.84 237.23 458.82 236.51 457.80 C 234.73 463.47 233.06 469.50 228.99 474.02 C 225.87 477.39 220.91 477.34 216.69 478.00 L 209.33 478.00 C 205.65 477.51 201.84 477.11 198.48 475.43 C 197.07 474.98 197.01 473.31 197.45 472.15 C 198.40 469.42 200.13 467.05 201.75 464.69 C 205.87 459.08 209.41 453.07 213.27 447.29 C 219.28 438.47 222.95 427.74 222.14 417.00 C 221.71 409.80 222.78 402.32 220.58 395.36 C 209.78 374.26 198.09 353.60 187.75 332.26 C 183.85 323.62 179.59 315.15 175.23 306.73 C 168.22 351.77 161.60 396.87 154.85 441.95 C 153.31 441.77 151.77 441.60 150.23 441.44 C 157.03 394.93 164.17 348.46 171.11 301.97 C 171.78 298.63 169.42 295.81 168.32 292.84 C 164.99 284.84 162.09 276.55 160.82 267.95 C 160.52 265.39 159.97 262.66 161.09 260.22 C 163.35 254.83 165.97 249.38 170.34 245.36 C 178.46 237.65 189.18 233.79 199.09 229.00 C 198.72 223.59 198.32 218.19 198.08 212.78 C 166.53 212.84 134.97 212.51 103.42 212.94 C 103.58 291.70 103.49 370.47 103.47 449.24 C 100.98 449.23 98.50 449.23 96.01 449.24 C 96.06 366.97 95.87 284.69 96.11 202.42 C 120.23 202.59 144.35 202.46 168.47 202.49 C 166.03 176.93 162.74 151.46 160.50 125.89 C 168.94 125.66 177.37 125.85 185.81 125.76 C 187.08 123.77 188.60 121.89 189.45 119.67 C 190.06 114.95 189.88 110.10 191.40 105.53 C 193.38 98.13 198.05 91.75 203.90 86.90 C 209.96 81.89 210.63 73.35 210.59 66.04 C 210.74 58.09 207.55 50.65 206.64 42.84 C 205.76 35.63 205.49 28.18 207.30 21.10 C 208.56 15.87 212.50 11.89 216.57 8.64 M 289.12 105.67 C 290.88 108.24 292.67 110.88 293.42 113.95 C 299.23 134.94 307.02 155.45 310.83 176.95 C 311.08 180.60 312.61 185.49 308.90 187.92 C 302.21 192.91 293.92 194.92 286.26 197.89 C 286.16 199.46 286.25 201.04 286.32 202.61 C 294.17 202.33 302.02 202.65 309.87 202.43 C 312.54 170.95 315.94 139.53 318.58 108.05 C 308.75 107.43 298.98 105.86 289.12 105.67 M 162.83 127.95 C 165.51 152.39 167.96 176.86 170.77 201.29 C 208.53 201.31 246.29 201.30 284.04 201.29 C 284.04 199.81 284.03 198.33 284.03 196.85 C 281.09 196.86 278.16 196.86 275.22 196.75 C 274.05 192.97 274.13 189.00 273.57 185.12 C 271.82 168.44 269.97 151.76 268.19 135.08 C 267.94 132.72 267.88 130.31 267.19 128.03 C 232.41 127.83 197.62 127.99 162.83 127.95 M 200.45 212.74 C 200.81 217.74 200.91 222.76 201.06 227.77 C 206.43 224.92 210.19 218.93 208.30 212.76 C 205.68 212.75 203.06 212.75 200.45 212.74 M 284.88 212.78 C 288.30 221.53 291.80 230.34 293.25 239.67 C 294.27 247.02 295.90 254.58 293.96 261.93 C 291.24 273.66 282.32 285.07 269.75 286.66 C 261.78 287.00 253.80 286.70 245.83 286.80 C 246.19 288.56 246.56 290.33 246.91 292.10 C 264.98 292.12 283.06 292.11 301.14 292.11 C 303.82 265.66 306.25 239.19 308.74 212.72 C 300.79 212.80 292.83 212.69 284.88 212.78 M 196.55 267.29 C 196.55 274.49 197.72 281.65 199.61 288.59 C 204.53 300.89 212.72 312.15 214.29 325.60 C 217.55 345.65 220.39 365.78 222.93 385.94 C 224.19 397.26 223.96 408.67 224.54 420.04 C 225.05 425.51 223.13 430.76 221.64 435.94 C 218.79 445.15 211.78 452.23 207.76 460.85 C 211.95 462.36 216.58 462.76 220.94 461.76 C 225.20 460.42 227.55 456.26 229.48 452.55 C 233.72 443.75 236.44 433.93 235.46 424.11 C 235.13 421.71 235.28 419.29 235.78 416.93 C 240.09 393.63 244.60 370.34 247.59 346.82 C 250.12 325.87 246.28 304.94 243.50 284.25 C 232.41 270.53 213.58 265.44 196.55 267.29 M 176.49 271.62 C 172.23 273.23 167.93 275.71 165.98 280.04 C 167.87 285.36 169.64 290.75 172.18 295.80 C 178.27 307.42 184.27 319.10 189.72 331.05 C 199.40 351.34 210.74 370.80 220.69 390.96 C 220.85 389.29 220.95 387.61 220.68 385.96 C 218.00 365.59 215.24 345.23 211.89 324.96 C 210.06 311.86 201.84 300.97 197.28 288.81 C 195.45 281.89 194.29 274.75 194.16 267.58 C 188.15 268.28 182.18 269.52 176.49 271.62 M 240.91 402.55 C 239.30 410.58 236.97 418.69 237.92 426.96 C 238.42 432.02 236.52 436.96 237.15 442.01 C 242.45 440.12 247.92 436.68 249.69 431.03 C 250.59 426.36 249.06 421.65 247.88 417.16 C 246.15 412.07 244.44 406.71 240.91 402.55 Z"></path> <path fill="#1b1a19" opacity="1.00" d=" M 233.12 78.41 C 236.54 80.97 240.55 83.16 244.97 82.85 C 248.50 82.97 251.53 81.02 254.64 79.66 C 252.45 86.34 243.00 88.40 237.67 84.28 C 235.62 82.80 234.40 80.52 233.12 78.41 Z"></path> <path fill="#1b1a19" opacity="1.00" d=" M 41.81 111.85 C 51.83 111.30 61.87 112.01 71.89 111.43 C 71.97 120.81 71.84 130.18 71.97 139.56 C 70.80 138.60 69.48 138.12 68.00 138.10 C 59.28 138.10 50.55 138.29 41.83 138.02 C 41.44 129.31 41.50 120.57 41.81 111.85 Z"></path> <path fill="#1b1a19" opacity="1.00" d=" M 7.75 219.49 C 28.13 219.34 48.52 219.57 68.90 219.38 C 69.16 233.84 69.05 248.30 68.95 262.76 C 48.54 262.59 28.12 262.93 7.71 262.59 C 7.90 248.23 7.82 233.86 7.75 219.49 M 10.18 221.84 C 10.18 234.68 10.22 247.51 10.15 260.35 C 28.97 260.42 47.80 260.21 66.61 260.45 C 66.64 247.55 66.79 234.64 66.54 221.74 C 47.75 221.95 28.96 221.75 10.18 221.84 Z"></path> <path fill="#1b1a19" opacity="1.00" d=" M 29.33 230.82 C 35.26 233.80 40.88 237.35 46.65 240.61 C 46.67 240.84 46.72 241.30 46.74 241.53 C 40.94 245.00 34.91 248.10 29.25 251.80 C 29.49 244.81 29.34 237.81 29.33 230.82 Z"></path> <path fill="#1b1a19" opacity="1.00" d=" M 36.00 342.36 C 36.88 341.76 37.76 341.17 38.62 340.56 C 39.79 341.76 40.50 343.31 40.33 345.02 C 40.38 366.35 40.28 387.68 40.37 409.01 C 40.24 410.81 40.59 412.89 39.32 414.39 C 37.86 416.52 34.97 416.40 32.71 416.95 L 32.61 415.68 C 32.32 392.27 32.51 368.86 32.51 345.45 C 30.88 345.16 29.24 344.90 27.62 344.54 C 30.42 344.08 34.13 345.09 36.00 342.36 Z"></path> </g> <g id="#ffffffff"> </g> <g id="#000000ff"> <path fill="#000000" opacity="1.00" d=" M 70.60 38.42 C 87.19 38.47 103.77 38.32 120.36 38.49 C 120.15 62.79 120.34 87.10 120.26 111.40 C 104.14 111.36 88.01 111.29 71.89 111.43 C 61.87 112.01 51.83 111.30 41.81 111.85 C 41.50 120.57 41.44 129.31 41.83 138.02 C 50.55 138.29 59.28 138.10 68.00 138.10 C 69.48 138.12 70.80 138.60 71.97 139.56 C 61.18 139.70 50.40 139.56 39.61 139.63 C 39.77 129.88 39.82 120.11 39.59 110.36 C 49.88 110.21 60.18 110.24 70.47 110.35 C 70.91 86.38 70.65 62.39 70.60 38.42 M 73.21 40.82 C 73.28 63.43 73.28 86.05 73.21 108.66 C 88.05 108.65 102.90 108.63 117.75 108.67 C 117.54 86.01 117.89 63.34 117.58 40.69 C 102.79 40.91 88.00 40.66 73.21 40.82 Z"></path> <path fill="#000000" opacity="1.00" d=" M 83.11 88.42 C 91.03 88.21 98.97 88.30 106.88 88.38 C 108.64 89.60 106.42 91.22 105.03 90.62 C 97.61 90.31 89.99 91.14 82.70 90.23 L 82.47 88.68 L 83.11 88.42 Z"></path> </g> <g id="#131313ff"> <path fill="#131313" opacity="1.00" d=" M 389.57 44.63 C 390.65 43.37 391.96 44.22 392.93 45.11 C 404.37 54.98 415.77 64.89 427.26 74.71 C 428.56 75.96 430.38 76.90 431.00 78.71 C 430.59 79.05 429.78 79.74 429.37 80.09 C 425.71 76.92 422.29 73.44 418.27 70.72 C 418.24 73.55 418.35 76.39 418.12 79.21 C 417.55 79.20 416.42 79.18 415.85 79.17 C 415.62 75.53 415.78 71.88 415.76 68.23 C 407.53 61.09 399.29 53.95 391.02 46.84 C 382.82 53.52 374.71 60.33 366.51 67.02 C 366.51 78.50 366.47 89.99 366.53 101.47 C 375.77 101.49 385.00 101.55 394.24 101.44 C 394.33 95.98 394.12 90.51 394.30 85.05 C 394.27 82.59 396.93 81.47 399.04 81.53 C 406.68 81.43 414.31 81.53 421.95 81.49 C 424.10 81.58 427.08 81.64 427.96 84.06 C 428.53 85.96 428.15 87.97 428.13 89.91 C 426.37 89.96 424.61 90.00 422.86 90.05 C 422.85 89.43 422.83 88.19 422.82 87.56 C 423.58 87.55 425.10 87.53 425.86 87.52 C 426.51 85.34 423.74 82.52 422.58 85.40 C 422.17 94.22 422.81 103.10 422.40 111.93 C 422.47 114.27 420.49 116.40 418.07 115.99 C 409.05 115.92 400.02 116.20 391.01 115.85 C 387.65 114.81 388.23 110.82 388.24 108.09 C 389.93 108.11 394.49 106.45 393.03 109.69 C 391.42 110.33 389.89 111.09 391.09 113.02 C 392.46 114.20 394.35 113.13 394.21 111.38 C 394.35 108.99 394.28 106.60 394.37 104.22 C 384.32 103.62 374.23 104.35 364.17 103.83 C 363.74 92.22 364.19 80.60 363.93 68.99 C 359.31 72.74 354.89 76.75 350.08 80.25 C 349.58 79.15 348.41 77.88 350.04 77.16 C 363.19 66.29 376.36 55.43 389.57 44.63 M 397.06 84.29 C 396.31 94.00 397.04 103.76 396.67 113.48 C 404.39 113.36 412.14 113.82 419.84 113.22 C 420.24 103.48 419.79 93.74 420.10 84.00 C 412.42 83.86 404.74 84.17 397.06 84.29 Z"></path> <path fill="#131313" opacity="1.00" d=" M 401.00 90.77 C 405.72 90.80 410.45 90.59 415.17 90.85 C 415.18 91.37 415.19 92.41 415.20 92.92 C 410.47 93.14 405.73 92.94 401.00 92.99 C 401.00 92.44 401.00 91.33 401.00 90.77 Z"></path> <path fill="#131313" opacity="1.00" d=" M 400.98 98.01 C 405.78 98.00 410.59 97.99 415.40 98.01 C 415.31 98.54 415.13 99.61 415.03 100.14 C 410.37 100.42 405.69 100.18 401.02 100.23 C 401.01 99.68 400.99 98.56 400.98 98.01 Z"></path> <path fill="#131313" opacity="1.00" d=" M 406.65 105.32 C 409.56 105.21 412.48 105.22 415.39 105.35 C 415.39 105.89 415.37 106.95 415.37 107.48 C 412.45 107.50 409.55 107.50 406.64 107.50 C 406.64 106.96 406.65 105.87 406.65 105.32 Z"></path> </g> <g id="#1e1d1cff"> <path fill="#1e1d1c" opacity="1.00" d=" M 82.61 58.73 C 90.86 58.74 99.10 58.74 107.34 58.73 C 107.19 59.42 106.87 60.79 106.72 61.48 C 98.72 61.61 90.68 61.69 82.68 61.43 C 82.67 60.76 82.63 59.41 82.61 58.73 Z"></path> </g> <g id="#232221ff"> <path fill="#232221" opacity="1.00" d=" M 82.70 73.58 C 90.85 73.46 99.06 73.23 107.19 73.69 C 107.23 74.33 107.32 75.63 107.36 76.27 C 99.11 76.27 90.85 76.27 82.60 76.27 C 82.62 75.60 82.67 74.25 82.70 73.58 Z"></path> </g> <g id="#191817f4"> <path fill="#191817" opacity="0.96" d=" M 445.19 168.20 C 455.66 167.29 465.04 177.82 463.06 188.08 C 462.00 194.91 456.63 200.75 449.93 202.39 C 446.01 202.82 441.72 203.11 438.18 201.03 C 432.23 198.10 428.14 191.63 428.44 184.95 C 428.49 176.17 436.32 168.10 445.19 168.20 M 441.13 171.21 C 434.98 173.20 430.42 179.46 430.97 186.00 C 430.87 193.23 436.97 199.63 444.09 200.34 C 452.82 201.68 461.42 193.84 460.78 185.01 C 460.96 175.31 450.20 167.85 441.13 171.21 Z"></path> </g> <g id="#060504ff"> <path fill="#060504" opacity="1.00" d=" M 27.59 332.79 C 32.87 331.54 41.06 332.43 42.28 338.91 C 42.41 362.60 42.27 386.30 42.34 409.99 C 42.58 412.46 41.59 415.07 39.44 416.44 C 35.33 418.98 29.95 419.02 25.56 417.17 C 23.67 416.10 21.42 414.43 21.60 412.00 C 21.63 387.28 21.56 362.57 21.64 337.86 C 22.51 335.24 25.10 333.64 27.59 332.79 M 25.49 336.43 C 24.09 337.23 23.78 339.03 24.66 340.34 C 27.70 343.17 32.18 342.85 36.00 342.36 C 34.13 345.09 30.42 344.08 27.62 344.54 C 26.31 344.14 25.01 343.72 23.72 343.28 C 23.87 349.84 23.63 356.40 23.87 362.96 C 23.63 378.64 23.84 394.33 23.76 410.02 C 23.02 414.61 29.34 417.03 32.61 415.68 L 32.71 416.95 C 34.97 416.40 37.86 416.52 39.32 414.39 C 40.59 412.89 40.24 410.81 40.37 409.01 C 40.28 387.68 40.38 366.35 40.33 345.02 C 40.50 343.31 39.79 341.76 38.62 340.56 C 40.22 339.82 39.90 337.35 38.44 336.63 C 34.70 334.02 29.30 333.97 25.49 336.43 Z"></path> </g> </svg> 