<?xml version="1.0" encoding="UTF-8"?> <svg xmlns="http://www.w3.org/2000/svg" width="468pt" height="507pt" viewBox="0 0 468 507"> <g id="#1b1a19ff"> <path fill="#1b1a19" opacity="1.00" d=" M 318.39 0.00 L 396.77 0.00 C 396.84 24.54 397.10 49.07 396.87 73.61 C 369.56 73.85 342.25 73.85 314.94 73.92 C 313.58 74.02 312.00 73.83 311.02 74.97 C 306.86 78.81 303.11 83.07 299.04 87.00 C 298.01 88.07 296.66 88.68 295.35 89.29 C 294.91 59.70 295.11 30.11 295.03 0.52 C 302.80 -0.11 310.61 0.47 318.39 0.00 M 296.97 2.65 C 297.29 30.14 297.39 57.63 297.57 85.13 C 302.21 80.87 306.24 75.97 311.06 71.92 C 317.99 71.31 324.98 71.74 331.94 71.55 C 352.97 71.40 374.00 71.31 395.04 71.21 C 394.67 48.13 394.64 25.05 394.42 1.97 C 361.94 2.35 329.45 2.43 296.97 2.65 Z"></path> <path fill="#1b1a19" opacity="1.00" d=" M 318.46 31.64 C 323.79 28.82 330.61 34.40 328.99 40.14 C 327.93 45.42 320.79 47.93 316.75 44.29 C 312.43 41.09 313.43 33.57 318.46 31.64 Z"></path> <path fill="#1b1a19" opacity="1.00" d=" M 344.07 31.14 C 349.63 29.43 355.32 35.36 353.20 40.83 C 351.55 46.38 343.42 47.61 340.02 43.06 C 336.66 39.09 338.92 32.19 344.07 31.14 Z"></path> <path fill="#1b1a19" opacity="1.00" d=" M 367.48 31.67 C 372.11 28.96 378.73 32.67 378.54 38.10 C 379.15 44.17 371.21 48.08 366.54 44.41 C 362.07 41.47 362.58 33.90 367.48 31.67 Z"></path> <path fill="#1b1a19" opacity="1.00" d=" M 53.02 62.02 C 67.34 62.04 81.67 62.03 96.00 62.03 C 95.98 64.27 95.96 66.51 95.94 68.75 C 95.23 68.76 93.81 68.78 93.10 68.79 C 93.06 67.52 93.01 66.24 92.97 64.97 C 80.56 64.97 68.15 64.97 55.74 64.97 C 55.73 70.74 55.72 76.50 55.74 82.27 C 68.17 82.27 80.59 82.27 93.02 82.27 C 93.02 81.33 93.03 79.44 93.04 78.50 C 93.77 78.51 95.24 78.51 95.98 78.52 C 95.97 80.76 95.97 83.00 95.97 85.24 C 81.66 85.24 67.34 85.24 53.03 85.24 C 53.02 77.50 53.05 69.76 53.02 62.02 Z"></path> <path fill="#1b1a19" opacity="1.00" d=" M 111.03 62.02 C 125.34 62.04 139.66 62.04 153.97 62.01 C 153.97 69.75 153.97 77.49 153.97 85.23 C 148.59 85.24 143.21 85.27 137.82 85.21 C 137.77 84.25 137.72 83.28 137.67 82.33 C 142.20 82.24 146.73 82.27 151.26 82.27 C 151.28 76.50 151.27 70.74 151.26 64.97 C 138.83 64.97 126.40 64.96 113.98 64.97 C 113.96 70.74 113.97 76.50 113.97 82.27 C 118.43 82.27 122.88 82.23 127.34 82.33 C 127.28 83.29 127.22 84.25 127.17 85.20 C 121.79 85.27 116.41 85.23 111.03 85.24 C 111.03 77.50 111.04 69.76 111.03 62.02 Z"></path> <path fill="#1b1a19" opacity="1.00" d=" M 84.13 69.34 C 86.93 67.92 89.26 70.35 90.63 72.50 C 96.24 72.53 101.85 72.51 107.46 72.50 C 107.46 73.25 107.46 74.75 107.46 75.50 C 101.82 75.49 96.18 75.47 90.53 75.50 C 88.86 77.20 86.59 79.31 84.02 78.04 C 80.33 76.56 80.29 70.65 84.13 69.34 M 84.97 72.03 C 83.82 73.13 83.96 75.16 85.80 75.36 C 88.62 75.37 87.31 71.18 84.97 72.03 Z"></path> <path fill="#1b1a19" opacity="1.00" d=" M 128.29 69.50 C 131.48 69.53 134.68 69.52 137.87 69.44 C 138.02 72.83 138.02 76.21 137.85 79.60 C 136.55 79.55 135.25 79.51 133.96 79.48 C 133.97 85.91 134.00 92.35 133.94 98.78 C 133.22 98.77 131.78 98.77 131.06 98.76 C 131.01 92.34 131.04 85.92 131.03 79.50 C 130.35 79.50 128.98 79.50 128.29 79.50 C 128.26 76.17 128.26 72.83 128.29 69.50 M 131.27 72.72 C 131.27 73.91 131.28 75.10 131.29 76.30 C 132.43 76.30 133.56 76.31 134.70 76.31 C 134.71 75.10 134.71 73.89 134.71 72.67 C 133.56 72.69 132.41 72.70 131.27 72.72 Z"></path> <path fill="#1b1a19" opacity="1.00" d=" M 59.70 72.52 C 60.96 72.52 62.23 72.51 63.50 72.51 C 63.49 73.51 63.49 74.50 63.49 75.49 C 62.24 75.48 61.00 75.48 59.76 75.47 C 59.74 74.49 59.72 73.50 59.70 72.52 Z"></path> <path fill="#1b1a19" opacity="1.00" d=" M 67.28 72.53 C 68.47 72.49 69.67 72.45 70.86 72.42 C 70.88 73.46 70.90 74.50 70.92 75.55 C 69.71 75.52 68.50 75.50 67.28 75.48 C 67.28 74.50 67.28 73.51 67.28 72.53 Z"></path> <path fill="#1b1a19" opacity="1.00" d=" M 75.09 72.43 C 76.30 72.46 77.51 72.49 78.72 72.53 C 78.72 73.51 78.71 74.49 78.71 75.47 C 77.53 75.51 76.35 75.55 75.16 75.60 C 75.14 74.54 75.11 73.49 75.09 72.43 Z"></path> <path fill="#1b1a19" opacity="1.00" d=" M 238.58 84.59 C 247.45 80.78 258.09 78.50 267.20 82.87 C 270.16 84.26 273.52 84.32 276.54 85.53 C 279.37 86.87 280.15 90.19 280.26 93.04 C 280.66 100.46 280.10 107.91 279.13 115.27 C 288.68 112.71 298.37 110.67 308.20 109.67 C 327.82 107.81 348.37 109.07 366.39 117.70 C 385.04 126.26 399.37 142.53 407.64 161.11 C 419.90 188.24 422.42 218.59 421.97 248.02 C 422.01 263.99 421.91 279.97 421.75 295.94 C 427.19 293.52 431.81 289.13 437.90 288.34 C 444.09 287.16 450.49 289.00 455.56 292.60 C 459.20 295.23 463.53 296.59 468.00 296.81 L 468.00 299.18 C 465.36 298.91 462.63 298.87 460.15 297.81 C 456.04 296.10 452.62 293.07 448.43 291.52 C 445.12 290.34 441.51 290.18 438.07 290.78 C 431.92 291.78 427.28 296.33 421.66 298.66 C 421.63 304.34 421.39 310.02 421.06 315.69 C 424.01 314.65 426.74 313.10 429.31 311.34 C 434.87 307.53 442.16 306.78 448.55 308.66 C 452.36 309.82 455.43 312.45 458.91 314.29 C 461.71 315.77 464.92 316.08 468.00 316.59 L 468.00 319.06 C 462.63 318.75 457.55 316.83 453.20 313.70 C 446.82 309.20 437.78 308.95 431.19 313.14 C 428.00 315.21 424.66 317.06 421.04 318.29 C 419.86 341.49 418.86 365.18 411.34 387.36 C 406.13 402.79 395.52 415.79 382.85 425.79 C 369.81 437.38 354.99 446.93 338.93 453.78 C 307.52 467.19 273.47 473.13 239.63 476.23 C 242.91 482.33 247.38 488.84 245.71 496.15 C 245.22 499.81 241.65 502.37 238.02 501.97 C 230.67 501.35 224.09 497.57 217.56 494.45 C 211.64 491.35 213.28 483.74 212.53 478.26 C 203.30 478.88 194.04 478.97 184.79 478.98 C 184.60 480.69 184.79 482.51 184.11 484.13 C 182.68 486.81 179.66 487.90 177.13 489.24 C 171.65 491.56 169.81 497.80 165.54 501.51 C 161.00 505.74 154.53 506.47 148.63 507.00 L 146.40 507.00 C 142.13 506.51 137.30 506.11 134.16 502.82 C 131.28 499.78 132.41 494.87 134.95 492.00 C 138.46 488.26 143.54 486.68 147.56 483.62 C 149.80 481.91 151.38 479.54 153.03 477.29 C 130.77 474.56 108.12 468.67 89.76 455.28 C 76.24 445.53 65.99 430.98 62.57 414.56 C 58.55 395.79 62.10 376.08 69.69 358.66 C 76.54 342.47 87.04 328.20 97.84 314.46 C 94.99 314.17 92.11 314.13 89.31 313.53 C 87.78 310.94 87.00 308.00 85.91 305.22 C 77.94 284.19 70.05 263.13 62.02 242.12 C 61.62 240.83 60.98 239.52 61.20 238.15 C 62.85 237.02 65.11 237.60 67.01 237.37 C 95.35 237.23 123.68 236.41 152.01 236.04 C 153.83 236.05 155.68 235.96 157.46 236.41 C 159.48 240.36 160.62 244.70 162.23 248.83 C 174.90 237.00 187.63 225.15 198.74 211.80 C 201.51 208.37 204.94 205.06 205.55 200.47 C 207.63 189.01 211.53 177.74 218.08 168.05 C 221.23 163.53 227.24 162.70 231.08 159.05 C 234.76 154.20 238.10 149.09 241.79 144.23 C 238.40 138.30 236.57 131.67 235.09 125.05 C 233.06 115.37 231.16 105.35 232.62 95.46 C 233.46 91.45 234.30 86.34 238.58 84.59 M 234.78 109.74 C 235.94 119.26 237.84 128.78 241.19 137.80 C 242.96 142.60 246.51 147.87 252.32 147.44 L 253.17 148.38 C 260.82 147.70 267.45 143.27 272.69 137.90 C 269.52 146.41 260.94 151.29 252.67 153.81 C 252.47 154.25 252.08 155.13 251.88 155.56 C 250.06 156.04 247.59 155.60 246.43 157.39 C 243.20 162.11 240.53 167.41 239.66 173.12 C 239.18 176.38 239.61 180.41 242.64 182.36 C 247.39 185.26 253.42 184.75 258.62 183.53 C 270.29 179.95 278.70 170.00 284.66 159.80 C 281.12 158.54 278.04 156.24 274.47 155.19 C 273.98 148.64 274.20 142.04 274.39 135.48 C 274.95 135.49 276.07 135.51 276.63 135.52 C 276.87 141.78 276.84 148.05 276.66 154.32 C 279.18 154.96 281.67 155.75 284.01 156.88 C 293.15 161.50 303.36 164.77 310.67 172.28 C 315.81 177.41 316.59 185.01 317.47 191.84 C 319.58 211.81 320.22 231.92 319.78 252.00 C 319.66 255.70 319.25 259.39 318.65 263.04 C 318.33 265.36 315.85 266.18 314.03 267.07 C 307.53 269.85 301.04 272.62 294.42 275.10 C 294.90 282.06 296.47 288.88 297.28 295.80 C 299.91 300.44 302.73 305.00 304.91 309.89 C 308.32 317.47 311.59 326.00 309.22 334.38 C 305.34 348.43 298.78 361.53 292.52 374.63 C 287.49 384.41 282.71 394.36 276.73 403.62 C 265.85 420.94 254.11 437.69 242.40 454.45 C 241.57 455.71 240.39 456.66 239.26 457.65 C 238.40 460.37 237.50 463.13 237.08 465.97 C 237.47 468.69 237.82 471.49 238.88 474.06 C 269.27 471.26 299.75 466.17 328.47 455.53 C 346.42 448.86 363.49 439.49 377.97 426.88 C 387.38 419.28 396.53 410.99 402.71 400.46 C 409.00 389.88 412.37 377.87 414.41 365.82 C 417.19 350.25 417.97 334.44 418.83 318.69 C 415.06 318.85 411.16 318.91 407.60 317.49 C 403.10 315.92 399.72 312.15 395.09 310.89 C 388.98 309.26 382.18 310.33 377.08 314.14 C 372.99 317.26 367.99 318.65 362.93 319.07 C 362.98 318.40 363.09 317.06 363.14 316.39 C 367.79 316.28 372.30 314.72 376.01 311.90 C 382.40 307.26 391.19 306.42 398.42 309.49 C 402.20 311.23 405.28 314.34 409.37 315.44 C 412.47 316.51 415.78 316.28 419.01 316.15 C 419.08 310.43 419.21 304.71 419.27 298.98 C 413.28 299.48 406.99 298.65 402.17 294.79 C 396.66 290.58 389.21 289.21 382.63 291.49 C 378.38 292.93 375.06 296.14 370.94 297.82 C 368.41 298.88 365.64 298.94 362.95 299.10 C 362.99 298.46 363.06 297.18 363.10 296.53 C 367.88 296.92 372.29 294.84 376.11 292.17 C 381.84 288.16 389.34 286.92 396.04 288.96 C 401.11 290.39 404.83 294.65 409.95 295.97 C 413.00 296.80 416.18 296.55 419.30 296.44 C 419.68 269.97 420.74 243.46 418.86 217.02 C 416.48 192.80 411.24 167.95 397.40 147.48 C 386.88 131.54 370.41 119.71 351.95 114.80 C 328.04 108.31 302.55 111.01 279.01 117.79 C 278.36 123.31 277.61 128.90 275.36 134.02 C 276.69 126.33 276.93 118.31 274.21 110.89 C 272.85 108.97 269.75 109.60 268.52 111.35 C 268.02 113.15 268.03 115.04 267.88 116.90 C 266.99 117.05 265.20 117.36 264.31 117.52 C 264.58 114.09 264.72 110.30 262.72 107.30 C 261.47 106.09 259.56 106.56 258.00 106.53 C 250.22 107.34 242.64 109.75 234.78 109.74 M 234.40 158.44 C 240.33 156.33 246.20 153.70 252.54 153.15 C 252.62 152.31 252.77 150.63 252.85 149.78 C 249.28 150.03 245.88 148.59 243.37 146.09 C 240.25 150.11 237.31 154.26 234.40 158.44 M 224.53 165.65 C 220.20 168.05 217.75 172.63 215.56 176.89 C 206.29 195.18 206.30 216.28 200.54 235.65 C 197.82 240.44 193.43 244.10 189.99 248.38 C 194.75 251.49 199.03 255.50 201.38 260.78 C 206.12 255.72 211.09 250.85 215.34 245.37 C 216.80 243.53 216.00 241.04 215.92 238.92 C 214.78 229.23 215.43 219.43 216.40 209.75 C 218.21 218.15 217.71 227.17 221.45 235.07 C 223.42 244.29 225.68 253.48 226.86 262.86 C 227.00 265.48 227.53 268.49 225.75 270.71 C 222.81 274.64 218.90 277.72 215.08 280.76 C 220.52 279.69 225.73 281.91 231.09 282.29 C 234.91 281.03 238.25 278.69 241.81 276.86 C 254.90 269.59 268.21 262.65 280.94 254.78 C 284.23 253.64 287.29 251.05 290.82 251.16 C 290.86 251.53 290.96 252.28 291.01 252.66 C 287.59 254.70 283.81 256.05 280.20 257.70 C 285.14 263.16 287.23 270.50 288.08 277.66 C 272.47 283.48 256.79 289.16 240.89 294.15 C 239.10 294.86 236.68 294.72 235.62 296.60 C 255.27 297.83 275.09 297.26 294.63 294.67 C 294.22 287.76 292.24 281.02 292.09 274.09 C 292.87 273.13 294.16 272.84 295.24 272.33 C 302.34 269.50 309.52 266.80 316.34 263.33 C 317.57 256.61 317.41 249.75 317.58 242.95 C 317.50 224.96 317.14 206.93 314.79 189.08 C 314.00 183.74 313.07 177.90 309.07 173.93 C 303.54 168.34 296.25 164.98 289.14 161.89 C 288.16 161.59 286.53 160.43 286.02 162.00 C 281.05 170.43 274.38 178.11 265.81 183.02 C 258.94 186.71 250.29 188.45 242.94 185.13 C 238.62 183.36 236.58 178.34 237.16 173.90 C 237.85 168.01 240.55 162.57 243.52 157.50 C 237.04 159.83 230.55 162.26 224.53 165.65 M 163.12 251.12 C 165.11 257.01 167.52 262.75 169.36 268.69 C 176.65 260.24 183.79 251.66 191.33 243.43 C 194.11 239.70 198.55 236.84 199.30 231.93 C 201.16 224.33 202.39 216.60 203.84 208.91 C 191.97 224.51 177.36 237.74 163.12 251.12 M 103.96 239.01 C 90.52 239.39 77.08 239.70 63.63 239.82 C 72.76 263.79 81.71 287.84 90.88 311.79 C 122.08 313.14 153.26 314.95 184.47 316.29 C 174.92 290.29 165.45 264.26 155.94 238.25 C 138.62 238.71 121.29 238.89 103.96 239.01 M 219.79 239.01 C 218.97 242.16 218.54 245.65 216.15 248.09 C 203.72 262.35 190.23 275.64 176.88 289.02 C 177.35 290.25 177.82 291.49 178.29 292.72 C 186.22 293.01 194.16 292.83 202.08 293.25 C 203.17 291.20 204.30 289.15 205.06 286.95 C 203.73 287.70 202.47 288.56 201.15 289.33 C 201.82 288.30 202.54 287.27 203.74 286.82 C 205.98 285.80 207.28 283.59 209.34 282.31 C 213.69 279.47 217.45 275.86 221.27 272.39 C 222.94 270.64 225.10 268.66 224.84 266.01 C 223.93 256.89 222.10 247.87 219.79 239.01 M 170.50 271.10 C 171.73 275.15 173.34 279.06 174.72 283.06 C 175.28 283.97 175.18 285.62 176.43 285.93 C 184.21 278.30 191.75 270.42 199.52 262.78 C 197.78 257.27 193.33 253.34 188.65 250.27 C 182.34 256.99 176.66 264.26 170.50 271.10 M 233.71 283.80 C 231.08 285.61 227.95 284.09 225.14 283.68 C 219.96 282.39 213.96 282.31 209.29 285.15 C 205.39 290.68 203.11 297.17 199.43 302.85 C 203.38 302.15 203.11 308.42 207.07 307.36 C 212.52 305.42 215.19 299.29 220.83 297.78 C 227.48 295.59 234.17 293.55 240.94 291.78 C 255.92 286.90 270.81 281.73 285.53 276.13 C 284.62 270.03 282.74 263.76 278.36 259.23 C 263.51 267.49 248.73 275.87 233.71 283.80 M 221.01 300.23 C 217.83 301.19 215.85 304.05 213.22 305.89 C 219.95 302.96 226.98 300.73 233.69 297.74 C 233.84 297.30 234.15 296.42 234.30 295.99 C 229.82 297.25 225.41 298.71 221.01 300.23 M 185.52 312.77 C 185.97 313.86 186.43 314.95 186.89 316.04 C 192.60 313.85 198.27 311.57 204.00 309.43 C 203.15 308.63 202.28 307.82 201.43 307.02 C 196.10 308.85 190.81 310.81 185.52 312.77 M 66.73 373.80 C 61.51 391.50 61.44 411.27 69.64 428.09 C 77.03 443.75 91.09 455.26 106.50 462.56 C 121.47 469.49 137.76 473.27 154.09 475.09 C 156.50 473.58 158.10 471.06 160.15 469.10 C 160.20 467.23 160.32 465.37 160.49 463.52 C 160.00 463.36 159.01 463.04 158.52 462.89 C 147.60 421.98 136.02 381.23 126.42 339.98 C 124.21 331.81 124.72 322.33 130.87 315.93 C 120.87 315.63 110.90 314.77 100.89 314.56 C 86.35 332.18 72.94 351.54 66.73 373.80 M 183.45 340.56 C 180.33 341.33 176.81 341.91 174.61 344.49 C 171.67 347.91 171.11 352.62 171.21 356.97 C 171.07 368.59 175.92 379.43 177.47 390.81 C 181.06 414.52 182.85 438.45 184.74 462.34 C 184.14 462.56 182.94 463.01 182.34 463.24 C 181.15 467.96 182.37 472.51 184.11 476.91 C 193.36 476.83 202.60 476.27 211.84 476.02 C 210.80 473.82 209.31 471.57 209.75 469.01 C 210.61 464.27 214.37 460.87 216.36 456.67 C 223.64 437.73 230.19 418.48 237.35 399.47 C 243.10 383.21 251.47 367.86 255.39 350.97 C 255.88 347.67 257.05 343.42 254.22 340.83 C 249.83 336.94 244.38 334.56 239.52 331.34 C 237.11 329.40 233.87 330.48 231.08 330.67 C 215.04 333.07 199.24 336.89 183.45 340.56 M 221.24 451.86 C 220.52 453.05 219.79 454.24 219.06 455.44 C 224.32 458.41 229.57 461.65 235.54 462.97 C 235.96 461.00 236.34 459.03 236.71 457.06 C 231.55 455.33 226.45 453.42 221.24 451.86 M 162.88 463.84 C 162.77 464.74 162.56 466.55 162.45 467.46 C 168.24 468.62 174.33 468.75 180.01 467.00 C 180.03 466.18 180.06 464.54 180.07 463.72 C 174.37 464.66 168.59 464.64 162.88 463.84 Z"></path> <path fill="#1b1a19" opacity="1.00" d=" M 53.12 102.44 C 67.42 102.64 81.72 102.39 96.03 102.58 C 95.92 110.21 95.98 117.84 95.98 125.48 C 90.58 125.49 85.18 125.48 79.77 125.48 C 79.77 124.80 79.77 123.44 79.77 122.76 C 84.17 122.75 88.58 122.75 92.99 122.77 C 93.03 116.99 93.13 111.20 92.90 105.42 C 80.50 105.61 68.10 105.35 55.70 105.55 C 55.78 111.29 55.66 117.04 55.79 122.78 C 60.20 122.82 64.61 122.59 69.02 122.85 C 69.12 123.50 69.32 124.80 69.42 125.46 C 63.96 125.51 58.49 125.48 53.02 125.48 C 53.09 117.80 52.92 110.12 53.12 102.44 Z"></path> <path fill="#1b1a19" opacity="1.00" d=" M 111.13 102.44 C 125.38 102.57 139.64 102.54 153.89 102.45 C 154.06 110.13 153.92 117.80 153.98 125.48 C 139.66 125.48 125.33 125.50 111.01 125.47 C 111.02 123.23 111.03 120.99 111.04 118.76 C 111.76 118.75 113.20 118.75 113.92 118.74 C 113.97 120.09 114.02 121.44 114.06 122.79 C 126.45 122.72 138.85 122.76 151.24 122.77 C 151.31 117.05 151.22 111.32 151.31 105.60 C 138.93 105.29 126.54 105.65 114.15 105.41 C 114.06 106.69 113.97 107.98 113.89 109.26 C 113.17 109.25 111.72 109.22 110.99 109.21 C 111.02 106.95 111.06 104.70 111.13 102.44 Z"></path> <path fill="#1b1a19" opacity="1.00" d=" M 116.86 112.99 C 117.85 111.95 118.65 110.62 119.99 109.96 C 122.69 108.60 126.19 110.99 126.29 113.92 C 126.66 116.81 123.81 119.45 120.96 118.98 C 119.24 118.66 118.21 117.11 117.01 116.00 C 111.51 115.94 106.01 115.97 100.51 115.98 C 100.52 115.24 100.54 113.75 100.55 113.01 C 105.99 113.03 111.42 113.07 116.86 112.99 M 120.20 115.82 C 121.82 116.12 124.49 115.13 122.86 113.14 C 120.99 111.37 119.82 114.23 120.20 115.82 Z"></path> <path fill="#1b1a19" opacity="1.00" d=" M 70.03 111.01 C 73.28 111.02 76.52 111.03 79.77 111.07 C 79.72 114.35 79.72 117.63 79.77 120.92 C 78.50 120.95 77.24 120.98 75.97 121.02 C 75.97 127.09 75.97 133.16 75.97 139.23 C 75.24 139.24 73.77 139.25 73.03 139.25 C 73.03 133.17 73.03 127.08 73.03 121.00 C 72.27 120.99 70.77 120.97 70.02 120.97 C 70.03 117.65 70.03 114.33 70.03 111.01 M 73.25 114.24 C 73.24 115.41 73.24 116.58 73.23 117.75 C 74.41 117.75 75.58 117.75 76.76 117.75 C 76.76 116.58 76.76 115.41 76.76 114.25 C 75.59 114.24 74.42 114.24 73.25 114.24 Z"></path> <path fill="#1b1a19" opacity="1.00" d=" M 129.22 113.08 C 130.47 113.05 131.73 113.02 132.98 113.00 C 132.98 113.75 132.97 115.25 132.97 116.01 C 131.72 115.98 130.48 115.95 129.23 115.93 C 129.23 115.22 129.22 113.79 129.22 113.08 Z"></path> <path fill="#1b1a19" opacity="1.00" d=" M 136.90 115.88 C 136.75 115.00 136.41 113.97 136.94 113.16 C 138.21 113.05 139.48 112.99 140.76 112.96 C 140.76 113.72 140.76 115.26 140.76 116.02 C 139.47 116.01 138.18 115.96 136.90 115.88 Z"></path> <path fill="#1b1a19" opacity="1.00" d=" M 144.39 113.11 C 145.74 113.10 147.08 113.16 148.42 113.19 C 148.33 114.14 148.25 115.09 148.16 116.04 C 146.90 115.96 145.65 115.87 144.39 115.79 C 144.39 115.12 144.39 113.78 144.39 113.11 Z"></path> <path fill="#1b1a19" opacity="1.00" d=" M 442.13 116.23 C 452.96 115.17 462.59 126.53 459.80 137.01 C 458.57 143.49 453.25 148.83 446.88 150.34 C 442.98 150.80 438.70 151.07 435.17 149.04 C 429.28 146.06 425.10 139.66 425.46 132.97 C 425.47 124.22 433.30 116.12 442.13 116.23 M 438.14 119.18 C 431.97 121.17 427.39 127.44 427.95 134.00 C 427.80 141.93 435.12 148.65 442.92 148.50 C 451.10 148.64 458.39 141.17 457.79 132.96 C 457.95 123.27 447.20 115.83 438.14 119.18 Z"></path> <path fill="#1b1a19" opacity="1.00" d=" M 53.02 143.02 C 67.35 143.04 81.67 143.03 95.99 143.02 C 95.97 145.27 95.96 147.52 95.93 149.77 C 95.22 149.77 93.80 149.77 93.08 149.77 C 93.05 148.42 93.02 147.07 92.98 145.73 C 80.57 145.73 68.15 145.72 55.74 145.73 C 55.73 151.58 55.72 157.42 55.74 163.27 C 68.16 163.26 80.58 163.28 93.01 163.26 C 93.03 161.91 93.06 160.56 93.09 159.21 C 93.80 159.22 95.22 159.22 95.94 159.23 C 95.96 161.48 95.97 163.73 95.99 165.98 C 81.66 165.96 67.34 165.97 53.02 165.98 C 53.04 158.32 53.03 150.67 53.02 143.02 Z"></path> <path fill="#1b1a19" opacity="1.00" d=" M 111.02 143.02 C 125.34 143.04 139.66 143.04 153.98 143.02 C 153.96 150.67 153.96 158.33 153.98 165.98 C 148.65 165.88 143.32 166.14 137.99 165.87 C 137.80 165.03 137.64 164.19 137.50 163.35 C 142.09 163.22 146.68 163.28 151.27 163.26 C 151.27 157.42 151.28 151.57 151.26 145.73 C 138.83 145.73 126.40 145.72 113.97 145.73 C 113.97 151.58 113.96 157.42 113.97 163.27 C 118.49 163.28 123.01 163.22 127.53 163.35 C 127.38 164.20 127.19 165.03 126.99 165.87 C 121.67 166.15 116.35 165.87 111.03 165.99 C 111.03 158.33 111.04 150.67 111.02 143.02 Z"></path> <path fill="#1b1a19" opacity="1.00" d=" M 83.83 150.66 C 86.60 149.11 89.07 151.42 90.64 153.49 C 96.26 153.54 101.88 153.49 107.50 153.52 C 107.49 154.27 107.48 155.75 107.47 156.49 C 101.83 156.49 96.20 156.47 90.56 156.50 C 89.11 158.06 87.50 160.07 85.07 159.50 C 80.74 159.11 79.81 152.33 83.83 150.66 M 85.41 153.35 C 83.48 153.52 84.05 156.99 86.05 156.52 C 88.16 156.22 87.54 152.70 85.41 153.35 Z"></path> <path fill="#1b1a19" opacity="1.00" d=" M 128.29 151.50 C 131.49 151.53 134.69 151.52 137.89 151.45 C 137.98 154.80 137.99 158.15 137.99 161.50 C 136.69 161.47 135.40 161.43 134.10 161.40 C 134.00 163.93 133.96 166.47 133.94 169.00 C 133.21 169.00 131.75 168.98 131.02 168.97 C 131.03 166.48 131.03 163.99 131.04 161.50 C 130.35 161.50 128.97 161.50 128.29 161.50 C 128.26 158.16 128.26 154.83 128.29 151.50 M 131.30 154.68 C 131.29 155.89 131.28 157.11 131.27 158.32 C 132.42 158.31 133.57 158.30 134.73 158.29 C 134.72 157.09 134.72 155.90 134.71 154.71 C 133.57 154.70 132.44 154.69 131.30 154.68 Z"></path> <path fill="#1b1a19" opacity="1.00" d=" M 59.72 153.54 C 60.97 153.52 62.22 153.50 63.47 153.49 C 63.48 154.49 63.49 155.49 63.51 156.49 C 62.25 156.48 60.98 156.47 59.72 156.47 C 59.72 155.49 59.72 154.51 59.72 153.54 Z"></path> <path fill="#1b1a19" opacity="1.00" d=" M 67.29 153.51 C 68.50 153.49 69.70 153.46 70.91 153.44 C 70.90 154.48 70.88 155.53 70.87 156.58 C 69.67 156.54 68.48 156.51 67.29 156.48 C 67.29 155.49 67.29 154.50 67.29 153.51 Z"></path> <path fill="#1b1a19" opacity="1.00" d=" M 74.86 153.62 C 76.14 153.56 77.43 153.50 78.72 153.44 C 78.71 154.45 78.71 155.47 78.71 156.48 C 77.53 156.51 76.36 156.53 75.19 156.56 C 75.11 155.83 74.94 154.36 74.86 153.62 Z"></path> <path fill="#1b1a19" opacity="1.00" d=" M 290.66 235.51 C 286.77 223.39 285.16 210.04 288.56 197.62 C 288.43 205.89 290.36 214.01 291.99 222.06 C 292.29 224.33 294.43 225.81 294.43 228.19 C 295.30 234.81 299.08 242.09 295.28 248.42 C 294.55 249.53 292.83 251.74 291.50 250.50 C 290.24 245.66 292.06 240.40 290.66 235.51 Z"></path> <path fill="#1b1a19" opacity="1.00" d=" M 114.43 265.64 C 120.62 263.83 125.87 269.97 127.49 275.35 C 129.21 279.92 127.81 287.16 121.94 287.50 C 115.82 286.99 111.64 281.12 110.57 275.49 C 109.87 271.92 110.68 267.18 114.43 265.64 Z"></path> <path fill="#1b1a19" opacity="1.00" d=" M 14.33 300.45 C 16.66 299.40 19.48 301.54 18.80 304.11 C 18.80 307.29 13.61 307.86 12.53 305.07 C 11.77 303.37 12.50 301.07 14.33 300.45 Z"></path> <path fill="#1b1a19" opacity="1.00" d=" M 28.68 300.51 C 30.21 300.44 31.73 300.43 33.26 300.50 C 35.24 302.72 34.59 307.21 30.99 306.82 C 27.43 307.08 26.97 302.81 28.68 300.51 Z"></path> <path fill="#1b1a19" opacity="1.00" d=" M 44.52 300.75 C 46.33 299.48 49.57 300.51 49.69 302.90 C 50.41 305.15 48.22 307.23 46.01 306.84 C 42.96 306.81 42.16 302.26 44.52 300.75 Z"></path> <path fill="#1b1a19" opacity="1.00" d=" M 13.64 316.60 C 16.91 314.34 20.78 318.98 17.94 321.72 C 14.84 325.28 9.65 319.14 13.64 316.60 Z"></path> <path fill="#1b1a19" opacity="1.00" d=" M 29.32 316.49 C 32.03 314.76 35.99 318.23 34.00 320.96 C 32.93 323.27 29.24 323.35 28.12 321.04 C 26.74 319.58 27.89 317.39 29.32 316.49 Z"></path> <path fill="#1b1a19" opacity="1.00" d=" M 44.39 316.71 C 46.29 315.27 49.69 316.45 49.78 318.97 C 50.10 321.28 47.55 323.47 45.33 322.56 C 42.98 321.75 42.32 318.18 44.39 316.71 Z"></path> <path fill="#1b1a19" opacity="1.00" d=" M 14.06 332.17 C 17.90 329.71 21.00 336.73 16.93 338.27 C 13.15 340.29 10.23 333.82 14.06 332.17 Z"></path> <path fill="#1b1a19" opacity="1.00" d=" M 29.93 331.86 C 33.10 330.63 36.28 335.34 33.45 337.53 C 31.61 339.99 27.00 337.94 27.62 334.93 C 27.48 333.47 28.90 332.57 29.93 331.86 Z"></path> <path fill="#1b1a19" opacity="1.00" d=" M 44.38 332.56 C 46.20 330.54 49.83 332.40 49.76 334.94 C 50.21 336.78 48.44 337.90 47.08 338.64 C 43.78 339.20 41.68 334.54 44.38 332.56 Z"></path> </g> <g id="#ffffffff"> </g> </svg> 