<?xml version="1.0" encoding="UTF-8"?> <svg xmlns="http://www.w3.org/2000/svg" width="550pt" height="527pt" viewBox="0 0 550 527"> <g id="#1b1a19ff"> <path fill="#1b1a19" opacity="1.00" d=" M 155.56 0.00 L 159.93 0.00 C 161.99 1.50 163.47 3.61 164.75 5.79 C 165.27 4.43 165.79 3.08 166.34 1.74 C 171.83 6.30 174.37 14.10 171.85 20.90 C 170.67 24.39 167.27 26.30 165.26 29.21 C 164.73 34.02 163.91 38.90 164.27 43.75 C 165.74 48.62 168.92 52.79 170.40 57.68 C 168.67 57.85 166.95 58.00 165.22 58.15 C 165.93 64.35 167.12 71.21 164.08 76.97 C 160.92 81.09 155.15 77.94 151.10 77.05 C 150.72 78.62 150.34 80.19 149.97 81.77 C 153.04 83.48 156.28 85.01 158.98 87.31 C 158.56 92.85 154.66 97.43 154.03 102.92 C 155.91 108.30 159.45 112.92 161.81 118.09 C 164.37 123.64 167.78 128.94 169.05 134.98 C 169.51 143.73 167.31 152.34 166.79 161.03 C 166.34 163.54 168.18 165.56 169.77 167.24 C 174.04 171.79 180.87 172.35 185.35 176.65 C 190.40 181.27 191.44 188.40 194.91 194.04 C 200.05 202.65 206.70 210.23 213.26 217.77 C 214.25 219.00 215.35 220.23 215.86 221.77 C 214.94 223.40 213.76 224.87 212.70 226.41 C 215.74 226.34 218.80 225.92 221.83 226.28 C 224.64 226.53 226.18 229.15 227.98 230.97 C 230.58 233.89 235.00 234.47 237.36 237.66 C 237.95 239.23 238.04 240.94 238.30 242.59 C 236.33 242.91 234.37 243.23 232.41 243.54 C 231.60 244.57 230.81 245.62 230.00 246.65 C 228.08 247.09 225.68 246.68 224.28 248.35 C 222.52 249.73 221.07 252.70 218.41 251.62 C 210.49 249.07 206.96 240.83 201.83 235.00 C 200.84 235.67 199.85 236.34 198.86 237.02 C 189.02 227.88 179.76 218.14 169.99 208.91 C 173.52 232.71 178.13 256.34 181.44 280.16 C 179.25 280.54 177.05 280.89 174.86 281.24 C 191.61 346.66 208.59 412.03 225.50 477.42 C 227.65 486.55 230.60 495.49 232.18 504.75 C 231.18 505.16 230.19 505.57 229.20 505.99 C 229.56 507.26 229.92 508.53 230.28 509.81 C 237.48 510.70 244.77 510.83 251.91 512.14 C 253.46 512.65 256.16 512.58 256.02 514.85 C 253.33 516.11 250.42 516.76 247.57 517.54 C 237.98 520.02 228.48 522.80 218.87 525.22 C 217.24 520.25 215.85 515.22 214.66 510.13 C 213.07 510.16 211.49 510.21 209.91 510.26 C 195.11 472.91 180.70 435.40 166.05 397.99 C 163.67 392.07 161.68 385.97 158.70 380.31 C 148.28 360.40 138.02 340.39 127.57 320.49 C 117.00 346.20 107.25 372.24 97.01 398.08 C 93.68 405.67 91.75 414.01 86.79 420.80 C 66.66 449.68 46.54 478.58 26.37 507.43 C 25.30 509.43 22.74 508.25 20.95 508.41 C 20.12 510.63 18.40 512.97 19.47 515.42 C 20.15 517.30 20.80 519.33 22.24 520.79 C 27.11 523.21 33.41 522.55 37.21 527.00 L 14.92 527.00 C 9.97 523.15 5.13 519.17 0.00 515.56 L 0.00 513.71 C 3.36 508.41 7.50 503.31 8.79 497.02 C 11.05 489.34 14.94 482.28 17.90 474.87 C 31.75 443.04 45.60 411.22 59.45 379.40 C 60.85 376.08 61.31 372.47 61.84 368.94 C 66.13 339.74 71.07 310.64 75.19 281.41 C 73.71 280.95 72.23 280.50 70.75 280.03 C 76.67 252.91 82.82 225.85 88.86 198.76 C 90.16 192.78 88.95 186.64 87.84 180.73 C 85.38 183.80 82.64 187.06 82.23 191.14 C 81.72 195.70 81.99 200.55 79.75 204.72 C 76.92 210.35 71.05 213.40 67.32 218.31 C 60.35 227.65 55.03 238.16 48.02 247.44 C 46.11 247.12 44.26 246.52 42.39 246.05 C 43.56 249.31 45.52 252.39 45.74 255.92 C 45.45 259.28 42.33 261.65 42.10 265.04 C 41.49 268.46 41.56 273.28 37.68 274.74 C 34.83 275.81 34.00 272.24 32.60 270.55 C 29.65 269.60 27.74 267.22 26.46 264.51 C 24.17 263.45 20.40 263.06 20.39 259.81 C 20.27 251.79 26.52 245.89 30.10 239.27 C 28.68 237.49 27.70 235.27 29.15 233.18 C 46.42 196.13 63.96 159.19 83.14 123.08 C 85.56 118.48 88.44 114.10 90.20 109.19 C 93.96 98.62 99.43 88.42 107.50 80.51 C 111.29 76.88 113.64 71.24 119.39 70.35 C 118.89 64.10 115.09 58.87 112.95 53.13 C 109.92 45.45 106.36 37.47 107.06 29.03 C 107.10 25.96 109.44 23.78 111.39 21.71 C 111.22 18.61 110.81 15.26 112.44 12.44 C 114.51 8.70 118.88 6.91 122.97 6.56 C 132.24 5.79 140.76 11.18 150.02 10.46 C 152.06 10.34 154.58 9.19 154.73 6.88 C 155.36 4.72 152.51 4.30 151.28 3.19 C 152.70 2.12 154.11 1.03 155.56 0.00 M 153.64 33.56 C 152.43 35.34 151.40 37.44 149.43 38.51 C 146.85 39.98 143.78 39.67 140.93 39.71 C 140.79 44.09 140.67 48.48 140.65 52.86 C 149.51 53.36 158.26 55.30 167.16 55.32 C 165.36 51.24 162.43 47.54 161.79 43.04 C 161.75 39.03 162.47 35.06 162.78 31.08 C 159.74 31.93 156.70 32.78 153.64 33.56 M 126.97 46.86 C 125.05 51.91 130.58 55.50 131.20 59.86 C 128.12 64.03 123.73 67.00 120.52 71.07 C 130.02 72.81 139.11 76.12 147.81 80.25 C 148.17 79.15 148.54 78.05 148.90 76.95 C 144.49 74.44 139.81 72.27 135.75 69.22 C 132.08 62.98 133.22 55.23 131.61 48.38 C 130.49 46.94 128.76 45.64 126.97 46.86 M 115.31 74.82 C 113.40 77.38 111.40 79.88 109.12 82.12 C 102.83 88.17 98.37 95.85 94.75 103.72 C 91.64 110.37 90.92 117.76 89.88 124.94 C 88.64 136.43 86.83 148.05 88.47 159.60 C 89.40 167.50 89.97 175.43 90.72 183.35 C 91.07 187.78 92.30 192.21 91.62 196.66 C 85.71 224.09 79.14 251.39 73.47 278.87 C 74.49 279.00 76.51 279.25 77.53 279.38 C 77.38 284.84 76.27 290.20 75.44 295.58 C 71.42 321.81 67.34 348.03 63.31 374.26 C 62.93 376.63 62.20 378.94 61.22 381.15 C 49.82 407.16 38.53 433.22 27.20 459.26 C 21.87 471.83 16.03 484.21 11.03 496.91 C 14.64 500.97 19.38 503.91 24.14 506.46 C 44.80 477.27 65.09 447.83 85.57 418.52 C 87.50 415.91 88.82 412.92 89.93 409.89 C 102.07 378.76 114.31 347.67 126.40 316.53 C 129.49 317.42 130.23 320.85 131.68 323.32 C 141.68 342.65 151.76 361.95 161.76 381.28 C 164.14 386.09 165.78 391.20 167.79 396.16 C 182.27 433.39 196.89 470.58 211.24 507.86 C 217.61 507.31 223.71 505.34 229.69 503.18 C 211.90 433.48 193.70 363.88 175.81 294.20 C 174.60 289.27 172.90 284.43 172.49 279.34 C 174.68 278.98 176.88 278.60 179.06 278.17 C 175.03 254.42 171.21 230.64 167.23 206.89 C 166.67 205.56 167.92 203.01 169.19 204.90 C 179.36 214.29 188.73 224.55 198.97 233.85 C 203.81 229.88 208.42 225.63 213.36 221.77 C 206.11 212.65 197.94 204.13 192.19 193.92 C 189.38 188.96 188.36 182.94 184.22 178.79 C 179.78 174.06 172.37 173.87 168.21 168.79 C 165.72 165.63 162.68 163.00 159.97 160.06 C 153.86 151.64 149.64 142.05 145.51 132.56 C 141.71 123.54 136.20 115.39 130.66 107.38 C 126.60 101.47 121.54 95.88 114.85 93.00 C 111.48 92.02 108.69 94.89 105.56 95.57 C 106.08 91.72 111.16 90.08 114.60 90.50 C 121.63 93.04 127.18 98.56 131.44 104.56 C 136.65 111.84 141.68 119.31 145.65 127.35 C 151.06 139.09 155.63 151.56 164.15 161.51 C 165.50 153.95 166.20 146.28 166.87 138.63 C 163.81 137.09 162.86 133.61 160.94 131.03 C 158.28 127.03 154.42 124.06 150.41 121.52 C 150.31 116.84 150.44 112.15 150.09 107.48 C 146.83 106.16 142.14 106.07 140.63 102.33 C 137.81 96.50 133.31 91.78 129.87 86.36 C 130.54 86.34 131.88 86.30 132.55 86.28 C 136.46 91.52 140.32 96.79 143.58 102.46 C 146.20 104.30 149.45 104.92 152.45 105.93 C 148.45 99.33 144.55 92.43 138.63 87.33 C 131.77 81.68 123.67 77.73 115.31 74.82 M 153.02 107.35 C 152.71 111.52 152.48 115.74 152.90 119.92 C 155.03 122.18 157.78 123.78 159.89 126.09 C 162.82 129.07 164.61 132.90 167.09 136.22 C 166.02 131.39 163.60 127.03 161.50 122.59 C 158.88 117.41 156.43 112.09 153.02 107.35 M 33.11 230.04 C 32.23 231.92 31.31 233.81 30.77 235.83 C 36.21 238.78 41.55 241.92 46.96 244.90 C 50.44 241.15 50.88 235.83 51.89 231.06 C 53.97 219.77 56.80 208.61 58.17 197.20 C 59.30 188.09 60.91 179.05 61.87 169.93 C 52.00 189.83 42.55 209.93 33.11 230.04 M 204.16 233.23 C 203.98 234.89 205.80 236.06 206.57 237.43 C 210.42 241.91 213.40 248.45 219.88 249.44 C 221.17 248.21 222.12 246.66 223.48 245.50 C 225.13 244.96 226.88 244.85 228.59 244.58 C 230.17 241.56 233.26 240.69 236.47 240.57 C 234.53 236.86 230.47 235.47 226.80 234.12 C 225.46 231.97 224.48 228.85 221.56 228.53 C 218.52 228.14 215.45 229.04 212.41 228.46 C 208.83 227.41 206.38 231.04 204.16 233.23 M 32.39 239.91 C 28.92 246.71 22.14 252.48 22.77 260.74 C 24.59 261.34 26.66 261.53 28.23 262.72 C 29.10 263.95 29.72 265.34 30.40 266.69 C 33.58 267.63 35.67 270.05 37.15 272.91 C 39.81 269.62 39.68 265.29 40.07 261.31 C 41.12 260.19 42.24 259.12 43.09 257.83 C 44.45 252.86 39.49 249.01 40.08 244.02 C 37.56 242.56 35.00 241.18 32.39 239.91 Z"></path> <path fill="#1b1a19" opacity="1.00" d=" M 298.06 27.09 C 298.55 27.07 299.52 27.03 300.00 27.01 C 383.00 26.99 466.00 27.00 549.00 27.00 L 550.00 27.00 L 550.00 444.03 L 548.99 443.97 C 530.34 443.36 511.66 443.86 493.00 443.70 C 428.66 443.77 364.32 443.56 299.99 443.81 C 299.49 443.83 298.50 443.88 298.00 443.91 C 297.93 402.87 298.15 361.83 297.89 320.80 C 289.37 320.14 283.70 311.83 274.99 312.19 C 269.82 311.80 265.00 314.04 260.85 316.90 C 257.09 319.57 252.52 320.53 248.03 321.10 C 248.05 320.45 248.09 319.17 248.11 318.53 C 252.98 318.15 257.62 316.44 261.58 313.59 C 268.66 308.67 278.70 308.28 285.99 312.97 C 289.64 315.44 293.61 317.42 297.92 318.44 C 298.05 312.71 298.01 306.98 297.97 301.25 C 289.50 300.31 283.75 292.18 275.02 292.44 C 269.39 292.01 264.31 294.75 259.79 297.76 C 256.33 300.17 252.14 300.97 248.01 301.19 C 248.04 300.55 248.11 299.28 248.15 298.65 C 253.16 298.66 257.76 296.59 261.80 293.79 C 268.83 289.04 278.61 288.63 285.82 293.21 C 289.56 295.64 293.51 297.81 297.93 298.71 C 298.14 208.17 297.87 117.63 298.06 27.09 M 300.55 46.10 C 300.63 58.75 300.28 71.43 300.73 84.07 C 301.33 90.03 300.86 96.03 301.00 102.00 C 301.01 156.34 300.98 210.69 301.01 265.03 C 300.98 266.33 300.89 267.63 300.73 268.93 C 300.28 278.84 300.63 288.77 300.55 298.69 C 305.94 298.79 310.85 296.35 315.00 293.12 C 320.73 290.09 327.64 288.97 333.86 291.14 C 338.88 292.71 342.65 296.97 347.89 298.00 C 349.97 298.64 353.03 298.24 353.49 301.03 C 350.65 300.98 347.70 300.97 345.05 299.79 C 340.77 297.92 337.19 294.67 332.68 293.28 C 326.75 291.47 320.18 292.66 314.99 295.96 C 310.83 299.14 305.85 301.31 300.53 301.15 C 300.55 306.91 300.48 312.67 300.58 318.43 C 305.93 318.34 310.87 316.09 315.00 312.81 C 322.65 308.33 332.84 308.63 340.01 313.95 C 343.73 316.77 348.23 318.21 352.87 318.48 C 352.89 319.12 352.94 320.39 352.96 321.03 C 350.43 320.67 347.85 320.43 345.43 319.59 C 340.95 318.02 337.44 314.51 332.90 313.08 C 326.90 311.19 320.14 312.24 314.98 315.83 C 310.82 318.95 305.75 320.69 300.56 320.94 C 300.51 344.23 300.50 367.52 300.57 390.81 C 382.71 390.77 464.84 390.78 546.98 390.81 C 547.02 308.87 546.99 226.94 547.00 145.00 C 547.00 127.67 547.00 110.33 547.00 93.00 C 547.19 77.66 546.61 62.29 547.30 46.96 C 546.27 45.69 544.44 46.28 543.05 46.09 C 462.22 46.14 381.38 46.13 300.55 46.10 M 300.56 393.14 C 300.47 409.22 300.58 425.29 300.51 441.36 C 382.67 441.25 464.84 441.36 547.00 441.31 C 546.99 425.25 547.02 409.20 546.99 393.15 C 464.85 393.17 382.70 393.18 300.56 393.14 Z"></path> <path fill="#1b1a19" opacity="1.00" d=" M 246.35 55.57 C 250.32 54.96 254.87 55.13 258.11 57.81 C 259.93 59.27 260.50 61.71 260.37 63.95 C 260.32 87.32 260.39 110.70 260.34 134.08 C 260.57 137.74 257.14 140.34 253.87 141.04 C 250.09 141.81 245.83 141.71 242.48 139.57 C 240.98 138.53 239.38 137.05 239.59 135.05 C 239.54 110.68 239.57 86.32 239.58 61.96 C 239.49 58.38 243.32 56.34 246.35 55.57 M 242.08 60.41 C 241.90 65.01 247.47 65.93 251.03 65.62 C 253.72 65.49 257.76 64.31 257.65 61.00 C 253.79 56.45 246.53 56.97 242.08 60.41 M 242.13 66.45 C 242.30 87.30 242.17 108.15 242.19 129.00 C 242.27 131.47 241.92 134.02 242.54 136.45 C 244.53 138.65 247.72 138.68 250.40 139.33 C 250.56 115.68 250.46 92.04 250.45 68.39 C 247.60 68.11 244.81 67.46 242.13 66.45 Z"></path> <path fill="#1b1a19" opacity="1.00" d=" M 484.42 66.41 C 486.70 65.47 489.38 67.51 488.79 70.01 C 488.95 72.75 485.63 73.31 483.63 72.46 C 481.52 70.95 481.90 67.24 484.42 66.41 Z"></path> <path fill="#1b1a19" opacity="1.00" d=" M 499.55 66.52 C 501.81 65.40 504.87 67.39 504.44 69.95 C 504.37 72.95 499.87 73.88 498.27 71.55 C 496.83 70.12 497.72 67.17 499.55 66.52 Z"></path> <path fill="#1b1a19" opacity="1.00" d=" M 515.40 66.37 C 519.86 64.61 521.68 72.63 516.88 72.82 C 512.91 73.76 511.69 67.26 515.40 66.37 Z"></path> <path fill="#1b1a19" opacity="1.00" d=" M 484.35 82.30 C 486.58 81.39 489.49 83.36 488.78 85.86 C 488.67 88.04 486.35 88.66 484.58 88.92 C 483.76 88.09 482.94 87.26 482.12 86.43 C 482.34 84.87 482.53 82.80 484.35 82.30 Z"></path> <path fill="#1b1a19" opacity="1.00" d=" M 499.46 82.38 C 502.96 80.60 506.51 85.73 503.09 88.08 C 499.44 91.00 495.03 84.46 499.46 82.38 Z"></path> <path fill="#1b1a19" opacity="1.00" d=" M 513.18 85.86 C 512.60 83.38 515.39 81.37 517.65 82.30 C 519.52 82.78 519.70 84.86 519.91 86.45 C 519.07 87.27 518.23 88.10 517.40 88.93 C 515.60 88.66 513.40 88.01 513.18 85.86 Z"></path> <path fill="#1b1a19" opacity="1.00" d=" M 482.27 99.32 C 484.22 97.76 486.60 97.42 488.61 99.10 C 488.67 100.38 488.74 101.65 488.82 102.93 C 487.30 103.97 485.08 105.56 483.48 103.73 C 481.98 102.76 482.47 100.81 482.27 99.32 Z"></path> <path fill="#1b1a19" opacity="1.00" d=" M 499.40 98.24 C 501.62 96.56 505.43 99.28 504.23 101.92 C 504.11 102.40 503.89 103.38 503.78 103.86 C 502.31 103.97 500.50 105.27 499.24 104.07 C 496.85 102.97 497.13 99.31 499.40 98.24 Z"></path> <path fill="#1b1a19" opacity="1.00" d=" M 513.23 99.25 C 515.25 97.43 517.70 97.71 519.76 99.31 C 520.15 101.71 518.98 104.95 516.04 104.56 C 513.41 104.25 512.98 101.40 513.23 99.25 Z"></path> <path fill="#1b1a19" opacity="1.00" d=" M 109.08 138.75 C 110.39 139.79 111.66 140.93 112.64 142.31 C 125.56 160.73 141.32 176.96 158.00 192.00 C 161.42 195.14 165.21 197.93 168.20 201.52 C 167.51 201.57 166.12 201.67 165.42 201.72 C 147.17 185.64 129.41 168.77 114.81 149.22 C 112.58 145.94 109.18 142.99 109.08 138.75 Z"></path> <path fill="#1b1a19" opacity="1.00" d=" M 380.69 180.72 C 382.32 178.42 385.30 177.90 387.94 177.98 C 414.31 178.01 440.69 178.02 467.06 177.97 C 469.25 178.00 471.69 178.05 473.43 179.60 C 475.64 181.33 476.06 184.31 476.02 186.94 C 475.99 209.98 475.98 233.02 476.03 256.06 C 476.04 258.48 475.85 261.22 473.92 262.95 C 472.16 264.81 469.47 265.05 467.06 265.02 C 440.35 264.96 413.64 265.04 386.93 264.99 C 383.58 265.22 380.16 263.00 379.49 259.63 C 378.99 256.11 379.30 252.55 379.26 249.01 C 380.02 248.93 381.52 248.78 382.28 248.70 C 382.57 252.24 382.22 255.83 382.76 259.34 C 383.50 262.03 386.76 261.72 388.95 261.78 C 416.18 261.61 443.43 261.94 470.66 261.61 C 471.31 260.96 471.97 260.32 472.63 259.67 C 472.92 238.47 472.61 217.25 472.79 196.05 C 444.84 195.93 416.89 196.04 388.94 195.99 C 386.65 196.03 383.45 195.85 382.74 198.65 C 382.25 202.15 382.54 205.70 382.21 209.22 C 381.48 209.12 380.02 208.91 379.29 208.81 C 379.71 204.15 377.68 198.22 381.61 194.64 C 384.48 192.24 388.55 193.01 392.02 192.73 C 418.93 192.76 445.85 192.72 472.77 192.76 C 472.75 189.62 472.75 186.48 472.62 183.35 C 471.95 182.70 471.29 182.05 470.64 181.40 C 442.49 181.13 414.31 181.21 386.16 181.35 C 380.56 180.88 384.75 190.01 379.27 189.19 C 379.33 186.35 378.84 183.14 380.69 180.72 Z"></path> <path fill="#1b1a19" opacity="1.00" d=" M 373.32 215.37 C 383.13 213.90 393.16 215.15 403.06 215.00 C 410.60 214.58 417.38 221.51 417.03 229.01 C 417.36 236.50 410.52 243.18 403.09 242.98 C 394.04 243.01 384.98 243.05 375.93 242.97 C 373.08 243.18 370.21 240.91 370.07 238.00 C 369.87 232.32 369.99 226.62 370.01 220.94 C 369.85 218.63 371.06 216.16 373.32 215.37 M 375.35 218.48 C 373.15 218.68 373.34 221.34 373.25 222.96 C 373.32 227.83 372.93 232.74 373.51 237.59 C 373.66 239.95 376.35 239.28 377.98 239.50 C 386.32 239.45 394.67 239.56 403.01 239.46 C 409.00 239.69 414.25 233.93 413.50 228.00 C 413.17 222.28 407.60 217.97 402.03 218.28 C 393.14 218.36 384.22 217.96 375.35 218.48 Z"></path> <path fill="#1b1a19" opacity="1.00" d=" M 402.28 225.05 C 405.40 223.62 409.22 226.51 408.22 229.92 C 407.91 232.95 403.90 234.18 401.63 232.44 C 398.98 230.76 399.39 226.27 402.28 225.05 Z"></path> <path fill="#1b1a19" opacity="1.00" d=" M 78.54 282.37 C 78.94 281.92 79.74 281.01 80.14 280.56 C 95.94 283.26 111.96 284.82 128.00 285.03 C 139.97 284.70 151.96 283.81 163.78 281.80 C 166.24 281.41 168.71 280.70 171.22 280.90 C 173.06 282.71 169.34 282.75 168.35 283.31 C 138.74 288.80 108.05 288.20 78.54 282.37 Z"></path> <path fill="#1b1a19" opacity="1.00" d=" M 138.08 295.03 C 139.18 293.76 140.04 291.43 142.10 291.76 C 141.30 295.80 138.09 298.70 136.06 302.13 C 133.94 304.82 132.68 308.80 128.92 309.55 C 131.22 304.27 135.00 299.85 138.08 295.03 Z"></path> <path fill="#1b1a19" opacity="1.00" d=" M 419.38 404.55 C 427.11 401.25 436.65 406.92 437.54 415.23 C 438.95 422.75 432.59 430.36 425.01 430.59 C 417.87 431.21 410.96 425.24 410.74 418.04 C 410.24 412.26 413.93 406.50 419.38 404.55 Z"></path> <path fill="#1b1a19" opacity="1.00" d=" M 340.19 478.62 C 351.55 478.43 362.92 478.48 374.28 478.59 C 374.25 489.84 374.35 501.09 374.24 512.35 C 368.14 507.99 363.67 501.84 358.05 496.94 C 352.21 490.72 345.71 485.13 340.19 478.62 M 346.65 481.45 C 354.99 489.24 362.63 497.74 371.04 505.46 C 371.29 497.40 371.11 489.35 371.14 481.30 C 362.98 481.41 354.81 481.13 346.65 481.45 Z"></path> </g> <g id="#ffffffff"> <path fill="#ffffff" opacity="1.00" d=" M 300.00 24.00 C 383.00 24.00 466.00 24.00 549.00 24.00 C 549.00 24.75 549.00 26.25 549.00 27.00 C 466.00 27.00 383.00 26.99 300.00 27.01 C 300.00 26.26 300.00 24.75 300.00 24.00 Z"></path> <path fill="#ffffff" opacity="1.00" d=" M 299.99 443.81 C 364.32 443.56 428.66 443.77 493.00 443.70 C 511.66 443.86 530.34 443.36 548.99 443.97 C 549.00 444.72 549.00 446.24 549.00 447.00 C 466.00 447.00 383.00 447.00 300.00 447.00 C 300.00 446.20 299.99 444.61 299.99 443.81 Z"></path> </g> </svg> 