<?xml version="1.0" encoding="UTF-8"?> <svg xmlns="http://www.w3.org/2000/svg" width="558pt" height="564pt" viewBox="0 0 558 564"> <g id="#181e21ff"> <path fill="#181e21" opacity="1.00" d=" M 110.09 10.05 C 115.22 2.85 124.61 0.80 132.96 0.98 C 139.92 1.15 147.75 1.87 152.95 7.05 C 155.54 9.47 156.49 13.01 156.61 16.45 C 159.36 17.43 161.93 19.18 163.11 21.94 C 165.69 27.82 165.12 34.42 164.57 40.64 C 163.63 41.33 162.70 42.02 161.76 42.70 C 159.90 37.46 158.50 31.63 154.31 27.68 C 151.65 25.37 146.64 23.92 144.21 27.29 C 143.98 29.38 144.98 31.34 145.55 33.30 C 139.53 31.66 138.56 24.36 133.31 21.77 C 126.05 18.95 117.74 22.06 112.63 27.56 C 109.25 30.86 107.91 35.50 106.69 39.91 C 104.92 30.04 104.02 18.69 110.09 10.05 Z"></path> <path fill="#181e21" opacity="1.00" d=" M 523.31 22.41 C 526.53 20.17 530.02 25.66 526.76 27.68 C 523.37 30.51 519.45 24.34 523.31 22.41 Z"></path> <path fill="#181e21" opacity="1.00" d=" M 538.34 22.44 C 540.56 20.83 543.98 23.41 542.94 26.03 C 542.50 28.66 538.34 29.17 537.24 26.75 C 536.10 25.34 536.86 23.26 538.34 22.44 Z"></path> <path fill="#181e21" opacity="1.00" d=" M 553.30 22.47 C 554.77 21.31 556.50 22.66 558.00 23.07 L 558.00 26.95 C 556.75 27.44 555.50 28.80 554.08 28.16 C 551.50 27.70 550.99 23.64 553.30 22.47 Z"></path> <path fill="#181e21" opacity="1.00" d=" M 523.31 37.44 C 525.60 36.12 528.72 38.34 527.96 40.97 C 527.60 43.69 523.33 44.31 522.19 41.90 C 521.16 40.43 521.80 38.29 523.31 37.44 Z"></path> <path fill="#181e21" opacity="1.00" d=" M 538.38 37.40 C 540.21 36.43 543.16 37.71 543.03 39.96 C 543.59 42.60 540.15 44.35 538.12 42.88 C 536.16 41.76 536.33 38.38 538.38 37.40 Z"></path> <path fill="#181e21" opacity="1.00" d=" M 553.26 42.90 C 551.09 41.63 551.53 37.78 554.02 37.23 C 555.42 36.83 556.69 37.91 558.00 38.25 L 558.00 41.86 C 556.69 42.87 554.87 44.05 553.26 42.90 Z"></path> <path fill="#181e21" opacity="1.00" d=" M 437.07 45.03 C 437.83 45.30 438.59 45.58 439.36 45.85 C 440.99 44.37 443.28 44.91 445.27 44.66 C 448.07 47.96 448.38 52.62 446.15 56.30 C 447.37 56.66 448.60 57.00 449.85 57.31 C 450.00 59.81 450.02 62.31 449.93 64.81 C 448.35 65.67 444.49 66.39 446.05 68.88 C 449.50 73.20 447.42 78.93 447.90 83.95 C 447.73 90.41 452.37 95.58 453.03 101.88 C 455.11 102.08 457.20 102.22 459.30 102.30 C 457.46 98.89 455.01 95.78 453.83 92.05 C 458.71 91.74 461.07 97.15 465.14 99.00 C 465.15 94.80 465.68 90.63 466.12 86.45 C 466.76 86.51 468.04 86.64 468.68 86.70 C 469.50 90.74 470.05 94.86 471.59 98.71 C 475.33 95.96 478.06 91.64 482.64 90.20 C 482.66 94.69 478.74 97.72 477.81 101.95 C 481.77 101.38 485.64 100.31 489.62 99.84 C 489.56 100.43 489.43 101.61 489.37 102.21 C 486.90 103.63 484.17 104.56 481.84 106.23 C 484.19 106.87 486.55 107.49 488.89 108.16 C 488.81 108.74 488.66 109.89 488.58 110.47 C 485.66 110.40 482.74 110.43 479.84 110.65 C 479.02 115.55 481.72 120.19 480.60 125.06 C 479.88 129.17 484.46 130.15 487.04 131.94 C 492.34 135.19 495.00 141.30 495.48 147.32 C 497.42 144.59 499.05 141.64 501.19 139.05 C 506.15 141.93 511.03 145.00 515.70 148.34 C 516.61 150.76 513.93 152.84 513.10 155.01 C 513.15 155.73 513.25 157.17 513.31 157.89 C 511.42 161.96 509.04 165.77 506.85 169.67 C 506.08 169.70 504.54 169.76 503.77 169.80 C 503.76 174.14 504.08 178.83 501.65 182.66 C 500.43 184.85 498.04 185.87 495.95 187.01 C 496.92 195.34 497.77 203.67 498.75 211.99 C 495.07 214.39 499.82 220.00 495.76 222.04 C 495.80 226.77 496.25 231.48 496.55 236.20 C 495.58 236.73 494.63 237.26 493.68 237.79 C 494.45 242.07 494.42 246.47 495.34 250.73 C 496.64 252.40 498.42 253.61 500.01 255.00 C 499.47 258.19 501.22 262.37 498.96 264.91 C 489.03 265.70 478.98 265.05 469.00 265.22 C 469.00 264.42 469.01 262.81 469.01 262.01 C 478.37 262.00 487.74 262.01 497.10 262.00 C 496.97 260.13 497.17 258.20 496.65 256.39 C 495.35 254.78 493.18 253.85 492.33 251.95 C 491.46 246.57 491.19 241.10 490.56 235.69 C 491.49 235.16 492.43 234.64 493.37 234.11 C 492.95 229.41 492.73 224.68 492.71 219.96 C 493.17 219.55 494.09 218.72 494.55 218.31 C 494.25 216.16 493.95 214.01 493.66 211.86 C 494.12 211.40 495.04 210.49 495.50 210.03 C 494.58 201.53 493.56 193.05 492.74 184.55 C 494.95 183.70 497.77 183.33 499.02 181.03 C 501.56 176.82 500.62 171.71 500.78 167.05 C 502.14 167.01 503.50 166.98 504.88 166.95 C 506.57 163.97 508.28 160.99 509.83 157.93 C 509.43 154.91 510.81 152.25 512.40 149.80 C 508.97 147.43 505.46 145.18 501.91 143.01 C 500.14 146.12 498.45 149.40 495.52 151.59 C 495.53 167.42 493.54 183.30 489.36 198.59 C 485.62 211.83 479.77 225.03 469.64 234.64 C 462.76 241.18 453.78 245.50 444.32 246.51 C 443.84 249.25 443.37 252.00 442.84 254.73 C 440.44 255.38 438.04 256.01 435.66 256.68 C 435.71 258.45 435.76 260.22 435.83 261.99 C 445.88 262.02 455.93 261.99 465.99 262.01 C 465.98 262.81 465.98 264.41 465.98 265.21 C 455.65 265.24 445.32 265.33 434.99 265.19 C 433.11 265.46 432.22 263.57 432.50 261.99 C 432.43 259.69 432.37 257.38 432.61 255.08 C 434.38 252.96 437.56 253.24 440.03 252.57 C 440.46 250.74 440.80 248.89 441.12 247.04 C 440.37 247.01 438.87 246.94 438.12 246.90 C 438.94 238.00 439.84 229.07 441.24 220.24 C 442.56 219.79 443.88 219.35 445.21 218.91 C 445.56 215.54 445.55 212.14 445.50 208.76 C 446.25 208.76 447.74 208.76 448.49 208.76 C 448.35 211.62 448.24 214.49 448.18 217.36 C 452.40 215.04 456.39 212.30 460.10 209.22 C 460.68 208.71 461.25 208.18 461.82 207.65 C 477.45 192.89 486.72 172.63 491.88 152.04 C 493.94 145.64 491.19 137.99 485.54 134.36 C 483.09 132.58 479.46 131.82 478.36 128.67 C 477.73 124.85 478.09 120.92 477.33 117.10 C 476.41 113.12 478.19 109.14 477.22 105.17 C 475.94 103.75 474.09 102.33 474.77 100.15 C 472.99 101.07 471.03 101.14 469.09 100.92 C 468.64 99.60 468.19 98.29 467.74 96.97 C 467.60 98.42 467.47 99.87 467.33 101.32 C 465.70 101.46 464.08 101.45 462.45 101.32 C 462.10 102.86 461.35 104.24 460.47 105.54 C 460.34 106.14 460.08 107.34 459.95 107.94 C 460.29 108.41 460.98 109.36 461.32 109.84 C 460.92 112.96 461.79 116.87 458.88 119.03 C 458.47 118.97 457.67 118.87 457.26 118.81 C 455.88 116.14 455.53 113.09 454.41 110.32 C 453.26 109.32 451.90 108.62 450.74 107.64 C 450.28 103.11 449.91 98.47 447.67 94.38 C 444.34 88.45 445.43 81.50 445.25 75.00 C 445.47 72.67 443.36 71.16 442.82 69.06 C 442.95 67.54 443.26 66.05 443.54 64.55 C 444.78 64.03 446.02 63.50 447.27 62.98 C 447.36 62.09 447.54 60.32 447.62 59.44 C 443.24 58.53 438.75 58.54 434.34 59.21 C 434.29 60.36 434.25 61.51 434.22 62.67 C 435.26 63.34 436.30 64.01 437.34 64.68 C 437.73 66.24 438.11 67.79 438.51 69.35 C 437.81 70.05 437.11 70.74 436.42 71.44 C 436.40 73.38 436.41 75.33 436.42 77.27 C 437.07 77.46 438.36 77.85 439.00 78.05 C 439.10 79.83 439.21 81.61 439.32 83.40 C 439.85 83.68 440.91 84.25 441.44 84.54 C 442.25 93.25 440.83 102.37 444.23 110.66 C 441.31 112.99 438.34 115.97 438.45 120.01 C 437.36 126.82 444.24 130.62 446.85 136.08 C 446.64 137.76 446.03 139.36 445.61 141.00 C 444.55 140.99 443.48 141.03 442.43 141.08 C 442.93 139.53 443.43 137.97 443.91 136.42 C 440.85 131.79 435.45 128.05 435.50 121.99 C 435.08 117.27 437.32 112.73 440.81 109.66 C 438.31 102.34 439.50 94.49 438.93 86.91 C 438.12 86.52 437.32 86.14 436.52 85.75 C 436.22 83.55 437.36 79.67 434.01 79.73 C 434.28 75.46 433.15 70.92 435.00 66.90 C 433.92 65.83 432.64 64.99 431.43 64.09 C 431.47 61.79 431.53 59.50 431.66 57.20 C 433.20 56.86 434.75 56.52 436.30 56.19 C 433.84 52.79 434.25 48.08 437.07 45.03 M 437.67 52.35 C 438.79 53.64 439.93 54.91 441.07 56.19 C 441.81 55.07 444.17 54.33 443.73 52.84 C 441.76 52.28 439.69 52.36 437.67 52.35 M 454.26 106.16 C 454.79 109.46 457.05 104.35 454.26 106.16 M 491.69 162.73 C 484.08 187.68 468.42 212.05 443.72 222.75 C 443.02 229.85 442.18 236.93 441.24 244.00 C 453.68 243.19 465.29 236.55 472.72 226.62 C 483.75 212.07 488.36 193.82 490.85 176.03 C 491.34 171.62 492.25 167.18 491.69 162.73 Z"></path> <path fill="#181e21" opacity="1.00" d=" M 523.34 52.54 C 526.75 50.52 529.94 55.78 526.73 57.93 C 523.28 60.72 519.49 54.41 523.34 52.54 Z"></path> <path fill="#181e21" opacity="1.00" d=" M 538.34 52.53 C 541.71 50.52 544.98 55.81 541.79 57.89 C 538.36 60.66 534.52 54.53 538.34 52.53 Z"></path> <path fill="#181e21" opacity="1.00" d=" M 553.42 52.46 C 554.99 51.83 556.52 52.81 558.00 53.26 L 558.00 57.11 C 556.55 57.87 554.82 59.32 553.23 57.99 C 551.11 56.86 551.55 53.63 553.42 52.46 Z"></path> <path fill="#181e21" opacity="1.00" d=" M 148.21 86.16 C 154.77 79.21 157.23 69.65 162.05 61.62 C 163.26 70.58 161.84 79.55 161.37 88.49 C 160.94 88.99 160.51 89.50 160.08 90.01 C 160.06 90.84 160.02 92.50 160.00 93.33 C 158.17 98.29 153.75 101.63 149.53 104.48 C 144.94 107.30 140.12 109.88 134.99 111.55 C 132.11 112.72 129.34 111.06 126.86 109.79 C 123.80 105.38 119.76 101.85 116.15 97.93 C 115.03 96.70 113.73 95.67 112.30 94.84 L 111.51 94.37 C 107.97 86.18 107.22 76.97 107.75 68.16 C 110.60 74.23 111.09 81.33 115.16 86.83 C 116.69 89.00 119.62 89.57 122.10 89.12 C 124.66 88.93 124.61 85.81 125.47 84.02 C 127.61 84.00 129.81 83.70 131.92 84.21 C 134.67 85.32 136.96 87.57 139.99 87.93 C 142.78 88.22 146.07 88.28 148.21 86.16 Z"></path> <path fill="#181e21" opacity="1.00" d=" M 286.01 268.93 C 285.73 267.16 286.81 264.99 288.84 265.11 C 302.22 264.83 315.62 265.12 329.01 264.97 C 330.97 265.07 333.25 264.65 334.85 266.09 C 335.67 267.94 335.47 270.03 335.53 272.01 C 335.44 281.26 335.56 290.52 335.46 299.77 C 318.98 299.73 302.50 299.74 286.02 299.76 C 286.00 289.48 285.99 279.21 286.01 268.93 M 289.25 268.25 C 289.25 277.75 289.25 287.25 289.25 296.75 C 303.56 296.77 317.86 296.71 332.17 296.78 C 332.29 287.26 332.33 277.73 332.15 268.21 C 317.85 268.30 303.55 268.22 289.25 268.25 Z"></path> <path fill="#181e21" opacity="1.00" d=" M 277.13 302.66 C 286.74 302.31 296.37 302.59 305.98 302.50 C 318.75 302.61 331.53 302.20 344.29 302.89 C 343.35 303.87 342.63 305.67 340.97 305.44 C 320.99 305.55 301.01 305.49 281.04 305.47 C 279.05 305.84 278.02 304.06 277.13 302.66 Z"></path> <path fill="#181e21" opacity="1.00" d=" M 76.26 351.41 C 80.12 349.05 82.98 355.67 78.94 357.21 C 75.32 358.71 72.91 353.06 76.26 351.41 Z"></path> <path fill="#181e21" opacity="1.00" d=" M 91.40 351.40 C 93.89 349.71 97.38 353.22 95.60 355.73 C 94.69 357.78 91.05 357.98 90.16 355.86 C 89.18 354.32 89.72 352.16 91.40 351.40 Z"></path> <path fill="#181e21" opacity="1.00" d=" M 106.31 351.46 C 108.52 349.81 111.84 352.47 110.94 355.03 C 110.43 358.07 105.25 358.05 104.81 355.00 C 104.33 353.64 105.15 352.14 106.31 351.46 Z"></path> <path fill="#181e21" opacity="1.00" d=" M 76.38 366.36 C 78.68 365.38 81.52 367.47 80.87 369.97 C 80.63 372.11 77.74 373.34 76.08 371.94 C 74.01 370.78 74.27 367.34 76.38 366.36 Z"></path> <path fill="#181e21" opacity="1.00" d=" M 91.29 366.38 C 95.27 364.42 98.01 370.86 93.95 372.26 C 90.33 373.76 88.00 368.20 91.29 366.38 Z"></path> <path fill="#181e21" opacity="1.00" d=" M 106.42 366.42 C 108.39 365.61 111.04 366.64 111.02 369.02 C 111.46 371.50 108.25 373.45 106.22 371.99 C 104.16 370.87 104.21 367.36 106.42 366.42 Z"></path> <path fill="#181e21" opacity="1.00" d=" M 76.41 381.51 C 78.90 380.16 81.96 383.13 80.67 385.64 C 79.86 388.13 76.15 388.07 74.90 385.99 C 74.48 384.36 74.49 382.13 76.41 381.51 Z"></path> <path fill="#181e21" opacity="1.00" d=" M 91.48 381.49 C 93.72 380.31 96.57 382.61 95.97 385.03 C 95.59 387.16 92.76 388.32 91.02 387.00 C 89.03 385.85 89.28 382.28 91.48 381.49 Z"></path> <path fill="#181e21" opacity="1.00" d=" M 106.41 381.59 C 109.27 379.77 112.63 384.00 110.34 386.38 C 108.87 388.50 105.13 387.61 104.81 385.05 C 104.39 383.70 105.21 382.21 106.41 381.59 Z"></path> <path fill="#181e21" opacity="1.00" d=" M 178.16 382.31 C 187.77 380.69 198.09 384.04 204.64 391.32 C 212.99 400.33 214.58 414.74 208.27 425.30 C 202.22 435.94 188.97 441.86 177.02 439.01 C 163.73 436.53 153.44 423.55 154.18 410.03 C 154.15 396.57 164.90 384.33 178.16 382.31 M 179.19 385.32 C 169.07 386.91 160.15 394.92 158.00 405.01 C 156.21 412.35 157.95 420.46 162.64 426.39 C 169.66 435.77 183.48 439.35 194.04 434.10 C 205.09 429.19 211.60 415.60 208.03 403.97 C 204.85 391.74 191.65 383.16 179.19 385.32 Z"></path> <path fill="#181e21" opacity="1.00" d=" M 176.43 391.58 C 187.65 387.32 201.38 395.24 203.18 407.11 C 205.76 418.71 195.89 431.04 184.02 431.03 C 172.97 431.90 162.55 422.09 162.73 411.01 C 162.50 402.47 168.40 394.33 176.43 391.58 M 177.47 394.63 C 171.71 396.63 167.22 401.83 166.24 407.87 C 164.67 415.69 169.59 424.09 177.05 426.78 C 182.90 429.08 189.88 427.70 194.55 423.54 C 200.15 418.67 202.02 409.95 198.56 403.32 C 194.93 395.73 185.42 391.65 177.47 394.63 Z"></path> <path fill="#181e21" opacity="1.00" d=" M 67.03 526.87 C 66.75 524.69 68.93 523.13 70.95 523.50 C 84.63 523.50 98.32 523.49 112.00 523.50 C 113.61 523.47 116.27 523.76 116.22 525.93 C 116.95 536.68 116.26 547.48 116.24 558.24 C 99.83 558.26 83.42 558.25 67.01 558.25 C 67.03 547.79 66.95 537.33 67.03 526.87 M 70.21 526.85 C 70.28 536.29 70.27 545.72 70.21 555.16 C 84.55 555.37 98.90 555.20 113.24 555.25 C 113.26 545.75 113.26 536.25 113.24 526.75 C 98.90 526.81 84.55 526.61 70.21 526.85 Z"></path> <path fill="#181e21" opacity="1.00" d=" M 287.52 526.95 C 287.26 524.95 289.04 523.21 291.03 523.52 C 305.34 523.50 319.65 523.43 333.96 523.56 C 336.36 523.37 337.18 526.05 336.99 527.97 C 337.02 538.06 336.98 548.15 336.99 558.24 C 320.50 558.25 304.00 558.25 287.51 558.25 C 287.52 547.81 287.46 537.38 287.52 526.95 M 290.75 526.75 C 290.74 536.25 290.74 545.75 290.76 555.25 C 305.10 555.20 319.44 555.36 333.78 555.17 C 333.71 545.70 333.76 536.24 333.76 526.78 C 319.42 526.72 305.09 526.76 290.75 526.75 Z"></path> <path fill="#181e21" opacity="1.00" d=" M 57.87 561.11 C 80.40 560.92 102.94 560.96 125.48 561.09 C 124.68 562.06 123.88 563.05 123.04 564.00 L 60.50 564.00 C 59.60 563.05 58.73 562.08 57.87 561.11 Z"></path> <path fill="#181e21" opacity="1.00" d=" M 278.40 561.09 C 300.85 560.91 323.31 561.01 345.77 561.04 C 345.11 562.02 344.46 563.01 343.81 564.00 L 280.92 564.00 C 280.04 563.06 279.22 562.06 278.40 561.09 Z"></path> </g> <g id="#000000ff"> <path fill="#000000" opacity="1.00" d=" M 112.63 27.56 C 117.74 22.06 126.05 18.95 133.31 21.77 C 138.56 24.36 139.53 31.66 145.55 33.30 C 144.98 31.34 143.98 29.38 144.21 27.29 C 146.64 23.92 151.65 25.37 154.31 27.68 C 158.50 31.63 159.90 37.46 161.76 42.70 C 162.70 42.02 163.63 41.33 164.57 40.64 C 169.40 42.48 170.26 48.77 169.39 53.23 C 168.75 57.26 165.46 59.88 162.05 61.62 C 157.23 69.65 154.77 79.21 148.21 86.16 C 146.07 88.28 142.78 88.22 139.99 87.93 C 136.96 87.57 134.67 85.32 131.92 84.21 C 129.81 83.70 127.61 84.00 125.47 84.02 C 124.61 85.81 124.66 88.93 122.10 89.12 C 119.62 89.57 116.69 89.00 115.16 86.83 C 111.09 81.33 110.60 74.23 107.75 68.16 C 107.42 65.80 107.27 63.41 106.86 61.06 C 98.57 57.50 97.80 43.04 106.69 39.91 C 107.91 35.50 109.25 30.86 112.63 27.56 M 121.60 25.53 C 114.76 28.27 110.45 35.33 110.06 42.55 C 109.68 43.42 109.28 44.29 108.88 45.16 C 108.48 45.60 107.67 46.48 107.27 46.93 C 106.74 46.32 105.66 45.12 105.13 44.52 C 103.99 47.78 102.94 51.80 105.14 54.86 C 106.15 56.56 108.00 57.40 109.61 58.39 C 111.48 65.57 112.74 72.92 115.64 79.79 C 116.49 80.56 117.38 81.29 118.32 81.96 L 116.21 81.50 C 117.06 82.96 117.61 84.91 119.29 85.67 C 120.34 86.42 122.45 85.75 121.38 84.26 C 122.99 83.18 124.60 82.11 126.19 81.01 C 129.07 80.99 131.95 80.98 134.83 81.03 C 137.24 83.62 141.04 85.82 144.61 84.31 C 147.23 82.70 148.58 79.76 150.14 77.23 C 154.02 70.06 157.58 62.65 160.35 54.98 C 159.26 47.44 157.91 39.63 154.01 32.96 C 152.69 30.56 150.35 28.64 147.46 28.84 C 149.08 30.82 151.94 32.27 151.54 35.25 C 148.76 36.11 145.72 37.38 142.84 36.10 C 138.26 34.62 136.47 29.82 133.59 26.47 C 130.43 23.17 125.36 23.61 121.60 25.53 M 163.23 56.12 C 167.13 54.23 166.20 49.19 165.70 45.71 C 164.72 49.14 163.88 52.61 163.23 56.12 Z"></path> <path fill="#000000" opacity="1.00" d=" M 316.70 77.83 C 319.01 77.00 321.07 75.66 323.03 74.21 C 323.61 74.58 324.77 75.32 325.35 75.69 L 325.59 76.25 C 329.92 78.14 333.64 81.19 337.91 83.23 C 340.07 84.31 342.09 85.69 343.48 87.70 C 343.36 94.95 343.33 102.21 343.50 109.46 C 341.96 111.28 340.12 112.80 337.95 113.78 C 336.85 114.42 335.76 115.06 334.67 115.69 C 331.77 117.42 328.82 119.08 326.01 120.95 C 324.46 121.67 322.51 122.18 320.93 121.29 C 316.94 118.90 312.86 116.68 308.98 114.13 C 308.45 113.90 307.40 113.45 306.88 113.22 C 305.24 112.17 303.74 110.94 302.48 109.47 C 302.74 102.25 302.51 95.03 302.62 87.81 C 302.89 87.31 303.43 86.31 303.70 85.80 C 307.92 83.21 312.31 80.90 316.54 78.31 L 316.70 77.83 M 309.83 85.76 C 309.26 86.02 308.12 86.54 307.55 86.81 C 307.59 87.13 307.66 87.78 307.70 88.10 C 309.96 88.74 312.02 89.88 313.89 91.28 C 315.38 92.07 316.85 92.91 318.31 93.76 C 318.84 93.99 319.90 94.45 320.44 94.68 L 320.51 95.51 L 321.62 95.44 L 321.60 96.74 C 323.93 96.89 325.02 94.65 327.12 94.17 C 329.01 93.10 330.88 91.96 332.64 90.67 C 334.36 89.80 336.10 88.98 337.87 88.22 C 337.68 87.45 337.50 86.69 337.32 85.93 C 333.75 84.99 331.02 82.36 327.71 80.86 C 325.81 80.08 324.35 77.88 322.09 78.37 C 318.20 81.16 313.78 83.06 309.83 85.76 M 333.21 94.33 C 330.38 96.29 327.39 97.96 324.39 99.63 C 324.57 105.72 324.44 111.81 324.47 117.91 C 328.77 116.50 332.09 113.26 336.10 111.26 C 337.44 110.39 338.85 109.60 340.34 108.99 C 340.61 102.70 340.39 96.40 340.48 90.11 C 338.06 91.52 335.66 92.97 333.21 94.33 M 305.52 90.11 C 305.44 94.40 305.54 98.70 305.48 102.99 C 305.60 105.65 304.49 109.49 308.08 110.07 C 311.18 111.88 314.21 113.82 317.22 115.79 C 318.56 116.53 319.95 117.17 321.38 117.76 C 321.32 111.77 321.27 105.78 321.39 99.79 C 319.63 98.42 317.71 97.30 315.71 96.32 C 314.89 95.77 314.08 95.22 313.27 94.67 C 310.71 93.11 308.17 91.51 305.52 90.11 Z"></path> <path fill="#000000" opacity="1.00" d=" M 161.37 88.49 C 172.47 87.85 182.96 93.04 192.03 98.98 C 203.62 104.83 210.23 116.96 214.50 128.70 C 221.23 148.91 227.84 169.18 234.50 189.42 C 236.15 195.21 237.13 201.88 234.41 207.51 C 233.01 210.58 230.00 212.35 227.22 214.01 C 238.14 213.99 249.07 214.00 260.00 214.00 C 260.00 215.41 260.00 216.83 260.00 218.24 C 191.03 218.21 122.07 218.34 53.10 218.18 C 52.86 280.78 53.07 343.39 53.00 406.00 C 85.67 406.00 118.33 405.99 151.00 406.00 C 151.00 406.75 151.00 408.25 151.00 409.00 C 117.33 409.00 83.67 409.00 50.00 409.00 C 49.94 345.39 50.12 281.79 49.91 218.19 C 33.61 218.32 17.31 218.21 1.00 218.24 C 1.00 216.83 1.00 215.41 1.00 214.00 C 13.66 214.00 26.32 213.99 38.98 214.01 C 38.69 212.54 38.40 211.08 38.11 209.63 C 42.08 209.64 46.04 209.63 50.00 209.65 C 50.00 212.43 50.00 215.22 50.00 218.00 C 50.75 218.00 52.25 218.00 53.00 218.00 C 53.01 209.19 52.98 200.38 53.01 191.57 C 57.02 190.53 59.79 186.00 57.58 182.13 C 55.38 177.51 47.77 178.18 46.37 183.08 C 44.95 186.42 47.38 189.49 49.97 191.31 C 50.03 197.32 49.99 203.33 50.00 209.35 C 45.97 209.41 41.94 209.39 37.91 209.37 C 33.47 191.57 28.90 173.80 24.50 155.99 C 23.75 152.69 22.54 149.47 22.25 146.08 C 22.75 144.46 24.37 143.77 25.96 144.01 C 43.03 143.95 60.10 144.08 77.17 143.95 C 82.54 124.23 94.11 105.09 112.30 94.84 C 113.73 95.67 115.03 96.70 116.15 97.93 C 119.76 101.85 123.80 105.38 126.86 109.79 C 126.44 109.64 125.61 109.34 125.20 109.20 C 134.21 119.20 152.74 117.23 159.60 105.70 C 162.62 100.96 163.81 95.39 164.88 89.95 C 164.06 89.72 162.42 89.25 161.61 89.02 C 161.07 90.46 160.55 91.90 160.00 93.33 C 160.02 92.50 160.06 90.84 160.08 90.01 C 160.51 89.50 160.94 88.99 161.37 88.49 M 168.04 92.07 C 166.66 98.55 164.97 105.31 160.60 110.49 C 155.89 116.28 148.29 119.09 140.96 119.00 C 134.87 119.19 128.31 117.56 124.04 112.97 C 121.82 110.74 120.92 107.52 118.51 105.47 C 116.27 103.48 114.16 101.35 112.22 99.07 C 96.69 108.61 86.80 125.11 81.26 142.10 C 89.85 142.18 98.45 142.12 107.05 142.15 C 108.04 139.05 108.65 135.83 109.77 132.77 C 110.71 132.42 111.69 132.21 112.72 132.15 C 113.87 135.44 114.82 138.79 115.83 142.13 C 118.55 142.14 121.34 141.90 124.01 142.56 C 125.97 143.03 126.45 145.27 126.95 146.93 C 132.02 167.14 137.09 187.35 142.16 207.57 C 142.87 207.57 144.31 207.57 145.02 207.57 C 145.25 204.41 145.56 201.04 147.52 198.41 C 150.27 194.85 154.62 192.85 158.97 192.07 C 162.06 191.64 164.78 189.61 168.00 189.97 C 179.41 190.38 190.77 189.15 202.18 189.02 C 195.56 172.62 189.01 156.19 182.34 139.81 C 178.88 130.29 176.76 119.91 178.63 109.81 C 179.33 105.46 181.71 101.48 185.34 98.95 C 179.95 95.81 174.07 93.64 168.04 92.07 M 186.31 103.33 C 182.78 106.50 181.65 111.47 181.89 116.05 C 181.41 124.37 183.51 132.60 186.69 140.23 C 192.41 154.22 198.01 168.25 203.64 182.28 C 204.91 185.58 206.74 188.80 206.71 192.45 C 202.19 193.32 197.58 192.92 193.01 193.00 C 184.49 192.83 175.98 193.15 167.49 193.76 C 168.54 198.43 170.01 203.00 171.38 207.59 C 177.59 207.73 183.82 207.27 190.01 207.82 C 191.33 209.03 191.96 210.76 192.84 212.28 C 201.23 212.14 209.63 212.26 218.02 212.14 C 222.93 212.10 228.47 210.46 231.15 206.03 C 233.79 201.41 232.61 195.88 231.34 191.02 C 224.78 171.10 218.24 151.17 211.67 131.24 C 208.07 121.04 202.83 110.70 193.86 104.22 C 191.76 102.46 188.77 102.24 186.31 103.33 M 111.28 141.22 C 111.73 141.83 111.73 141.83 111.28 141.22 M 150.54 200.44 C 148.55 202.73 148.85 205.93 148.73 208.75 C 155.19 208.89 161.66 208.77 168.13 208.83 C 166.65 204.16 165.35 199.44 164.00 194.74 C 159.13 195.22 153.81 196.49 150.54 200.44 Z"></path> <path fill="#000000" opacity="1.00" d=" M 442.43 141.08 C 443.48 141.03 444.55 140.99 445.61 141.00 C 450.98 141.39 456.37 141.23 461.75 141.25 C 461.80 163.38 461.67 185.51 461.82 207.65 C 461.25 208.18 460.68 208.71 460.10 209.22 C 456.27 208.54 452.36 208.72 448.49 208.76 C 447.74 208.76 446.25 208.76 445.50 208.76 C 428.75 208.75 412.00 208.76 395.25 208.75 C 395.24 186.25 395.25 163.75 395.25 141.25 C 410.97 141.13 426.71 141.47 442.43 141.08 M 415.15 172.06 C 417.66 181.27 424.08 188.71 430.00 195.95 C 435.99 189.07 441.90 181.66 444.73 172.86 C 447.78 163.08 437.73 153.19 428.02 154.96 C 419.92 155.69 413.23 163.93 415.15 172.06 Z"></path> <path fill="#000000" opacity="1.00" d=" M 417.67 171.98 C 415.37 164.11 423.27 156.17 431.09 157.11 C 436.31 157.54 441.21 161.29 442.43 166.47 C 443.50 170.41 441.89 174.39 440.06 177.83 C 437.25 182.95 433.74 187.65 430.03 192.14 C 425.13 185.98 419.98 179.63 417.67 171.98 M 427.28 164.45 C 424.26 165.82 423.14 170.14 425.26 172.73 C 427.80 176.46 434.59 175.52 435.67 171.00 C 437.37 166.34 431.37 161.89 427.28 164.45 Z"></path> <path fill="#000000" opacity="1.00" d=" M 428.36 166.54 C 430.97 164.82 434.94 168.24 433.03 170.97 C 431.86 173.31 428.21 173.26 427.03 170.96 C 425.83 169.46 427.01 167.45 428.36 166.54 Z"></path> <path fill="#000000" opacity="1.00" d=" M 461.67 253.00 C 460.59 249.20 463.99 244.97 467.98 245.45 C 472.09 245.34 474.84 249.95 473.52 253.64 C 472.90 255.72 470.78 256.63 469.14 257.74 C 469.08 259.16 469.03 260.58 469.01 262.01 C 469.01 262.81 469.00 264.42 469.00 265.22 C 469.00 313.48 469.00 361.74 469.00 410.00 C 433.49 410.06 397.98 409.88 362.48 410.09 C 362.46 423.75 356.87 437.30 347.06 446.83 C 338.08 455.71 325.72 461.00 313.10 461.47 C 312.87 480.98 313.07 500.49 313.00 520.00 C 312.25 520.00 310.75 520.00 310.00 520.00 C 309.93 500.50 310.13 481.00 309.91 461.51 C 296.32 461.21 282.95 455.30 273.71 445.32 C 267.07 438.34 262.65 429.43 260.69 420.03 C 244.80 419.96 228.90 420.02 213.00 420.00 C 213.00 419.25 213.00 417.75 213.00 417.00 C 228.74 417.00 244.49 417.00 260.23 417.00 C 259.99 414.34 259.79 411.68 259.69 409.01 C 244.13 408.98 228.56 409.01 213.00 409.00 C 213.00 408.25 213.00 406.75 213.00 406.00 C 228.63 406.00 244.26 406.00 259.89 406.00 C 261.03 392.03 267.98 378.57 279.00 369.86 C 287.73 362.88 298.77 358.72 309.98 358.69 C 310.02 341.79 309.98 324.90 310.00 308.00 C 310.75 308.00 312.25 308.00 313.00 308.00 C 313.01 324.89 312.98 341.78 313.01 358.66 C 327.97 359.04 342.53 366.54 351.62 378.41 C 358.00 386.56 361.74 396.67 362.36 407.00 C 396.90 407.00 431.45 407.00 466.00 407.00 C 465.99 359.74 466.02 312.48 465.98 265.21 C 465.98 264.41 465.98 262.81 465.99 262.01 C 465.98 260.63 465.97 259.26 465.97 257.90 C 464.22 256.59 462.06 255.35 461.67 253.00 M 302.43 388.26 C 300.00 388.26 297.58 388.13 295.16 388.35 C 292.53 391.52 298.05 391.42 300.02 391.29 C 299.43 404.85 299.90 418.43 299.76 432.00 C 298.04 431.99 296.32 431.99 294.60 431.99 C 294.61 432.83 294.63 433.67 294.67 434.52 C 297.22 434.93 299.82 434.76 302.38 435.03 C 302.60 436.95 301.57 441.57 305.13 440.05 C 305.27 438.37 305.26 436.68 305.28 435.00 C 307.00 435.00 308.72 434.99 310.45 435.00 C 310.59 436.96 309.52 441.54 313.13 440.07 C 313.27 438.39 313.25 436.72 313.26 435.05 C 318.02 435.24 323.48 434.61 326.54 430.49 C 331.71 424.41 329.33 413.96 321.86 410.95 C 326.38 407.00 328.33 400.11 325.25 394.72 C 323.20 390.25 318.26 388.11 313.56 388.11 C 313.16 386.35 314.44 383.25 312.03 382.66 C 309.50 383.20 310.86 386.47 310.44 388.25 C 308.81 388.24 307.18 388.24 305.56 388.25 C 305.17 386.42 306.36 383.66 304.27 382.61 C 301.49 382.82 302.83 386.40 302.43 388.26 Z"></path> <path fill="#000000" opacity="1.00" d=" M 302.75 391.25 C 308.93 391.90 316.71 389.18 321.42 394.52 C 325.97 399.30 323.33 408.09 316.98 409.72 C 312.28 410.35 307.49 409.84 302.75 410.00 C 302.75 403.75 302.75 397.50 302.75 391.25 Z"></path> <path fill="#000000" opacity="1.00" d=" M 302.75 413.00 C 308.23 413.18 313.75 412.59 319.19 413.36 C 324.99 414.59 328.21 421.84 325.24 427.00 C 323.54 430.36 319.73 432.19 316.05 432.00 C 311.61 432.03 307.18 431.97 302.75 432.00 C 302.75 425.66 302.75 419.33 302.75 413.00 Z"></path> <path fill="#000000" opacity="1.00" d=" M 92.00 417.00 C 111.67 417.00 131.33 417.00 151.00 417.00 C 151.00 417.75 151.00 419.25 151.00 420.00 C 132.33 420.01 113.67 419.99 95.00 420.00 C 94.99 452.67 95.01 485.33 95.00 518.00 C 94.25 518.00 92.75 518.00 92.00 518.00 C 92.00 484.33 92.00 450.67 92.00 417.00 Z"></path> <path fill="#000000" opacity="1.00" d=" M 541.52 461.80 C 544.72 461.12 548.34 460.79 551.05 463.02 C 554.42 465.32 553.32 469.92 553.53 473.40 C 554.94 475.00 556.74 476.66 556.48 479.02 C 556.51 493.99 556.52 508.98 556.48 523.96 C 556.42 528.21 551.80 530.72 547.94 530.47 C 531.66 530.51 515.37 530.56 499.09 530.45 C 497.17 530.89 495.01 528.83 497.36 527.59 C 514.23 527.34 531.13 527.60 548.01 527.48 C 550.18 527.62 552.86 526.43 553.15 524.06 C 553.43 519.48 553.14 514.90 553.26 510.33 C 546.15 513.42 538.27 513.20 530.69 512.85 C 530.35 506.56 530.44 500.26 530.63 493.98 C 538.25 493.33 546.63 495.04 553.33 490.35 C 553.10 486.27 553.48 482.17 553.09 478.10 C 552.35 476.11 550.08 475.12 548.06 475.25 C 525.37 475.24 502.69 475.27 480.01 475.24 C 477.82 475.06 475.02 475.91 474.39 478.26 C 473.95 482.46 474.68 486.74 473.76 490.91 C 472.81 490.66 471.86 490.42 470.92 490.18 C 470.82 486.04 470.87 481.90 471.13 477.78 C 471.61 474.57 474.86 472.71 477.85 472.35 C 499.07 468.80 520.30 465.34 541.52 461.80 M 541.01 464.93 C 526.65 467.48 512.17 469.39 497.89 472.30 C 515.36 472.32 532.83 471.98 550.29 472.53 C 549.98 470.15 551.04 466.95 548.80 465.26 C 546.55 463.43 543.55 464.65 541.01 464.93 M 533.76 496.75 C 533.75 501.16 533.75 505.58 533.76 509.99 C 540.36 510.25 547.21 510.09 553.15 506.84 C 553.30 502.62 553.22 498.40 553.28 494.19 C 547.16 497.03 540.35 496.91 533.76 496.75 Z"></path> <path fill="#000000" opacity="1.00" d=" M 456.80 500.81 C 462.53 491.93 477.53 491.94 483.22 500.87 C 486.02 504.94 485.15 510.13 485.21 514.79 C 487.82 514.95 491.59 515.56 491.89 518.81 C 492.19 526.85 491.88 534.91 492.03 542.97 C 491.89 544.92 492.42 547.25 490.98 548.87 C 489.57 550.67 487.09 550.46 485.06 550.53 C 474.36 550.45 463.67 550.56 452.97 550.48 C 450.44 550.74 447.86 548.64 448.03 546.01 C 448.00 536.97 447.91 527.92 448.07 518.89 C 448.36 515.64 452.16 514.97 454.80 514.76 C 454.86 510.10 453.94 504.88 456.80 500.81 M 460.89 500.92 C 457.09 504.56 458.18 510.27 457.99 515.00 C 466.00 515.00 474.00 515.00 482.00 515.00 C 481.81 510.46 482.84 505.17 479.57 501.45 C 475.04 495.91 465.75 495.68 460.89 500.92 M 451.81 518.04 C 450.54 525.26 451.60 532.70 451.24 540.01 C 451.51 542.39 450.54 545.28 452.01 547.33 C 463.69 547.67 475.40 547.49 487.09 547.43 C 489.42 547.50 488.52 544.39 488.78 542.96 C 488.40 534.67 489.42 526.27 488.23 518.05 C 476.09 517.95 463.95 517.99 451.81 518.04 Z"></path> <path fill="#000000" opacity="1.00" d=" M 537.30 499.47 C 540.65 498.49 539.73 503.15 539.73 505.09 C 540.31 506.69 537.56 508.68 536.90 506.51 C 536.53 504.22 536.10 501.57 537.30 499.47 Z"></path> <path fill="#000000" opacity="1.00" d=" M 192.54 511.45 C 192.96 511.47 193.81 511.50 194.24 511.52 C 194.31 512.03 194.45 513.05 194.52 513.56 C 191.21 515.90 188.12 518.52 184.99 521.07 C 184.01 521.63 183.98 523.46 185.06 523.94 C 187.25 525.46 189.20 527.31 191.41 528.81 L 191.47 529.52 L 192.53 529.45 L 192.55 530.22 C 193.15 530.64 194.33 531.50 194.92 531.93 C 193.12 535.64 190.72 531.40 188.80 530.24 C 186.94 528.39 184.87 526.78 182.79 525.20 C 182.26 524.86 181.21 524.19 180.68 523.85 C 180.70 523.12 180.73 521.67 180.75 520.94 C 181.17 520.76 182.00 520.41 182.42 520.24 L 182.55 519.77 C 186.06 517.23 189.35 514.39 192.54 511.45 Z"></path> <path fill="#000000" opacity="1.00" d=" M 212.76 511.64 C 213.21 511.63 214.12 511.59 214.57 511.57 C 214.95 514.37 213.28 516.67 212.14 519.05 C 211.03 521.02 210.03 523.06 209.15 525.15 C 208.37 526.71 207.60 528.29 206.84 529.87 C 206.89 532.18 205.10 531.61 203.58 531.29 C 205.22 527.11 207.34 523.15 209.24 519.09 C 210.45 516.62 211.72 514.18 212.76 511.64 Z"></path> <path fill="#000000" opacity="1.00" d=" M 221.48 512.95 C 221.79 512.25 222.41 510.86 222.73 510.16 C 224.35 511.58 225.99 512.98 227.72 514.26 C 229.86 515.84 231.91 517.55 233.87 519.35 C 237.17 519.98 235.56 523.50 233.23 524.26 C 230.50 526.54 227.53 528.54 224.83 530.86 C 223.67 532.12 220.94 532.51 221.46 529.94 C 225.58 527.72 228.56 523.88 232.84 521.90 C 229.36 518.57 225.52 515.54 221.48 512.95 Z"></path> <path fill="#000000" opacity="1.00" d=" M 468.44 537.98 C 469.07 535.31 467.07 531.13 469.96 529.58 C 473.02 530.97 470.88 535.31 471.56 537.98 C 470.53 538.36 469.46 538.34 468.44 537.98 Z"></path> </g> <g id="#ffffffff"> </g> <g id="#b9b8b8fd"> <path fill="#b9b8b8" opacity="1.00" d=" M 180.68 523.85 C 178.12 525.98 178.16 519.17 180.75 520.94 C 180.73 521.67 180.70 523.12 180.68 523.85 Z"></path> </g> </svg> 