<?xml version="1.0" encoding="UTF-8"?> <svg xmlns="http://www.w3.org/2000/svg" width="395pt" height="395pt" viewBox="0 0 395 395"> <g id="#000000ff"> <path fill="#000000" opacity="1.00" d=" M 103.76 126.98 C 103.48 120.36 109.28 114.14 115.95 114.25 C 159.65 114.24 203.34 114.26 247.03 114.23 C 253.95 113.71 260.43 120.04 260.00 126.98 C 259.99 157.67 260.02 188.36 259.99 219.05 C 260.06 223.67 257.12 228.01 253.06 230.07 C 250.01 231.74 246.40 231.18 243.06 231.26 C 214.96 231.23 186.86 231.26 158.76 231.25 C 158.73 241.00 158.78 250.75 158.73 260.51 C 149.27 251.24 139.97 241.82 130.62 232.45 C 128.98 230.52 126.19 231.43 124.00 231.22 C 120.10 231.11 116.08 231.75 112.27 230.72 C 107.03 228.90 103.33 223.52 103.75 217.95 C 103.76 187.62 103.73 157.30 103.76 126.98 M 113.67 122.66 C 111.88 123.25 112.03 125.44 111.98 126.95 C 112.01 157.66 112.01 188.36 111.98 219.07 C 111.66 220.96 112.88 223.29 115.02 223.19 C 121.03 223.36 127.05 223.20 133.06 223.23 C 138.98 229.00 144.53 235.14 150.51 240.87 C 150.49 234.99 150.49 229.11 150.51 223.24 C 181.35 223.27 212.20 223.22 243.04 223.27 C 245.61 223.20 248.31 223.57 250.76 222.61 C 252.00 221.45 251.91 219.60 252.01 218.05 C 252.00 189.36 251.98 160.68 252.02 131.99 C 251.93 129.20 252.33 126.28 251.39 123.60 C 250.29 122.44 248.65 122.22 247.13 122.24 C 205.43 122.25 163.72 122.26 122.02 122.24 C 119.24 122.31 116.38 121.94 113.67 122.66 Z"></path> <path fill="#000000" opacity="1.00" d=" M 135.24 161.01 C 166.41 161.00 197.59 160.99 228.76 161.01 C 228.75 163.59 228.75 166.17 228.75 168.75 C 197.58 168.74 166.41 168.75 135.25 168.75 C 135.25 166.17 135.24 163.59 135.24 161.01 Z"></path> <path fill="#000000" opacity="1.00" d=" M 150.73 176.49 C 171.47 177.08 192.24 176.59 213.00 176.75 C 213.00 179.33 213.00 181.91 213.00 184.49 C 192.25 184.50 171.50 184.50 150.75 184.49 C 150.75 181.82 150.75 179.16 150.73 176.49 Z"></path> <path fill="#000000" opacity="1.00" d=" M 267.76 188.24 C 273.66 188.67 280.28 186.88 285.53 190.41 C 288.98 192.72 291.26 196.76 291.01 200.97 C 290.98 222.66 291.02 244.35 290.99 266.04 C 291.02 272.32 285.28 277.92 279.03 277.92 C 274.36 278.15 269.68 277.92 265.01 278.01 C 255.52 285.84 246.24 293.94 236.55 301.53 C 236.43 293.68 236.53 285.84 236.49 278.00 C 219.99 277.98 203.48 278.03 186.97 277.98 C 180.43 278.28 174.24 272.74 174.08 266.14 C 173.86 257.10 174.07 248.05 174.00 239.00 C 176.67 239.00 179.33 239.00 182.00 239.00 C 182.02 248.04 181.96 257.09 182.01 266.13 C 181.79 267.92 182.85 270.16 184.95 269.97 C 204.71 270.05 224.48 269.97 244.25 270.00 C 244.17 275.45 244.45 280.91 244.06 286.36 C 246.40 282.61 250.31 280.36 253.51 277.45 C 256.74 275.11 259.34 271.78 263.00 270.13 C 268.99 269.66 275.01 270.34 281.00 269.87 C 283.18 269.49 283.28 266.82 283.26 265.07 C 283.24 243.69 283.24 222.31 283.26 200.93 C 283.31 199.20 283.04 196.79 280.97 196.41 C 276.59 195.87 272.15 196.30 267.75 196.27 C 267.75 193.59 267.75 190.92 267.76 188.24 Z"></path> </g> </svg> 